<?xml version="1.0" encoding="UTF-8" standalone="no"?>
<!-- Created with Inkscape (http://www.inkscape.org/) -->

<svg
   xmlns:dc="http://purl.org/dc/elements/1.1/"
   xmlns:cc="http://creativecommons.org/ns#"
   xmlns:rdf="http://www.w3.org/1999/02/22-rdf-syntax-ns#"
   xmlns:svg="http://www.w3.org/2000/svg"
   xmlns="http://www.w3.org/2000/svg"
   xmlns:sodipodi="http://sodipodi.sourceforge.net/DTD/sodipodi-0.dtd"
   xmlns:inkscape="http://www.inkscape.org/namespaces/inkscape"
   width="139.97983mm"
   height="65.068001mm"
   viewBox="0 0 139.97983 65.068001"
   version="1.1"
   id="svg8"
   inkscape:version="0.92.5 (2060ec1f9f, 2020-04-08)"
   sodipodi:docname="movado.svg">
  <defs
     id="defs2" />
  <sodipodi:namedview
     id="base"
     pagecolor="#ffffff"
     bordercolor="#666666"
     borderopacity="1.0"
     inkscape:pageopacity="0.0"
     inkscape:pageshadow="2"
     inkscape:zoom="1.494086"
     inkscape:cx="255.28267"
     inkscape:cy="125.82031"
     inkscape:document-units="mm"
     inkscape:current-layer="page1"
     showgrid="false"
     inkscape:window-width="1366"
     inkscape:window-height="711"
     inkscape:window-x="0"
     inkscape:window-y="0"
     inkscape:window-maximized="1" />
  <metadata
     id="metadata5">
    <rdf:RDF>
      <cc:Work
         rdf:about="">
        <dc:format>image/svg+xml</dc:format>
        <dc:type
           rdf:resource="http://purl.org/dc/dcmitype/StillImage" />
        <dc:title></dc:title>
      </cc:Work>
    </rdf:RDF>
  </metadata>
  <g
     inkscape:label="Tavolo 1"
     inkscape:groupmode="layer"
     id="layer1"
     transform="translate(8.5659693,-96.644573)">
    <g
       id="page1"
       transform="matrix(0.35277779,0,0,0.35277779,12.914882,122.04184)">
      <path
         id="path815"
         d="M -55.2227,98.2817 H 114.859 M -55.2227,69.9337 H 114.859 M -55.2227,41.5859 H 114.859 M -55.2227,13.2383 H 114.859 M -55.2227,-15.1094 H 114.859 M -55.2227,-43.453125 H 114.859 M -55.2227,-71.793 H 114.859 M -55.2227,98.2817 V -71.8008 M -26.875001,98.2817 V -71.8008 M 1.4727,98.2817 V -71.8008 M 29.8164,98.2817 V -71.8008 M 58.1641,98.2817 V -71.8008 M 86.512,98.2817 V -71.8008 M 114.848,98.2817 V -71.8008"
         inkscape:connector-curvature="0"
         style="fill:none;stroke:#ffffff;stroke-width:0.39968503;stroke-opacity:1;stroke-miterlimit:4;stroke-dasharray:none" />
      <path
         id="path817"
         stroke-miterlimit="10"
         d="M -60.8906,-15.1094 H 120.527"
         inkscape:connector-curvature="0"
         style="fill:none;stroke:#000000;stroke-width:0.3985;stroke-miterlimit:10" />
      <path
         id="path819"
         stroke-miterlimit="10"
         d="M -26.875001,-43.453125 H 128.574"
         inkscape:connector-curvature="0"
         style="fill:none;stroke:#000000;stroke-width:0.3985;stroke-miterlimit:10" />
      <path
         id="path821"
         stroke-miterlimit="10"
         d="m 127.37876,-45.04688 c 0.0977,0.597661 1.19531,1.492192 1.49218,1.593755 -0.29687,0.09766 -1.39453,0.996094 -1.49218,1.593745"
         inkscape:connector-curvature="0"
         style="fill:none;stroke:#000000;stroke-width:0.31878999;stroke-linecap:round;stroke-linejoin:round;stroke-miterlimit:10" />
      <path
         id="path823"
         stroke-miterlimit="10"
         d="M -26.875001,-43.453125 V 111.9957"
         inkscape:connector-curvature="0"
         style="fill:none;stroke:#000000;stroke-width:0.3985;stroke-miterlimit:10" />
      <path
         id="path825"
         stroke-miterlimit="10"
         d="m -25.28125,110.80092 c -0.597657,0.0977 -1.496094,1.19532 -1.593751,1.49219 -0.101562,-0.29687 -0.996093,-1.39453 -1.593749,-1.49219"
         inkscape:connector-curvature="0"
         style="fill:none;stroke:#000000;stroke-width:0.31878999;stroke-linecap:round;stroke-linejoin:round;stroke-miterlimit:10" />
      <path
         id="path827"
         d="M -26.875001,-43.453125 V 13.2383 H 29.8164 v -56.691425 h -56.691401"
         inkscape:connector-curvature="0"
         style="fill:#008080;fill-opacity:0.4" />
      <path
         id="path829"
         stroke-miterlimit="10"
         d="M -26.875001,-43.453125 V 13.2383 H 29.8164 v -56.691425 h -56.691401"
         inkscape:connector-curvature="0"
         style="fill:none;stroke:#000000;stroke-width:0.3985;stroke-miterlimit:10;stroke-opacity:0.4" />
      <path
         id="path831"
         stroke-miterlimit="10"
         d="M -26.875001,-43.453125 V 12.2812"
         inkscape:connector-curvature="0"
         style="fill:none;stroke:#0000ff;stroke-width:1.19553006;stroke-miterlimit:10;stroke-opacity:0.4" />
      <path
         id="path833"
         stroke-miterlimit="10"
         d="m -24.32422,10.37109 c -0.95703,0.16016 -2.390624,1.910158 -2.550781,2.390627 -0.160156,-0.480469 -1.593749,-2.230467 -2.550779,-2.390627"
         inkscape:connector-curvature="0"
         style="fill:none;stroke:#0000ff;stroke-width:0.95639998;stroke-linecap:round;stroke-linejoin:round;stroke-miterlimit:10;stroke-opacity:0.4" />
      <path
         id="path835"
         stroke-miterlimit="10"
         d="M -26.875001,-43.453125 H 28.8594"
         inkscape:connector-curvature="0"
         style="fill:none;stroke:#ff0000;stroke-width:1.19553006;stroke-miterlimit:10;stroke-opacity:1" />
      <path
         id="path837"
         stroke-miterlimit="10"
         d="m 26.94922,-46.00391 c 0.16015,0.95703 1.910153,2.390629 2.390622,2.550785 -0.480469,0.160156 -2.230472,1.593745 -2.390622,2.550785"
         inkscape:connector-curvature="0"
         style="fill:none;stroke:#ff0000;stroke-width:0.95639998;stroke-linecap:round;stroke-linejoin:round;stroke-miterlimit:10;stroke-opacity:1" />
      <path
         id="path839"
         stroke-miterlimit="10"
         d="M -26.875001,-15.1094 H 29.8164"
         inkscape:connector-curvature="0"
         style="fill:none;stroke:#ffff00;stroke-width:1.19553006;stroke-miterlimit:10;stroke-opacity:0.4" />
    </g>
    <g
       id="page1-3"
       transform="matrix(0.35277779,0,0,0.35277779,85.894836,122.04184)">
      <path
         id="path864"
         d="M -55.2227,98.2817 H 114.859 M -55.2227,69.9337 H 114.859 M -55.2227,41.5859 H 114.859 M -55.2227,13.2383 H 114.859 M -55.2227,-15.1094 H 114.859 M -55.2227,-43.453125 H 114.859 M -55.2227,-71.793 H 114.859 M -55.2227,98.2817 V -71.8008 M -26.875001,98.2817 V -71.8008 M 1.4727,98.2817 V -71.8008 M 29.8164,98.2817 V -71.8008 M 58.1641,98.2817 V -71.8008 M 86.512,98.2817 V -71.8008 M 114.848,98.2817 V -71.8008"
         inkscape:connector-curvature="0"
         style="fill:none;stroke:#ffffff;stroke-width:0.3985;stroke-opacity:1" />
      <path
         id="path866"
         stroke-miterlimit="10"
         d="M -60.8906,-15.1094 H 120.527"
         inkscape:connector-curvature="0"
         style="fill:none;stroke:#000000;stroke-width:0.3985;stroke-miterlimit:10" />
      <path
         id="path868"
         stroke-miterlimit="10"
         d="M -26.875001,-43.453125 H 128.574"
         inkscape:connector-curvature="0"
         style="fill:none;stroke:#000000;stroke-width:0.3985;stroke-miterlimit:10" />
      <path
         id="path870"
         stroke-miterlimit="10"
         d="m 127.37876,-45.04688 c 0.0977,0.597661 1.19531,1.492192 1.49218,1.593755 -0.29687,0.09766 -1.39453,0.996094 -1.49218,1.593745"
         inkscape:connector-curvature="0"
         style="fill:none;stroke:#000000;stroke-width:0.31878999;stroke-linecap:round;stroke-linejoin:round;stroke-miterlimit:10" />
      <path
         id="path872"
         stroke-miterlimit="10"
         d="M -26.875001,-43.453125 V 111.9957"
         inkscape:connector-curvature="0"
         style="fill:none;stroke:#000000;stroke-width:0.3985;stroke-miterlimit:10" />
      <path
         id="path874"
         stroke-miterlimit="10"
         d="m -25.28125,110.80092 c -0.597657,0.0977 -1.496094,1.19532 -1.593751,1.49219 -0.101562,-0.29687 -0.996093,-1.39453 -1.593749,-1.49219"
         inkscape:connector-curvature="0"
         style="fill:none;stroke:#000000;stroke-width:0.31878999;stroke-linecap:round;stroke-linejoin:round;stroke-miterlimit:10" />
      <path
         id="path876"
         d="M -26.875001,-43.453125 29.8164,13.2383 H 86.512 L 29.8164,-43.453125 h -56.691401"
         inkscape:connector-curvature="0"
         style="fill:#008080;fill-opacity:0.4" />
      <path
         id="path878"
         stroke-miterlimit="10"
         d="M -26.875001,-43.453125 29.8164,13.2383 H 86.512 L 29.8164,-43.453125 h -56.691401"
         inkscape:connector-curvature="0"
         style="fill:none;stroke:#000000;stroke-width:0.3985;stroke-miterlimit:10;stroke-opacity:0.4" />
      <path
         id="path880"
         stroke-miterlimit="10"
         d="M -26.875001,-43.453125 29.1406,12.5625"
         inkscape:connector-curvature="0"
         style="fill:none;stroke:#0000ff;stroke-width:1.19553006;stroke-miterlimit:10;stroke-opacity:0.4" />
      <path
         id="path882"
         stroke-miterlimit="10"
         d="m 29.593749,9.406228 c -0.566405,0.789065 -0.339842,3.042972 -0.113278,3.496095 -0.453125,-0.226559 -2.707029,-0.45312 -3.4961,0.113286"
         inkscape:connector-curvature="0"
         style="fill:none;stroke:#0000ff;stroke-width:0.95639998;stroke-linecap:round;stroke-linejoin:round;stroke-miterlimit:10;stroke-opacity:0.4" />
      <path
         id="path884"
         stroke-miterlimit="10"
         d="M -26.875001,-43.453125 H 28.8594"
         inkscape:connector-curvature="0"
         style="fill:none;stroke:#ff0000;stroke-width:1.19553006;stroke-miterlimit:10;stroke-opacity:0.97907948" />
      <path
         id="path886"
         stroke-miterlimit="10"
         d="m 26.94922,-46.00391 c 0.16015,0.95703 1.910153,2.390629 2.390622,2.550785 -0.480469,0.160156 -2.230472,1.593745 -2.390622,2.550785"
         inkscape:connector-curvature="0"
         style="fill:none;stroke:#ff0000;stroke-width:0.95639998;stroke-linecap:round;stroke-linejoin:round;stroke-miterlimit:10;stroke-opacity:1" />
      <path
         id="path888"
         stroke-miterlimit="10"
         d="M 1.4727,-15.1094 H 58.1641"
         inkscape:connector-curvature="0"
         style="fill:none;stroke:#ffff00;stroke-width:1.19553006;stroke-miterlimit:10;stroke-opacity:0.4" />
    </g>
  </g>
</svg>
