<?xml version="1.0" encoding="UTF-8" standalone="no"?>
<!-- Created with Inkscape (http://www.inkscape.org/) -->

<svg
   width="270.93332mm"
   height="121.70834mm"
   viewBox="0 0 270.93332 121.70834"
   version="1.1"
   id="svg5"
   inkscape:version="1.1.2 (0a00cf5339, 2022-02-04)"
   sodipodi:docname="komunterio.svg"
   xmlns:inkscape="http://www.inkscape.org/namespaces/inkscape"
   xmlns:sodipodi="http://sodipodi.sourceforge.net/DTD/sodipodi-0.dtd"
   xmlns="http://www.w3.org/2000/svg"
   xmlns:svg="http://www.w3.org/2000/svg">
  <sodipodi:namedview
     id="namedview7"
     pagecolor="#ffffff"
     bordercolor="#666666"
     borderopacity="1.0"
     inkscape:pageshadow="2"
     inkscape:pageopacity="0.0"
     inkscape:pagecheckerboard="0"
     inkscape:document-units="mm"
     showgrid="false"
     inkscape:zoom="0.707139"
     inkscape:cx="323.13308"
     inkscape:cy="323.13308"
     inkscape:window-width="1536"
     inkscape:window-height="800"
     inkscape:window-x="0"
     inkscape:window-y="27"
     inkscape:window-maximized="1"
     inkscape:current-layer="text4338" />
  <defs
     id="defs2" />
  <g
     inkscape:label="Tavolo 1"
     inkscape:groupmode="layer"
     id="layer1"
     transform="translate(7.3026466,-106.56303)">
    <rect
       style="fill:#000000;stroke-width:0.266293;stroke-linecap:round"
       id="rect6782"
       width="270.93332"
       height="121.70834"
       x="-7.3026466"
       y="106.56303" />
    <g
       aria-label="komunterio"
       id="text4338"
       style="font-size:33.8264px;line-height:1.25;stroke-width:0.845661">
      <path
         d="m 23.353308,175.54489 0.270611,0.33826 z m 2.503154,0 h 0.642701 v 0.94713 q -0.405916,-0.23678 -0.473569,-0.33826 -0.06765,-0.10148 -0.169132,-0.60887 z m 6.427016,-2.57081 -1.285403,1.9281 v 0.33827 l 0.676528,0.6427 q 0.744181,0 1.556014,-0.33826 l 0.338264,0.94713 1.623667,-0.60887 q -0.135305,-0.27061 -0.439743,-0.67653 -0.304437,-0.43974 -0.541222,-0.81183 -0.202959,-0.37209 -0.304438,-0.77801 l -0.947139,-0.6427 z m -7.374155,-15.99989 0.947139,-0.30444 h 2.90907 v 0.30444 h 1.894279 l 0.338264,0.33827 q 0,0.67652 0.338264,1.2854 0,0.16913 0,0.27061 0,0.10148 -0.03383,0.20296 -0.03383,0.0677 -0.06765,0.10148 0,0.0338 -0.101479,0.16913 -0.06765,0.10148 -0.135305,0.20296 0.405917,0.20296 0.676528,0.6427 l -0.338264,3.51794 h 1.285403 q -0.06765,0.74419 -0.338264,0.98097 -0.236785,0.23679 -0.947139,0.30444 -0.03383,0.94714 -0.338264,1.58984 0.405917,0.1353 0.473569,0.20296 0.06765,0.0676 0.202959,0.43974 h 1.894278 l -0.338264,-1.2854 0.47357,-0.30444 0.473569,0.30444 q -0.135305,-0.40592 -0.507396,-1.08245 -0.37209,-0.67653 -0.439743,-0.81183 0.439743,-0.13531 0.947139,-0.6427 h 0.676528 q 0.169132,-0.54123 0.608876,-0.98097 0.811833,0.16913 1.285403,0.6427 0.575049,-0.23678 1.623667,-0.30443 v -0.33827 h 2.232543 q 0.03383,0.0338 0.101479,0.10148 0.06765,0.0677 0.236785,0.0338 0.169132,-0.0677 0.338264,-0.13531 0.676528,0.54122 0.947139,0.98097 0.338264,-0.0677 0.473569,-0.0677 0.980966,0 1.082445,1.6575 l -0.608875,0.6427 h -1.623667 v 0.30444 h -0.947139 q -0.338265,0.33826 -0.744181,0.33826 h -0.202959 q -0.135305,0.27061 -0.236785,0.33827 -0.06765,0.0676 -0.439743,0.30443 h -1.285403 q -0.608875,1.18393 -1.21775,1.58984 -0.03383,1.0148 -0.338264,1.92811 0.473569,0.33826 1.285403,1.2854 v 1.25158 l 0.270611,0.33826 0.676528,0.30444 0.338264,0.33826 v 0.64271 l 0.608875,0.6427 q 0.642702,0.23678 0.947139,0.6427 h 1.285404 q 0.101479,-0.0677 0.202958,-0.13531 0.135306,-0.10148 0.169132,-0.10148 0.03383,-0.0338 0.101479,-0.0676 0.10148,-0.0338 0.202959,-0.0338 0.101479,0 0.270611,0 l 1.014792,1.2854 v 1.9281 l -1.014792,0.6427 q -0.169132,-0.0338 -0.405917,-0.0338 -0.236785,0 -2.097237,0.33826 -0.710354,-0.47357 -2.334021,-0.47357 -1.623668,-0.0338 -2.198716,-0.47357 -0.439744,0.13531 -0.811834,0.13531 -0.202958,0 -1.082445,-0.13531 -0.169132,0.20296 -0.947139,0.6427 h -2.909071 v -0.33826 q -1.116271,0 -2.232542,0.33826 -0.84566,-0.60887 -1.894278,-0.6427 -0.06765,0.0338 -0.169132,0.10148 -0.06765,0.0677 -0.10148,0.10148 -0.03383,0 -0.101479,0.0338 -0.03383,0.0338 -0.06765,0.0338 -0.03383,0 -0.06765,0.0338 -0.03383,0 -0.135306,0 -0.06765,0 -0.135306,0 -0.03383,0 -0.169132,0 l -1.014792,-0.94714 v -1.2854 h 0.10148 q 0.270611,0 0.608875,-0.0676 0.37209,-0.0677 0.507396,-0.0677 0.37209,0 0.676528,0.47357 l 0.473569,-0.27061 q 0.06765,-0.16913 0.135306,-0.20296 0.06765,-0.0676 0.135306,-0.0338 0.101479,0.0338 0.236784,0.0677 0.135306,0 0.304438,-0.0338 l 0.06765,-0.81183 q 0.507396,-0.5074 0.947139,-0.6427 v -0.33827 q -0.405917,-0.40591 -0.405917,-0.60887 0,-0.27061 0.405917,-0.67653 -0.135306,-0.43974 -0.135306,-1.08244 0,-0.3721 0.06765,-1.21776 0.06765,-0.84566 0.06765,-1.21775 -0.06765,-0.10147 -0.169132,-0.20295 -0.06765,-0.13531 -0.101479,-0.16914 0,-0.0338 -0.03383,-0.10148 -0.03383,-0.10147 -0.03383,-0.20295 0,-0.10148 0,-0.27061 0.270611,-0.40592 0.37209,-1.1501 0.10148,-0.77801 0.304438,-1.08245 v -0.33826 q -0.37209,-0.5074 -0.47357,-1.99576 -0.101479,-1.48836 -0.202958,-1.82662 0.236785,-0.40592 0.676528,-0.64271 l -0.676528,-2.23254 -0.980966,0.30444 q -0.541222,-0.27061 -1.251576,-0.30444 l -0.94714,-0.33826 v -1.58984 l 0.338264,-0.6427 z"
         style="font-family:GNUTypewriter;-inkscape-font-specification:GNUTypewriter;fill:#ffffff"
         id="path1235" />
      <path
         d="m 56.16488,169.32083 h 0.608876 q 0.06765,0.0338 0.169132,0.0676 0.169132,0.0677 0.169132,0.27061 0,0.0338 0,0.0677 0,0.13531 0,0.23679 -0.507396,-0.10148 -0.608876,-0.16913 -0.101479,-0.0677 -0.338264,-0.47357 z m -1.420708,1.72514 h 0.202958 q 0.06765,0.0338 0,0.10148 h -0.202958 q -0.06765,-0.0338 0,-0.10148 z m 1.420708,1.1501 h 0.94714 q 0,0.16913 0,0.27061 0,0.0677 -0.03383,0.13531 0,0.0676 -0.03383,0.1353 -0.03383,0.0677 -0.06765,0.10148 0,0.0338 -0.06765,0.16913 -0.06765,0.10148 -0.135305,0.16914 h -0.338264 q -0.270612,-0.40592 -0.270612,-0.98097 z m -4.803349,1.92811 0.270612,0.33826 z m 1.556015,-8.62574 q -0.06765,0.0338 -0.169132,0.10148 -0.06765,0.0677 -0.101479,0.10148 -0.03383,0 -0.101479,0.0338 -0.03383,0.0338 -0.06765,0.0338 -0.03383,0 -0.06765,0.0338 -0.03383,0 -0.135306,0 -0.06765,0 -0.135305,0 -0.03383,0 -0.169132,0 -0.338264,0.57505 -0.980966,0.98097 v 1.25157 q -0.101479,0.0338 -0.202958,0.0677 -0.06765,0 -0.135306,0.0338 -0.03383,0 -0.101479,0.0338 -0.03383,0.0338 -0.06765,0.0677 -0.03383,0 -0.101479,0.0677 -0.03383,0.0338 -0.06765,0.10147 -0.03383,0.0338 -0.101479,0.13531 -0.06765,0.0676 -0.135306,0.13531 l -0.338264,1.62366 q 0.47357,0.33827 0.47357,0.43975 0,0.0338 -0.03383,0.10148 0,0.0677 -0.03383,0.20295 -0.03383,0.10148 -0.06765,0.20296 v 0.6427 q 0.304438,0.67653 0.338264,1.58984 0.405917,0.5074 0.575049,1.28541 l 0.980966,0.33826 h 1.623667 v 0.30444 h 1.894278 l 0.338264,-0.30444 v -1.2854 h 1.623668 l 0.608875,-0.6427 v -0.27061 q 0,-0.0677 0.338264,-1.6575 -0.575049,0.10148 -0.947139,0 l 0.947139,-0.94714 q -0.06765,-0.60887 -0.06765,-0.94714 0,-0.30443 0.06765,-0.98096 l -2.232543,-2.23254 h -0.338264 q -0.06765,0.0676 -0.202958,0.1353 -0.101479,0.0676 -0.135306,0.10148 0,0 -0.06765,0.0677 -0.06765,0.0338 -0.10148,0.0338 0,0 -0.03383,0.0676 -0.03383,0.0677 -0.06765,0.10148 0,0.0338 -0.06765,0.13531 h -0.270611 q -0.541222,-0.84566 -0.676528,-1.28541 z m 1.961931,-3.51794 q 0.642702,0.23678 0.947139,0.6427 h 1.894279 l 1.623667,0.94714 v 0.6427 l 0.338264,0.30444 q 0.439743,0.1353 0.947139,0.6427 l 0.338264,0.33826 v 0.94714 q 0.439744,0.13531 0.94714,0.6427 v 1.92811 l 0.608875,0.30444 v 1.2854 h 0.338264 v 0.94714 q -0.06765,0.0676 -0.135306,0.20296 -0.06765,0.10148 -0.101479,0.1353 0,0.0338 -0.03383,0.10148 -0.03383,0.0677 -0.06765,0.13531 0,0.0676 0,0.16913 0,0.0676 0,0.23679 h -0.270611 q -0.03383,0.6427 -0.338264,0.94713 v 1.28541 q -0.507396,0.50739 -0.94714,0.6427 v 1.2854 q -0.642701,0.5074 -1.285403,0.6427 l -0.338264,0.30444 v 0.6427 l -0.338264,0.33827 q -1.014792,0.30444 -2.232542,0.30444 l -0.94714,0.94713 h -1.623667 q -0.169132,-0.10147 -0.236785,-0.1353 -0.06765,-0.0677 -0.135305,-0.10148 -0.06765,-0.0676 -0.101479,-0.10148 0,-0.0338 -0.06765,-0.13531 -0.03383,-0.10147 -0.06765,-0.16913 h -1.285403 v -0.30443 h -1.623668 q -0.270611,-0.40592 -0.270611,-0.94714 H 49.737864 L 49.3996,177.64212 v -0.30444 l -0.270611,-0.33826 h -0.676528 l -0.947139,-0.94714 v -0.94714 l -0.676528,-0.33826 q -0.169132,-0.74418 -0.608875,-1.58984 v -1.28541 h 0.338264 v -1.9281 h -0.338264 v -1.2854 q 0.270611,-0.47357 0.608875,-0.64271 v -0.94714 q 0.575049,-1.08244 0.676528,-1.58984 0.710354,-0.6427 1.285403,-0.98096 v -0.6427 l 0.338264,-0.30444 h 0.608875 v -0.30444 h 0.676528 q 0.03383,-0.0676 0.06765,-0.16913 0.06765,-0.13531 0.101479,-0.16913 0.03383,-0.0338 0.101479,-0.10148 0.10148,-0.0676 0.304438,-0.20296 0.811834,0.0338 1.31923,0.30444 0.37209,-0.47357 0.744181,-0.47357 0.270611,0 0.879486,0.16913 0.202958,-0.20296 0.947139,-0.6427 z"
         style="font-family:GNUTypewriter;-inkscape-font-specification:GNUTypewriter;fill:#ffffff"
         id="path1237" />
      <path
         d="m 79.369755,176.76264 q 0.169132,0.47357 0.304437,0.54122 0.06765,0.0338 0.304438,0.10148 -0.169132,-0.47357 -0.304438,-0.54123 -0.06765,-0.0338 -0.304437,-0.10147 z m -7.035892,0.30443 q 0.236785,0.40592 0.338264,0.47357 0.10148,0.0677 0.608876,0.16913 l -0.338264,-0.6427 z m -0.338264,-9.26843 h 0.642702 v 0.6427 h -0.642702 z m 7.374156,-1.92811 q -0.575049,0.57505 -0.980966,1.28541 v 1.2854 h -0.304437 q 0,0.91331 0.304437,1.58984 -0.37209,0.13531 -0.439743,0.20296 -0.06765,0.0677 -0.202958,0.43974 0.03383,0.13531 0.202958,1.04862 0.202958,0.87949 0.439743,1.18393 l -0.304437,1.2854 q 0.676528,0.30444 1.556014,0.30444 l -0.270611,0.98096 q -0.06765,-0.0676 -0.202959,-0.1353 -0.101479,-0.0677 -0.135305,-0.0677 -0.03383,-0.0338 -0.101479,-0.0677 -0.06765,-0.0338 -0.135306,-0.0338 -0.06765,-0.0338 -0.169132,-0.0338 -0.06765,0 -0.236785,0 0.101479,0.20296 0.202959,0.37209 0.101479,0.1353 0.270611,0.23678 0.202958,0.10148 0.304437,0.13531 0.10148,0.0338 0.372091,0.1353 0.304437,0.0677 0.439743,0.10148 l 0.676528,-0.6427 -0.338264,-0.6427 0.608875,-0.33826 -0.270611,-1.89428 h 0.270611 v -1.28541 l 1.014792,-0.33826 v -0.30444 l -1.285403,-0.33826 q 0.169132,-0.60888 0.608875,-1.25158 v -1.62366 q -0.541222,-0.27062 -1.285403,-0.30444 l -0.338264,-0.33827 q -0.03383,-0.71035 -0.270611,-0.94714 z m -6.731454,0.94714 q -0.642702,0.5074 -1.251577,0.64271 -0.03383,0.67652 -0.338264,1.2854 v 0.33826 q 0.338264,0.84566 0.338264,1.89428 l 0.947139,0.98097 q -0.473569,0 -0.778007,0.20295 -0.101479,0.0677 -0.169132,0.10148 0.03383,0.16914 0.03383,0.91332 0,0.81183 -0.03383,1.01479 0.372091,0.20296 0.47357,0.27061 0.135305,0.0677 0.304437,0.23678 0.202959,0.13531 0.270612,0.30444 0.101479,0.16913 0.202958,0.47357 -0.06765,-0.0676 -0.202958,-0.1353 -0.10148,-0.0677 -0.135306,-0.0677 -0.03383,-0.0338 -0.101479,-0.0677 -0.06765,-0.0338 -0.135306,-0.0338 -0.06765,-0.0338 -0.169132,-0.0338 -0.06765,0 -0.236785,0 0.270612,0.67653 0.980966,0.67653 0.37209,0 1.251577,-0.33827 v -1.62367 q -0.270611,-0.60887 -0.270611,-1.58984 h 0.270611 l 0.338264,-1.58984 -0.608875,-0.6427 q 0,-0.40592 0.06765,-1.08244 0.06765,-0.71036 0.06765,-1.04862 0,-0.57505 -0.135305,-1.08245 z m -0.980966,-3.51794 q 0.06765,-0.60888 0.236785,-0.81184 0.169132,-0.20295 0.744181,-0.47357 h 1.589841 l 0.947139,0.33827 0.338264,0.94714 1.894279,0.33826 q 0,-0.67653 0.338264,-1.2854 l 0.947139,0.30444 q 0.473569,-0.57505 0.947139,-0.57505 0.304438,0 0.676528,0.27061 h 0.608875 q 0.304438,-0.30444 1.014792,-0.33827 0.541223,0.77801 0.608876,1.62367 0.473569,0 0.778007,0.20296 0.101479,0.0677 0.169132,0.10148 l 0.642701,0.98097 q 0,0.71035 0.304438,1.25157 -0.03383,0.71036 -0.304438,0.98097 v 0.6427 q 0.270612,0.30444 0.304438,0.94714 l -0.304438,0.33826 v 0.94714 l -0.304437,0.94714 q 0.37209,0.13531 0.405917,0.20296 0.06765,0.0338 0.202958,0.43974 0,0.47357 0,0.5074 0,0 -0.304438,0.1353 l 0.304438,1.28541 -0.608875,0.30443 v 0.33827 q 0.338264,0.27061 1.285403,1.58984 0,0.81183 -0.338264,1.2854 0.202958,0.6427 0.338264,1.92811 l -0.980966,0.6427 -1.58984,-0.33826 v -0.30444 q -0.744181,0.0338 -1.285404,0.30444 h -0.608875 l -2.266369,-0.64271 q -0.541222,0.64271 -1.589841,0.64271 h -0.338264 q -0.338264,0.33826 -0.74418,0.33826 h -0.202959 q -0.710354,-0.5074 -2.131063,-0.60888 -1.386883,-0.10147 -1.995758,-0.37209 l -0.676528,0.98097 q -1.21775,0 -2.232542,0.30444 -0.372091,-0.23679 -0.47357,-0.30444 -0.06765,-0.0676 -0.202958,-0.33826 h -1.217751 v -1.58985 q -0.439743,-0.54122 -0.676528,-1.2854 0.608876,-0.71035 1.285404,-0.94714 v -0.23678 q 0,-0.40592 0.338264,-0.74418 v -0.64271 q -0.405917,-0.54122 -0.405917,-1.62366 0,-0.27061 0.03383,-0.77801 0.03383,-0.54122 0.03383,-0.77801 l -0.338264,-0.33826 v -0.60888 l 0.676528,-2.26636 q -0.439744,-0.23679 -0.676528,-0.64271 l 0.338264,-0.94714 q -0.47357,0 -0.778008,-0.20295 -0.101479,-0.0677 -0.169132,-0.10148 v -2.57081 q 0.676528,-0.16913 0.811834,-0.16913 0.169132,0 0.744181,0.16913 0.135305,-0.27061 0.202958,-0.30444 0.06765,-0.0677 0.47357,-0.33826 0.913313,0.0338 1.285403,0.30444 0.06765,-0.0338 0.135306,-0.10148 0.101479,-0.0677 0.135305,-0.0677 0.03383,-0.0338 0.06765,-0.0676 0.06765,-0.0338 0.101479,-0.0338 0.03383,0 0.06765,0 0.03383,-0.0338 0.101479,-0.0338 0.101479,0 0.135306,0 0.06765,0 0.202958,0 0.405917,0.60887 0.947139,0.94714 z"
         style="font-family:GNUTypewriter;-inkscape-font-specification:GNUTypewriter;fill:#ffffff"
         id="path1239" />
      <path
         d="m 98.24485,177.47299 q 0.37209,0.23678 0.439743,0.33826 0.06765,0.10148 0.169132,0.60888 -0.507396,-0.10148 -0.608875,-0.16913 -0.101479,-0.0677 -0.338264,-0.47357 z m -4.803349,-2.57081 v 0.33827 h 1.285403 v -0.33827 z m -6.325537,-12.51576 2.469327,0.37209 q 0.304438,-0.30444 0.94714,-0.33827 0.84566,0.57505 1.623667,0.6427 0.676528,1.11627 0.676528,2.57081 0.37209,-0.13531 0.541222,-0.13531 0.06765,0 0.135306,0.0677 0.101479,0.0338 0.270611,0.10148 l 0.06765,0.47357 q -0.169132,0.0676 -0.270611,0.20295 -0.06765,0.10148 -0.135306,0.10148 -0.270611,0 -0.980966,-0.50739 -0.03383,0.1353 -0.03383,0.81183 v 0.30444 q 0,0.81183 -0.270611,1.1501 v 0.30443 l 0.304437,0.64271 -0.304437,0.94713 q 0.304437,0.43975 0.304437,0.84566 0,0.33827 -0.304437,1.08245 l 0.676528,0.6427 -0.372091,0.94714 0.980966,0.98097 h 0.676528 q 0.169132,-0.54123 0.608875,-0.98097 0.47357,0.10148 0.575049,0.16913 0.135306,0.0676 0.372091,0.47357 0.541222,-0.27061 1.285403,-0.30444 0.202958,-0.47357 0.304437,-0.50739 0.10148,-0.0677 0.642702,-0.13531 -0.270611,-0.40591 -0.270611,-0.94714 l 0.947139,-0.33826 -0.338264,-1.58984 q 0.507396,-0.37209 0.811834,-1.18393 0.304437,-0.81183 0.473569,-1.04861 -0.135305,-0.37209 -0.135305,-0.60888 0,-0.23678 0.135305,-0.67653 -0.473569,-0.40591 -0.947139,-1.2854 h -0.270611 q -0.372091,0 -0.676528,-0.33826 h -1.623667 v -0.30444 l -0.507396,-0.37209 q 0.101479,-0.33827 0.135305,-0.74418 0.03383,-0.43975 0.135306,-0.67653 0.135305,-0.27061 0.507396,-0.57505 l 1.048618,-0.16913 0.913313,-0.0338 h 0.338264 q 0.169132,0.20296 0.439743,0.0676 0.304438,-0.1353 0.439743,-0.1353 0.06765,0 0.304438,-0.0338 0.270612,-0.0676 0.372092,-0.0676 0.37209,0.16913 1.1501,0.16913 0.20295,0 0.60887,0 0.40592,-0.0338 0.57505,-0.0338 l -0.0677,1.31922 q 0,0.5074 0.30443,0.98097 v 1.58984 q -0.30443,0.71036 -0.30443,2.09724 v 0.47357 h 0.30443 v 0.94714 q -0.30443,0.54122 -0.30443,1.2854 h 0.30443 v 1.89428 h -0.30443 v 1.62367 q 0.0338,0 0.0677,0.0338 0.23678,0.16913 0.16913,0.27061 -0.1353,0.16914 -0.23678,0.33827 0.50739,0.1353 0.98096,0.1353 0.43975,0 0.94714,-0.1353 0.74418,0.47357 1.28541,0.6427 0,0.77801 -0.33827,1.25158 l 0.33827,0.98096 q -0.54123,0.54122 -0.67653,0.94714 -0.67653,0.0338 -1.28541,0.33826 h -0.60887 l -0.33827,-0.33826 h -0.94713 q -0.10148,0.0677 -0.23679,0.16913 -0.10148,0.0677 -0.1353,0.10148 -0.0338,0 -0.13531,0.0338 -0.0677,0.0338 -0.16913,0.0338 -0.10148,0 -0.27061,0 -0.54123,-0.54122 -0.67653,-0.98096 -0.439745,0.30444 -0.473571,0.30444 l -0.47357,-0.30444 q 0.338264,-0.91331 0.338264,-1.58984 -0.710354,0.30444 -1.623667,0.30444 -0.338264,0.87948 -1.285403,1.9281 -0.169132,0 -0.270611,0 -0.10148,0 -0.202959,0.0338 -0.06765,0.0338 -0.101479,0.0676 -0.03383,0 -0.169132,0.10148 -0.101479,0.0676 -0.202958,0.1353 H 94.38864 v 0.30444 h -0.947139 q -0.439743,-0.1353 -0.811834,-0.1353 -0.202958,0 -1.082444,0.1353 -0.06765,-0.10148 -0.169132,-0.20296 -0.06765,-0.1353 -0.10148,-0.16913 0,-0.0338 -0.03383,-0.10148 -0.03383,-0.10148 -0.03383,-0.20296 0,-0.10147 0,-0.27061 h -1.285404 q -0.202958,-0.84566 -1.285403,-2.5708 0,-0.16914 0,-0.27061 0,-0.10148 -0.03383,-0.16914 -0.03383,-0.10148 -0.06765,-0.1353 0,-0.0338 -0.101479,-0.13531 -0.06765,-0.1353 -0.135306,-0.23678 v -1.28541 h 0.338264 v -2.5708 h -0.338264 v -0.94714 q 0.405917,-0.91331 0.405917,-2.23254 0,-0.27062 -0.03383,-0.81184 -0.03383,-0.54122 -0.03383,-0.81183 -0.338264,-0.16913 -0.608875,-0.6427 l -1.116271,-0.33827 q -0.101479,-0.0338 -0.101479,-0.20296 0,-0.10147 0.06765,-0.37209 0.10148,-0.30443 0.10148,-0.47357 0,-0.20295 -0.06765,-0.30443 L 86.7777,163.87478 q 0.135306,-0.27061 0.169132,-0.47357 0.06765,-0.20296 0.101479,-0.47357 0.03383,-0.30444 0.06765,-0.54122 z"
         style="font-family:GNUTypewriter;-inkscape-font-specification:GNUTypewriter;fill:#ffffff"
         id="path1241" />
      <path
         d="m 118.87892,165.93819 q -0.13531,0.10148 -0.20296,0.16913 -0.0677,0.0338 -0.13531,0.0677 -0.0677,0.0338 -0.10148,0.0676 0,0.0338 -0.0338,0.0677 0,0.0338 -0.0677,0.1353 -0.0338,0.0677 -0.0677,0.13531 l -0.67653,-0.33827 q -0.33826,0.30444 -0.43974,0.43975 -0.0677,0.10148 -0.16913,0.54122 l -1.2854,-0.33826 q -0.33827,0.74418 -0.33827,1.9281 h -0.30444 v 0.91331 q 0,1.1501 -0.6427,1.6575 0.0677,0.57505 0.13531,0.778 0.10148,0.16914 0.50739,0.5074 -0.0338,0.0677 -0.10147,0.16913 -0.0677,0.0677 -0.10148,0.10148 0,0.0338 -0.0338,0.10148 -0.0338,0.0338 -0.0338,0.0676 0,0.0338 -0.0338,0.0677 0,0.0338 0,0.1353 0,0.0677 0,0.13531 0,0.0338 0,0.16913 0.23678,0.60888 0.30443,1.58984 0.47357,-0.16913 0.60888,-0.30444 0.13531,-0.1353 0.37209,-0.6427 h 0.27061 q 0.13531,0.43974 0.67653,1.28541 h 0.60887 l 0.33827,-0.33827 -0.33827,-1.25158 q 0.20296,0.13531 0.71036,0.60888 0.54122,0.47357 0.91331,0.6427 v -1.25158 q 0.67653,0 1.28541,-0.33826 v -0.30444 q -0.74419,-0.47357 -1.28541,-0.6427 0.23679,-0.40592 0.27061,-0.47357 0.0677,-0.10148 0.20296,-0.30444 0.16913,-0.23678 0.33827,-0.30443 0.16913,-0.10148 0.47357,-0.20296 0,-0.20296 0.0677,-0.60888 0.0677,-0.43974 0.0677,-0.60887 0,-0.87949 -1.08244,-1.01479 v -0.33827 q 0.54122,-0.16913 0.74418,-0.30444 0.20296,-0.16913 0.54122,-0.6427 l -0.33826,-1.2854 -0.33827,-0.33827 z m -1.55602,10.55383 0.27061,0.33827 z m -8.65956,-14.71448 h 0.60888 q 0.81183,0.33826 2.23254,0.33826 h 0.0677 v 0.30444 h 1.55601 v 0.6427 l 2.23254,0.30444 q 0.20296,-0.23678 1.28541,-0.94714 0.6427,-0.1353 1.2854,-0.6427 0.60887,0.0338 0.94714,0.33826 h 0.33826 q 0.43975,-0.30443 1.28541,-0.33826 v 0.33826 h 1.2854 l 0.33826,0.60888 h 0.27061 v 0.33826 h 0.33827 l 0.67653,0.6427 v 0.64271 l 0.60887,0.30443 0.33826,0.64271 v 0.33826 l -0.67652,0.94714 q 0.40591,0.1353 0.47357,0.20296 0.0677,0.0676 0.20295,0.43974 0,0.10148 0,0.23679 0,0.27061 -0.1353,0.30443 -0.10148,0.0677 -0.20296,0.10148 v 0.30444 l 0.33826,0.6427 -0.33826,0.98097 q 0.33826,0.16913 0.47357,0.40591 0.10148,0.16914 0.13531,0.20296 -0.0338,0.84566 -0.27062,1.28541 v 0.98096 l -0.33826,0.30444 v 0.6427 q 0.33826,0.47357 0.60888,1.2854 h 1.2854 l 1.2854,0.94714 q 0,0.16913 0,0.27061 0,0.0677 0,0.13531 0.0338,0.0677 0.0677,0.13531 0.0338,0.0677 0.0338,0.10147 0.0338,0.0338 0.10148,0.16914 0.0677,0.10148 0.13531,0.16913 l 0.33826,1.58984 q -1.04862,0.6427 -2.23254,0.6427 -0.13531,0.40592 -0.67653,0.94714 h -0.33826 q -0.47357,-0.47357 -0.60888,-0.94714 -0.74418,0.30444 -2.23254,0.30444 l -0.33827,0.33826 h -0.60887 q -0.84566,-0.33826 -1.96193,-0.33826 h -1.28541 v -0.6427 q -0.54122,0.16913 -1.2854,0.6427 -0.47357,0 -0.77801,-0.20296 -0.10147,-0.0676 -0.16913,-0.10148 -0.43974,0.30444 -1.2854,0.30444 l -0.27061,-0.30444 h -0.67653 q -0.40592,0.30444 -1.2854,0.30444 h -0.27061 v 0.33826 h -2.3002 q -0.10148,-0.0677 -0.23678,-0.1353 -0.10148,-0.10148 -0.13531,-0.10148 -0.0338,-0.0338 -0.13531,-0.0677 -0.0677,-0.0338 -0.16913,-0.0338 -0.10148,0 -0.27061,0 -0.33826,-1.11627 -0.33826,-2.23254 h -0.27061 v -1.28541 l 0.94713,-0.94714 h 0.94714 q 0.13531,-0.37209 0.20296,-0.43974 0.0677,-0.0676 0.47357,-0.20296 l -0.33826,-1.58984 q 0.0677,-0.1353 0.1353,-0.27061 0.10148,-0.16913 0.13531,-0.27061 0.0338,-0.10148 0.1353,-0.20296 0.10148,-0.13531 0.20296,-0.23678 v -1.58985 h -0.27061 v -0.30443 q 0,-0.54123 0.27061,-0.98097 v -0.30444 q -0.27061,-0.37209 -0.27061,-1.01479 v -0.60887 q -0.0677,-0.10148 -0.16913,-0.20296 -0.0677,-0.13531 -0.10148,-0.16913 0,-0.0338 -0.0338,-0.10148 -0.0338,-0.10148 -0.0338,-0.20296 0,-0.10148 0,-0.27061 h -1.96193 q -0.13531,-0.47357 -0.60888,-0.94714 v -1.28541 q -0.33826,-0.30443 -0.33826,-0.74418 v -0.23678 q 0.50739,-0.16913 0.57505,-0.33826 0.0338,-0.0677 0.10148,-0.27062 0.16913,0 0.27061,0 0.10148,0 0.16913,-0.0338 0.10148,-0.0338 0.1353,-0.0338 0.0338,-0.0338 0.13531,-0.10148 0.13531,-0.10148 0.23678,-0.16913 z"
         style="font-family:GNUTypewriter;-inkscape-font-specification:GNUTypewriter;fill:#ffffff"
         id="path1243" />
      <path
         d="m 139.71595,175.8155 0.33826,0.30443 z m -2.57081,-18.87514 h 0.67653 q 0.47357,0.47357 0.60887,0.94714 h 0.60888 l 0.67653,0.64271 q -0.47357,1.58984 -0.67653,1.9281 0,0.16913 0,0.27061 0,0.10148 0.0338,0.20296 0.0338,0.0676 0.0338,0.10148 0.0338,0.0338 0.10148,0.16913 0.10148,0.10148 0.16913,0.20296 l -0.33826,1.2854 1.96193,0.6427 q 0.57505,-0.71035 1.96193,-0.71035 0.27061,0 0.77801,0.0338 0.5074,0.0338 0.77801,0.0338 l 0.33826,0.30444 v 1.62367 q 0.47357,0.33826 0.60888,0.54122 0.16913,0.16913 0.33826,0.71035 -0.91331,0.54123 -1.96193,0.64271 -0.23679,0.40591 -0.37209,0.47357 -0.10148,0.0677 -0.57505,0.16913 -0.37209,-0.43975 -0.6427,-0.5074 -0.23679,-0.10148 -0.91331,-0.1353 -0.47357,-0.30444 -1.0148,-0.30444 -0.0676,0.60887 -0.20295,0.74418 -0.13531,0.1353 -0.74419,0.20296 v 0.47357 q 0,1.31923 0.33827,2.09723 v 0.30444 l -0.67653,0.33827 0.67653,0.94713 q 0,0.13531 -0.0338,0.40592 0,0.27061 0,0.40592 0,1.2854 -0.30444,2.06341 0.64271,0.1353 1.28541,0.6427 l -0.33827,1.2854 q 0.54123,-0.27061 1.28541,-0.30443 -0.13531,-0.43975 -0.13531,-0.67653 0,-0.20296 0.13531,-0.60888 -0.27061,-0.23678 -0.27061,-0.74418 v -0.23678 q -0.33827,-0.30444 -0.33827,-0.71036 v -0.23678 h 1.55602 q 0.20295,-0.5074 0.40591,-0.6427 0.23679,-0.16914 0.87949,-0.30444 0.33826,-0.40592 0.5074,-0.47357 0.20295,-0.10148 0.778,-0.16913 l 0.33827,0.6427 v 0.6427 q 0.40591,0.20296 0.67652,0.6427 -0.0338,0.94714 -0.33826,1.58984 l 0.60888,0.30444 v 0.6427 q -0.5074,0.5074 -0.94714,0.6427 v 1.28541 q -0.30444,0.10148 -0.57505,0.23678 -0.27061,0.13531 -0.43975,0.27061 -0.1353,0.10148 -0.33826,0.37209 -0.20296,0.27061 -0.30444,0.40592 -0.0677,0.10148 -0.30443,0.47357 -0.20296,0.33826 -0.27062,0.47357 h -1.62366 v 0.33826 h -1.89428 q -0.57505,-0.37209 -0.94714,-0.98096 h -0.67653 q -0.67653,-0.71036 -0.94714,-1.28541 l -0.94714,-0.30443 v -1.58984 h -0.33826 v -1.92811 h -0.33827 v -0.30444 q 0,-0.84566 0.33827,-1.2854 v -0.33826 q -0.27061,-0.37209 -0.27061,-0.47357 0,-0.10148 0.27061,-0.47357 l -0.33827,-1.28541 q 0.33827,-0.94714 0.33827,-2.5708 h -1.89428 q -0.37209,-0.23679 -0.47357,-0.30444 -0.0677,-0.0676 -0.20296,-0.33826 l -1.55601,0.33826 -1.01479,-0.6427 -0.27062,-0.33827 v -0.6427 q 0.47357,-0.47357 0.94714,-0.60887 0,-0.67653 0.33827,-1.28541 0.74418,0.0338 1.2854,0.30444 0.23679,-0.37209 0.94714,-0.94714 0.47357,0 0.77801,0.20296 0.10148,0.0676 0.16913,0.10148 0.23678,-0.40592 0.33826,-0.47357 0.10148,-0.0676 0.60888,-0.16913 l -0.33827,-0.94714 0.67653,-0.30444 -0.67653,-0.98096 0.33827,-1.92811 z m 7.98303,6.39319 h 0.67653 v 0.64271 q -0.40592,-0.13531 -0.47357,-0.20296 -0.0677,-0.0677 -0.20296,-0.43975 z"
         style="font-family:GNUTypewriter;-inkscape-font-specification:GNUTypewriter;fill:#ffffff"
         id="path1245" />
      <path
         d="m 159.97792,167.56185 h 0.6427 q 0.0677,0.0338 0.16914,0.0677 0.16913,0.0676 0.16913,0.27061 0,0.0338 0,0.0677 0,0.13531 0,0.23679 l -0.98097,-0.30444 z m -0.6427,-1.58984 -0.30444,0.94714 -1.58984,-0.6427 -0.33826,0.98097 q -0.57505,-0.23679 -0.81184,-0.23679 -0.20295,0 -0.778,0.23679 0.0338,0.27061 0.0338,0.67652 0,0.3721 -0.0338,0.60888 l 2.23254,0.30444 q 0.5074,-0.5074 0.6427,-0.94714 h 0.30444 l 0.33826,0.6427 q 1.58984,0 2.57081,0.30444 0.23678,-0.57505 0.30444,-1.58984 l -0.94714,-0.98097 -0.6427,0.33827 -0.33827,-0.64271 z m -0.6427,-4.16064 h 0.98096 q 0.54123,0.30443 1.28541,0.30443 0.50739,0.5074 0.6427,0.98097 h 1.25158 q 0.94714,1.01479 1.2854,1.58984 l 0.98096,0.33826 0.64271,2.23255 0.94714,0.30443 q 0.16913,0.81184 0.6427,1.62367 v 0.60888 q -0.47357,0.81183 -0.6427,1.62366 -0.37209,0.10148 -1.28541,0.5074 -0.87948,0.37209 -1.42071,0.37209 -0.54122,0 -1.15009,-0.23678 -0.0338,0.74418 -0.30444,1.2854 h -0.6427 q -0.30444,-0.54122 -0.30444,-1.2854 -0.5074,0 -0.98097,0.30443 h -0.30443 q -0.47357,-0.30443 -0.98097,-0.30443 -0.0338,0.74418 -0.30444,1.2854 -0.74418,-0.16913 -0.98096,-0.37209 -0.23679,-0.23679 -0.30444,-0.91331 l -1.58984,0.30443 q -0.74418,-0.47357 -1.2854,-0.6427 0.43974,0.94714 0.43974,1.25158 0,0.1353 -0.13531,0.67653 0.0677,0.0338 0.16914,0.0676 0.16913,0.0677 0.16913,0.27061 0,0.0338 0,0.0677 0,0.13531 0,0.23679 l 0.30443,0.30444 h 0.64271 l 0.33826,0.6427 1.58984,0.33826 -0.30444,-1.2854 h 0.30444 q 0.27061,0.50739 0.30444,1.2854 l 1.62367,-0.33826 q 0.0338,-0.0338 0.10148,-0.10148 0.0677,-0.0338 0.0338,-0.16913 -0.0677,-0.20296 -0.1353,-0.37209 0.74418,-0.0677 1.58984,-0.64271 h 0.94714 q 0.20295,-0.33826 0.98096,-0.94714 0.94714,0.0338 1.92811,0.33827 0.16913,-0.47357 0.30443,-0.54122 0.0677,-0.0338 0.30444,-0.10148 l 0.6427,1.25157 q -0.0677,1.1501 -0.30443,1.92811 h -0.64271 l -0.30443,0.33826 q -0.13531,0.37209 -0.20296,0.43975 -0.0677,0.0677 -0.43975,0.20295 l -0.33826,0.30444 v 0.6427 l -0.94714,0.94714 -0.6427,-0.30443 q -0.13531,0.43974 -0.6427,0.94713 -0.47357,0 -0.77801,-0.20295 -0.10148,-0.0677 -0.16913,-0.10148 -0.20296,0.37209 -0.43974,0.50739 -0.0677,0.0677 -0.20296,0.13531 h -1.92811 q -0.23678,0.43974 -0.37209,0.57505 -0.1353,0.1353 -0.57505,0.37209 -0.0677,-0.10148 -0.16913,-0.23679 -0.0677,-0.10148 -0.10148,-0.1353 0,-0.0338 -0.0338,-0.13531 -0.0338,-0.0677 -0.0338,-0.16913 0,-0.10148 0,-0.27061 l -2.23254,-0.6427 -0.33827,-0.98097 H 153.923 l -0.64271,-0.6427 q -0.33826,-0.60888 -0.33826,-1.25158 -0.67653,-0.30443 -1.58984,-0.98096 0,-0.47357 0.20296,-0.77801 0.0677,-0.10148 0.10148,-0.16913 l -0.94714,-0.6427 0.30444,-1.58984 q -0.33827,-0.40592 -0.33827,-1.45454 0,-0.20296 0,-0.57505 0.0338,-0.37209 0.0338,-0.54122 0.1353,-0.37209 0.20296,-0.43974 0.0676,-0.0677 0.43974,-0.20296 -0.16913,-0.5074 -0.16913,-0.74418 0,-0.54123 0.81183,-1.18393 v -0.94714 l 1.2854,-1.9281 2.23255,-0.6427 q 0.43974,-0.71036 1.2854,-1.28541 0.20296,0.0338 0.54122,0.0338 0.67653,0 1.35306,-0.33826 z"
         style="font-family:GNUTypewriter;-inkscape-font-specification:GNUTypewriter;fill:#ffffff"
         id="path1247" />
      <path
         d="m 176.51899,161.94667 h 0.67653 q 0.43974,0.43975 0.60887,0.98097 0.13531,0 0.40592,0 0.27061,-0.0338 0.40592,-0.0338 1.21775,0 2.09724,0.33827 l 0.94713,-0.94714 h 1.89428 v -0.33827 q 0.81184,0 1.28541,0.33827 0.10148,-0.0677 0.20295,-0.13531 0.13531,-0.10148 0.16914,-0.10148 0.0338,-0.0338 0.10148,-0.0676 0.10148,-0.0338 0.20295,-0.0338 0.10148,0 0.27062,0 l 0.67652,0.33827 v 0.30443 q 0.10148,0 0.23679,0 0.23678,0 0.27061,0.13531 0.0676,0.10148 0.10148,0.20296 h 1.01479 l 0.94714,0.6427 v 1.25158 l 0.94714,0.33826 q -0.13531,0.77801 -0.67653,1.2854 l 0.33827,1.58984 -0.33827,0.30444 -0.60887,0.33827 -0.33827,0.30443 v 0.6427 l -0.60887,0.64271 -1.62367,-0.30444 q -0.40592,0.27061 -0.74418,0.27061 -0.27061,0 -0.87949,-0.27061 v -0.23679 q 0,-0.40591 0.33827,-0.74418 v -0.30443 q -0.30444,-0.37209 -0.60888,-1.58985 l 0.60888,-0.6427 q -0.5074,-0.10148 -0.60888,-0.16913 -0.10148,-0.0677 -0.33826,-0.47357 h -0.60888 q -0.54122,0.6427 -1.62367,0.6427 h -0.67652 l -0.27061,1.28541 q -0.40592,-0.10148 -0.5074,-0.16914 -0.0677,-0.0676 -0.16913,-0.47357 h -0.27061 l -0.33827,1.58985 0.94714,0.30443 v 0.6427 l -0.94714,0.33827 v 1.58984 l 0.60888,0.33826 v 0.33827 q 0,0.81183 -0.27061,1.25157 l 0.27061,1.28541 q -0.47357,0.47357 -0.60888,0.94714 0.47357,0 0.77801,0.20296 0.10148,0.0677 0.16913,0.10147 l 0.33827,-0.60887 h 0.60887 q 0.43974,0.43974 0.98097,0.60887 v -1.58984 q 0.47357,-0.30443 0.98096,-0.30443 -0.0676,0.27061 -0.0676,0.37209 0,0.16913 0.33826,1.86045 l 0.33827,0.30444 0.60887,0.33826 q 0.30444,0.60888 0.33827,1.2854 -0.54123,0.16914 -1.28541,0.64271 h -1.25157 q -0.13531,0.1353 -0.98097,0.6427 h -0.33826 q -0.77801,-0.43975 -0.94714,-0.6427 h -0.60888 q -0.40591,0.30443 -1.62367,0.6427 -0.84566,-0.60888 -1.89427,-0.6427 v 0.30443 h -1.28541 l -0.67652,0.6427 -0.94714,-0.30443 v -0.33827 l -1.55602,-0.30443 -0.33826,-0.33827 v -0.6427 q 0.0676,-0.0338 0.1353,-0.10148 0.10148,-0.0676 0.13531,-0.0676 0.0338,-0.0338 0.0677,-0.0677 0.0676,-0.0338 0.10148,-0.0338 0.0338,0 0.0676,0 0.0338,-0.0338 0.10148,-0.0338 0.10148,0 0.13531,0 0.0676,0 0.20296,0 l 0.33826,-1.2854 q -0.1353,0.0338 -0.33826,0.0338 -0.33827,0 -0.33827,-0.5074 v -0.47357 q 0.47357,0 0.77801,0.20296 0.10148,0.0677 0.16913,0.10148 0.37209,-0.43975 0.74418,-0.54123 0.40592,-0.10147 1.21775,-0.10147 v 0.33826 h 1.62367 l -0.33826,-1.2854 0.33826,-0.64271 -0.67653,-0.6427 q 0.33827,-1.08244 0.33827,-2.5708 h 0.33826 q 0,-0.0677 -0.0338,-0.16914 -0.0338,-0.10147 -0.0338,-0.1353 0,-0.84566 0.33826,-1.2854 v -0.33827 q -0.33826,-0.43974 -0.33826,-1.25158 0,-0.0676 0.0338,-0.16913 0.0338,-0.10148 0.0338,-0.16913 -0.0676,-0.10148 -0.16913,-0.20296 -0.0677,-0.1353 -0.10148,-0.16913 0,-0.0338 -0.0338,-0.10148 -0.0338,-0.10148 -0.0338,-0.20296 0,-0.10148 0,-0.27061 l -1.62367,0.30444 q -0.60888,-0.23679 -1.62367,-0.30444 v -0.33826 h -0.94714 q -0.0677,-0.0338 -0.16913,-0.10148 -0.0677,-0.0676 -0.10148,-0.0676 -0.0338,-0.0338 -0.10148,-0.0677 -0.0338,-0.0338 -0.0676,-0.0338 -0.0338,0 -0.0677,0 -0.0338,-0.0338 -0.13531,-0.0338 -0.0676,0 -0.1353,0 -0.0338,0 -0.16914,0 0.16914,-0.71035 0.40592,-1.01479 0.23679,-0.30444 0.87949,-0.57505 0.20296,-0.6427 0.60887,-1.2854 0.71036,0.0338 1.01479,0.30443 h 0.60888 q 0.27061,-0.20295 0.67653,-0.20295 0.1353,0 0.94714,0.20295 z m 5.78432,5.44605 v 0.6427 h -0.30444 v -0.94714 z m -0.30444,1.58984 0.30444,0.33827 z m 1.96193,0.30444 q 0,-0.10148 0.0676,-0.10148 0.0677,0 0.0677,0.13531 v 0.10148 l -0.0677,0.0338 q -0.0676,0 -0.0676,-0.16913 z"
         style="font-family:GNUTypewriter;-inkscape-font-specification:GNUTypewriter;fill:#ffffff"
         id="path1249" />
      <path
         d="m 200.4004,155.72261 h 1.2854 q 0.84566,0.5074 1.55602,0.64271 l 0.37209,0.33826 v 0.94714 q 0.10148,0.0338 0.16913,0.0676 0.10148,0 0.1353,0.0338 0.0677,0 0.10148,0.0338 0.0677,0.0338 0.10148,0.0677 0.0338,0 0.0677,0.0677 0.0677,0.0338 0.10148,0.10148 0.0338,0.0338 0.10148,0.13531 0.0677,0.0677 0.13531,0.1353 -0.23679,1.1501 -0.60888,1.58984 l 0.60888,0.33827 v 0.30443 q -0.43974,0.13531 -0.74418,0.40592 -0.27061,0.23678 -0.40592,0.43974 -0.1353,0.20296 -0.40592,0.74418 l -1.96193,-0.30443 v -0.30444 h -1.2854 l -0.94714,-0.33827 q -0.33826,-1.11627 -0.33826,-2.23254 -0.37209,-0.20296 -0.43975,-0.30444 -0.0676,-0.10147 -0.16913,-0.6427 l 0.94714,-0.33826 0.33826,-0.6427 q 0.0677,-0.0338 0.13531,-0.10148 0.10148,-0.0677 0.13531,-0.0677 0.0338,-0.0338 0.0676,-0.0677 0.0676,-0.0338 0.10148,-0.0338 0.0338,0 0.0676,0 0.0338,-0.0338 0.10148,-0.0338 0.10148,0 0.13531,0 0.0676,0 0.20295,0 0,-0.16913 0,-0.23679 0,-0.10147 0,-0.16913 0.0338,-0.0677 0.0677,-0.1353 0.0338,-0.0677 0.0338,-0.10148 0.0338,-0.0338 0.10148,-0.13531 0.0677,-0.1353 0.13531,-0.20296 z m -6.42702,6.39319 1.28541,0.33827 q 0.43974,-0.30444 1.2854,-0.33827 v 0.33827 h 1.62367 l 0.27061,-0.33827 h 0.67652 q 0.60888,0.33827 1.28541,0.33827 v -0.33827 h 1.2854 l 1.2854,0.98097 v 0.94714 h 0.27062 q 0,0.20296 0,0.33826 0.0338,0.13531 0.0338,0.20296 0.0338,0.0338 0.13531,0.20296 0.1353,0.13531 0.20296,0.23678 v 1.58985 q -0.43975,0.74418 -0.64271,0.94713 l 0.27062,1.28541 q -0.27062,0.40591 -0.27062,0.50739 0,0.0677 0.27062,0.47357 l -0.27062,1.25158 0.64271,0.33826 v 0.30444 q -0.37209,0.54122 -0.60888,1.52219 -0.20296,0.98097 -0.37209,1.35306 0.57505,0.40591 0.98097,1.2854 0.16913,0 0.23678,0 0.0677,0 0.13531,0 0.0677,0 0.10148,-0.0338 0.0677,-0.0338 0.10147,-0.0338 0.0677,-0.0338 0.13531,-0.10148 0.10148,-0.0677 0.20296,-0.13531 h 0.94714 v -0.33826 h 1.01479 l 1.55601,0.6427 0.33827,-0.6427 h 0.33826 l 0.33827,0.6427 h 0.27061 v 0.33826 h 0.33826 l 0.60888,0.6427 v 1.58985 l -0.27061,0.94713 q -0.30444,-0.0677 -0.67653,-0.0677 -0.30444,0 -0.94714,0.40592 l -1.2854,-0.33827 q -0.40592,0.30444 -0.81184,0.30444 -0.40592,0 -0.81183,-0.30444 l -1.21775,0.33827 q -0.47357,-0.10148 -0.74418,-0.10148 -0.37209,0 -0.87949,0.10148 -0.40592,-0.13531 -0.47357,-0.20296 -0.0676,-0.0676 -0.20296,-0.43974 -0.67653,0.30443 -1.89428,0.30443 -0.33826,0.33827 -0.74418,0.33827 h -0.20296 q -0.37209,-0.23679 -0.47356,-0.30444 -0.0677,-0.0677 -0.20296,-0.33826 h -1.55602 l -0.33826,0.6427 q -0.81184,0 -1.2854,-0.33827 h -0.94714 q -0.0677,-0.0338 -0.16914,-0.10147 -0.0676,-0.0677 -0.10148,-0.0677 -0.0338,-0.0338 -0.10147,-0.0676 -0.0338,-0.0338 -0.0677,-0.0338 -0.0338,0 -0.0677,0 -0.0338,-0.0338 -0.13531,-0.0338 -0.0676,0 -0.1353,0 -0.0338,0 -0.16913,0 -0.60888,-0.81184 -0.94714,-1.58984 0.81183,-0.74418 1.21775,-0.98097 0,-0.67653 0.33826,-1.2854 l 1.28541,0.33826 q 0.30443,-0.30444 0.94713,-0.33826 0.91332,0.6427 2.23255,0.6427 0.33826,-0.47357 0.50739,-0.60888 0.20296,-0.16913 0.77801,-0.33826 -0.20296,-0.6427 -0.60888,-1.2854 0.13531,-0.87949 0.13531,-1.08245 0,-0.40592 -0.13531,-0.84566 v -0.30444 l 0.33827,-0.6427 v -0.33826 q -0.10148,-0.0676 -0.23679,-0.10148 -0.10148,-0.0338 -0.10148,-0.27061 0,-0.13531 0,-0.23679 0.16914,-0.47357 0.30444,-0.54122 0.0677,-0.0338 0.30444,-0.10148 -0.13531,-0.30444 -0.13531,-0.84566 0,-0.23678 0.0677,-0.71035 0.0677,-0.47357 0.0677,-0.71036 -0.27061,-0.23678 -0.27061,-0.71035 v -0.23679 q -0.67653,-0.1353 -0.84566,-0.33826 -0.0676,-0.10148 -0.16913,-0.30444 l -1.55602,0.33827 v 0.30443 q -0.47357,0 -0.778,0.20296 -0.10148,0.0676 -0.16914,0.10148 h -0.33826 q -0.74418,-0.30444 -1.96193,-0.30444 l -0.27061,-0.30443 v -0.64271 l -0.94714,-0.33826 q 0.0676,-0.57505 0.1353,-0.77801 0.10148,-0.20296 0.47357,-0.50739 v -0.30444 h 0.33827 v -0.33826 z"
         style="font-family:GNUTypewriter;-inkscape-font-specification:GNUTypewriter;fill:#ffffff"
         id="path1251" />
      <path
         d="m 223.94354,169.32083 h 0.60888 q 0.0676,0.0338 0.16913,0.0676 0.16913,0.0677 0.16913,0.27061 0,0.0338 0,0.0677 0,0.13531 0,0.23679 -0.5074,-0.10148 -0.60888,-0.16913 -0.10147,-0.0677 -0.33826,-0.47357 z m -1.42071,1.72514 h 0.20296 q 0.0677,0.0338 0,0.10148 h -0.20296 q -0.0676,-0.0338 0,-0.10148 z m 1.42071,1.1501 h 0.94714 q 0,0.16913 0,0.27061 0,0.0677 -0.0338,0.13531 0,0.0676 -0.0338,0.1353 -0.0338,0.0677 -0.0677,0.10148 0,0.0338 -0.0676,0.16913 -0.0677,0.10148 -0.1353,0.16914 h -0.33827 q -0.27061,-0.40592 -0.27061,-0.98097 z m -4.80335,1.92811 0.27061,0.33826 z m 1.55602,-8.62574 q -0.0677,0.0338 -0.16914,0.10148 -0.0677,0.0677 -0.10148,0.10148 -0.0338,0 -0.10147,0.0338 -0.0338,0.0338 -0.0677,0.0338 -0.0338,0 -0.0677,0.0338 -0.0338,0 -0.13531,0 -0.0677,0 -0.1353,0 -0.0338,0 -0.16913,0 -0.33827,0.57505 -0.98097,0.98097 v 1.25157 q -0.10148,0.0338 -0.20296,0.0677 -0.0677,0 -0.1353,0.0338 -0.0338,0 -0.10148,0.0338 -0.0338,0.0338 -0.0677,0.0677 -0.0338,0 -0.10147,0.0677 -0.0338,0.0338 -0.0677,0.10147 -0.0338,0.0338 -0.10148,0.13531 -0.0677,0.0676 -0.1353,0.13531 l -0.33827,1.62366 q 0.47357,0.33827 0.47357,0.43975 0,0.0338 -0.0338,0.10148 0,0.0677 -0.0338,0.20295 -0.0338,0.10148 -0.0676,0.20296 v 0.6427 q 0.30444,0.67653 0.33826,1.58984 0.40592,0.5074 0.57505,1.28541 l 0.98097,0.33826 h 1.62366 v 0.30444 h 1.89428 l 0.33827,-0.30444 v -1.2854 h 1.62366 l 0.60888,-0.6427 v -0.27061 q 0,-0.0677 0.33826,-1.6575 -0.57505,0.10148 -0.94714,0 l 0.94714,-0.94714 q -0.0677,-0.60887 -0.0677,-0.94714 0,-0.30443 0.0677,-0.98096 l -2.23254,-2.23254 h -0.33826 q -0.0677,0.0676 -0.20296,0.1353 -0.10148,0.0676 -0.13531,0.10148 0,0 -0.0676,0.0677 -0.0677,0.0338 -0.10148,0.0338 0,0 -0.0338,0.0676 -0.0338,0.0677 -0.0677,0.10148 0,0.0338 -0.0676,0.13531 h -0.27061 q -0.54123,-0.84566 -0.67653,-1.28541 z m 1.96193,-3.51794 q 0.6427,0.23678 0.94714,0.6427 h 1.89427 l 1.62367,0.94714 v 0.6427 l 0.33827,0.30444 q 0.43974,0.1353 0.94714,0.6427 l 0.33826,0.33826 v 0.94714 q 0.43974,0.13531 0.94714,0.6427 v 1.92811 l 0.60887,0.30444 v 1.2854 h 0.33827 v 0.94714 q -0.0677,0.0676 -0.13531,0.20296 -0.0677,0.10148 -0.10148,0.1353 0,0.0338 -0.0338,0.10148 -0.0338,0.0677 -0.0677,0.13531 0,0.0676 0,0.16913 0,0.0676 0,0.23679 h -0.27061 q -0.0338,0.6427 -0.33826,0.94713 v 1.28541 q -0.5074,0.50739 -0.94714,0.6427 v 1.2854 q -0.6427,0.5074 -1.2854,0.6427 l -0.33827,0.30444 v 0.6427 l -0.33826,0.33827 q -1.01479,0.30444 -2.23254,0.30444 l -0.94714,0.94713 h -1.62367 q -0.16913,-0.10147 -0.23679,-0.1353 -0.0677,-0.0677 -0.1353,-0.10148 -0.0677,-0.0676 -0.10148,-0.10148 0,-0.0338 -0.0676,-0.13531 -0.0338,-0.10147 -0.0677,-0.16913 h -1.2854 v -0.30443 h -1.62367 q -0.27061,-0.40592 -0.27061,-0.94714 h -0.67653 l -0.33826,-0.33827 v -0.30444 l -0.27061,-0.33826 h -0.67653 l -0.94714,-0.94714 v -0.94714 l -0.67653,-0.33826 q -0.16913,-0.74418 -0.60887,-1.58984 v -1.28541 h 0.33826 v -1.9281 h -0.33826 v -1.2854 q 0.27061,-0.47357 0.60887,-0.64271 v -0.94714 q 0.57505,-1.08244 0.67653,-1.58984 0.71036,-0.6427 1.2854,-0.98096 v -0.6427 l 0.33827,-0.30444 h 0.60887 v -0.30444 h 0.67653 q 0.0338,-0.0676 0.0677,-0.16913 0.0677,-0.13531 0.10148,-0.16913 0.0338,-0.0338 0.10148,-0.10148 0.10148,-0.0676 0.30444,-0.20296 0.81183,0.0338 1.31923,0.30444 0.37209,-0.47357 0.74418,-0.47357 0.27061,0 0.87949,0.16913 0.20296,-0.20296 0.94714,-0.6427 z"
         style="font-family:GNUTypewriter;-inkscape-font-specification:GNUTypewriter;fill:#ffffff"
         id="path1253" />
    </g>
  </g>
</svg>
