<?xml version="1.0" encoding="UTF-8" standalone="no"?>
<!-- Created with Inkscape (http://www.inkscape.org/) -->

<svg
   width="270.93332mm"
   height="121.70834mm"
   viewBox="0 0 270.93332 121.70834"
   version="1.1"
   id="svg5"
   inkscape:version="1.1.2 (0a00cf5339, 2022-02-04)"
   sodipodi:docname="socio.svg"
   xmlns:inkscape="http://www.inkscape.org/namespaces/inkscape"
   xmlns:sodipodi="http://sodipodi.sourceforge.net/DTD/sodipodi-0.dtd"
   xmlns="http://www.w3.org/2000/svg"
   xmlns:svg="http://www.w3.org/2000/svg">
  <sodipodi:namedview
     id="namedview7"
     pagecolor="#ffffff"
     bordercolor="#666666"
     borderopacity="1.0"
     inkscape:pageshadow="2"
     inkscape:pageopacity="0.0"
     inkscape:pagecheckerboard="0"
     inkscape:document-units="mm"
     showgrid="false"
     inkscape:zoom="0.65181627"
     inkscape:cx="457.18405"
     inkscape:cy="293.79445"
     inkscape:window-width="1536"
     inkscape:window-height="800"
     inkscape:window-x="0"
     inkscape:window-y="27"
     inkscape:window-maximized="1"
     inkscape:current-layer="layer1" />
  <defs
     id="defs2" />
  <g
     inkscape:label="Tavolo 1"
     inkscape:groupmode="layer"
     id="layer1"
     transform="translate(-8.9550142,-58.536034)">
    <rect
       style="fill:#18130f;stroke-width:4.48779;stroke-linecap:round;fill-opacity:1"
       id="rect869"
       width="270.93332"
       height="121.70834"
       x="8.9550142"
       y="58.536034"
       ry="0" />
    <g
       inkscape:label="\u0428\u0430\u0440 1"
       inkscape:groupmode="layer"
       id="layer1-2"
       transform="matrix(0.26458333,0,0,0.26458333,33.618623,114.8744)">
      <rect
         style="fill:#800000;stroke-width:0.959761"
         id="rect31"
         width="192.12869"
         height="192.12869"
         x="160.4048"
         y="-74.832726"
         ry="27.702875" />
      <path
         style="fill:none;stroke:#ffffff;stroke-width:7.67811;stroke-linecap:round;stroke-linejoin:miter;stroke-miterlimit:4;stroke-dasharray:none;stroke-opacity:1"
         d="M 182.67045,42.055935 V 95.030338 H 322.88587"
         id="path4784"
         sodipodi:nodetypes="ccc" />
      <g
         aria-label="ocio"
         id="text21743"
         style="font-size:45.2302px;line-height:1.25;stroke-width:1.13076"
         transform="matrix(3.6274496,0,0,3.6274496,-6.504689,-412.3706)">
        <path
           d="m 124.59868,118.19713 q 1.61221,2.6502 1.61221,5.78628 0,3.13608 -1.61221,5.78629 -1.61221,2.6502 -4.37284,4.19616 -2.76063,1.52387 -6.00713,1.52387 -3.26859,0 -6.05131,-1.52387 -2.76063,-1.54596 -4.37284,-4.19616 -1.61221,-2.65021 -1.61221,-5.78629 0,-3.13608 1.61221,-5.78628 1.61221,-2.6723 4.37284,-4.19617 2.78272,-1.54595 6.05131,-1.54595 3.2465,0 6.00713,1.54595 2.76063,1.52387 4.37284,4.19617 z m -18.88272,5.78628 q 0,3.42319 2.49561,5.80837 2.49561,2.38519 6.05131,2.38519 3.55569,0 6.07339,-2.38519 2.51769,-2.40727 2.51769,-5.80837 0,-3.37901 -2.51769,-5.7642 -2.5177,-2.40727 -6.07339,-2.40727 -3.5557,0 -6.05131,2.40727 -2.49561,2.38519 -2.49561,5.7642 z"
           style="font-weight:bold;font-family:Sawasdee;-inkscape-font-specification:'Sawasdee Bold';fill:#ffffff"
           id="path3187" />
        <path
           d="m 147.85425,127.73787 3.02565,1.61221 q -3.55569,6.13965 -9.58491,6.13965 -3.00357,0 -5.49918,-1.56804 -2.49561,-1.56804 -3.90906,-4.19616 -1.39136,-2.65021 -1.39136,-5.74212 0,-3.06982 1.39136,-5.69794 1.41345,-2.65021 3.90906,-4.24034 2.49561,-1.59012 5.49918,-1.59012 1.23676,0 2.40727,0.30919 1.17051,0.28711 1.98766,0.68464 0.83923,0.37544 1.67846,1.06008 0.86132,0.68464 1.3251,1.12634 0.46379,0.4417 1.01592,1.21468 0.57421,0.77297 0.70672,0.99382 0.13251,0.22086 0.46378,0.7509 l -3.02565,1.70055 q -0.33127,-0.5963 -0.61838,-0.99383 -0.26502,-0.41962 -0.90549,-1.12634 -0.61838,-0.70672 -1.28093,-1.14842 -0.64047,-0.46379 -1.6343,-0.79506 -0.99382,-0.35337 -2.12016,-0.35337 -3.00357,0 -5.21208,2.31894 -2.18642,2.31893 -2.18642,5.74211 0,3.42319 2.20851,5.80837 2.23059,2.38519 5.18999,2.38519 1.17051,0 2.23059,-0.39753 1.06008,-0.39753 1.70055,-0.83924 0.64047,-0.4417 1.28093,-1.21467 0.66255,-0.79507 0.83923,-1.08217 0.17669,-0.28711 0.50796,-0.86132 z"
           style="font-weight:bold;font-family:Sawasdee;-inkscape-font-specification:'Sawasdee Bold';fill:#ffffff"
           id="path3189" />
        <path
           d="m 157.81461,105.49822 q 1.038,0 1.76681,0.70672 0.75089,0.70672 0.75089,1.72263 0,0.99383 -0.75089,1.67847 -0.72881,0.68463 -1.76681,0.68463 -1.08217,0 -1.81097,-0.68463 -0.72881,-0.68464 -0.72881,-1.67847 0,-1.01591 0.72881,-1.72263 0.75089,-0.70672 1.81097,-0.70672 z m 1.70055,29.7044 h -3.48944 v -22.39425 h 3.48944 z"
           style="font-weight:bold;font-family:Sawasdee;-inkscape-font-specification:'Sawasdee Bold';fill:#ffffff"
           id="path3191" />
        <path
           d="m 187.12149,118.19713 q 1.61221,2.6502 1.61221,5.78628 0,3.13608 -1.61221,5.78629 -1.61221,2.6502 -4.37284,4.19616 -2.76064,1.52387 -6.00714,1.52387 -3.26859,0 -6.05131,-1.52387 -2.76063,-1.54596 -4.37284,-4.19616 -1.61221,-2.65021 -1.61221,-5.78629 0,-3.13608 1.61221,-5.78628 1.61221,-2.6723 4.37284,-4.19617 2.78272,-1.54595 6.05131,-1.54595 3.2465,0 6.00714,1.54595 2.76063,1.52387 4.37284,4.19617 z m -18.88273,5.78628 q 0,3.42319 2.49561,5.80837 2.49562,2.38519 6.05131,2.38519 3.5557,0 6.07339,-2.38519 2.5177,-2.40727 2.5177,-5.80837 0,-3.37901 -2.5177,-5.7642 -2.51769,-2.40727 -6.07339,-2.40727 -3.55569,0 -6.05131,2.40727 -2.49561,2.38519 -2.49561,5.7642 z"
           style="font-weight:bold;font-family:Sawasdee;-inkscape-font-specification:'Sawasdee Bold';fill:#ffffff"
           id="path3193" />
      </g>
      <g
         aria-label="S"
         id="text1113-6-5"
         style="font-size:42.5653px;line-height:1.25;font-family:C059;-inkscape-font-specification:C059;fill:#ffffff;stroke-width:1.06413"
         transform="matrix(3.6274496,0,0,3.6274496,-14.182789,-412.3706)">
        <path
           d="m 83.21058,109.88008 -3.096792,1.05997 -0.228622,-0.68586 q -0.665083,-1.87055 -2.119952,-2.84739 -1.454868,-0.97684 -3.179927,-0.97684 -2.016032,0 -3.283846,1.2886 -1.267814,1.26781 -1.267814,3.09679 0,0.97684 0.498812,1.76663 0.519596,0.78978 1.371733,1.35095 0.852137,0.56116 1.974465,1.08076 1.122327,0.49881 2.348573,1.0184 1.226247,0.49882 2.452493,1.05998 1.226247,0.54038 2.348574,1.30938 1.122327,0.74822 1.974465,1.68349 0.852137,0.91449 1.350949,2.26544 0.519596,1.33017 0.519596,2.9513 0,2.76426 -1.475653,5.00891 -1.475652,2.22387 -3.824226,3.40855 -2.348573,1.16389 -5.029688,1.16389 -1.766627,0 -3.387766,-0.56116 -1.621139,-0.56116 -3.03444,-1.66271 -1.392518,-1.10154 -2.390142,-2.93052 -0.997624,-1.84976 -1.330165,-4.21912 l -0.10392,-0.70665 3.263063,-0.39489 0.103919,0.66508 q 0.249406,1.68349 0.914489,2.99288 0.665083,1.28859 1.600356,2.0576 0.935272,0.74821 2.036816,1.14311 1.101543,0.37411 2.32779,0.37411 2.847385,0 4.946553,-1.78741 2.119951,-1.78741 2.119951,-4.6348 0,-1.538 -0.831353,-2.7019 -0.81057,-1.16389 -2.119952,-1.89133 -1.288598,-0.74822 -2.868169,-1.39252 -1.579572,-0.66508 -3.179927,-1.37173 -1.579572,-0.70665 -2.888954,-1.57957 -1.288598,-0.87292 -2.119951,-2.26544 -0.81057,-1.4133 -0.81057,-3.26306 0,-3.13836 2.182303,-5.34145 2.182303,-2.22387 5.611636,-2.22387 2.722683,0 5.050473,1.57957 2.32779,1.57957 3.325414,4.44774 z"
           style="font-weight:bold;font-family:Sawasdee;-inkscape-font-specification:'Sawasdee Bold'"
           id="path3214" />
      </g>
    </g>
  </g>
</svg>
