<?xml version="1.0" encoding="UTF-8" standalone="no"?>
<!-- Created with Inkscape (http://www.inkscape.org/) -->

<svg
   width="270.93332mm"
   height="121.70834mm"
   viewBox="0 0 270.93332 121.70834"
   version="1.1"
   id="svg5"
   inkscape:version="1.1.2 (0a00cf5339, 2022-02-04)"
   sodipodi:docname="sonja_doryen.svg"
   xmlns:inkscape="http://www.inkscape.org/namespaces/inkscape"
   xmlns:sodipodi="http://sodipodi.sourceforge.net/DTD/sodipodi-0.dtd"
   xmlns="http://www.w3.org/2000/svg"
   xmlns:svg="http://www.w3.org/2000/svg">
  <sodipodi:namedview
     id="namedview7"
     pagecolor="#ffffff"
     bordercolor="#666666"
     borderopacity="1.0"
     inkscape:pageshadow="2"
     inkscape:pageopacity="0.0"
     inkscape:pagecheckerboard="0"
     inkscape:document-units="mm"
     showgrid="false"
     inkscape:zoom="0.52282112"
     inkscape:cx="424.61942"
     inkscape:cy="329.94077"
     inkscape:window-width="1536"
     inkscape:window-height="800"
     inkscape:window-x="0"
     inkscape:window-y="27"
     inkscape:window-maximized="1"
     inkscape:current-layer="g974" />
  <defs
     id="defs2" />
  <g
     inkscape:label="Tavolo 1"
     inkscape:groupmode="layer"
     id="layer1"
     transform="translate(241.44485,-1.2834012)">
    <g
       id="g974"
       transform="translate(-65.692579,16.899161)">
      <rect
         style="fill:#110a09;stroke:none;stroke-width:0.923415;stroke-linecap:round;fill-opacity:1"
         id="rect10041"
         width="270.93332"
         height="121.70834"
         x="-175.75227"
         y="-15.61576"
         ry="0.92213696" />
      <path
         style="fill:#feeed2;stroke-width:0.0896331"
         d="M -42.181936,21.150627 V 7.7056677 h 0.896338 0.896325 v 0.8963308 0.8963306 h 1.792663 1.792662 v 0.8963309 0.896331 h 0.896332 0.896331 v 0.89633 0.896331 h 0.896325 0.896337 v 0.89633 0.896331 h 1.792657 1.792663 v 0.89633 0.896333 h 0.896331 0.896326 v 0.89633 0.896329 h 1.792662 1.792663 v 0.896333 0.896329 h 0.896331 0.896331 v 0.89633 0.896333 h 0.896332 0.896331 v 0.89633 0.896326 h 1.792663 1.792657 v 0.896333 0.896329 h -2.688994 -2.688989 v 0.89633 0.896333 h -1.792662 -1.792663 v 0.896329 0.896332 h -1.792662 -1.792657 v 0.896331 0.896331 h -1.792663 -1.792657 v 0.896326 0.896337 h -1.792662 -1.792663 v 0.896325 0.896332 h -2.688994 -2.688994 z"
         id="path984" />
      <path
         style="fill:#fec39a;stroke-width:0.0896331"
         d="m -29.633303,51.625867 v -0.896332 h -0.896331 -0.896332 v -1.792656 -1.792663 h -0.896331 -0.896326 v -0.896331 -0.896332 h -0.896337 -0.896325 v -0.896331 -0.896331 h -0.896331 -0.896332 V 42.66256 41.766228 h -0.896331 -0.896331 v -0.896325 -0.896337 h -0.896332 -0.896331 V 39.07724 38.180909 h -0.896325 -0.896338 v -1.792663 -1.792662 h 2.688994 2.688994 v -0.896332 -0.896325 h 1.792663 1.792662 V 31.90659 31.010264 h 1.792657 1.792663 v -0.896331 -0.896331 h 1.792657 1.792662 V 28.32127 27.424941 h 1.792663 1.792662 v -0.896333 -0.89633 h 1.792663 1.792663 v 2.688992 2.688994 h -0.896337 -0.896326 v 2.688988 2.688994 h -0.896331 -0.896332 v 2.688994 2.688988 h -0.896331 -0.896331 v 2.688994 2.688994 h -0.896331 -0.896332 v 2.688988 2.688994 h -1.792662 -1.792657 z"
         id="path982" />
      <path
         style="fill:#acb5c3;stroke-width:0.0896331"
         d="m -43.974598,35.491915 v -0.896331 h -1.792657 -1.792662 v -0.896332 -0.896325 h -1.792663 -1.792657 V 31.90659 31.010264 h -1.792662 -1.792665 v -0.896331 -0.896331 h -1.792659 -1.792663 V 28.32127 27.424941 h -2.688992 -2.688991 v -0.896333 -0.89633 h -1.792663 -1.792659 v -0.896329 -0.896333 h 1.792659 1.792663 V 22.94329 22.04696 h 0.896329 0.896333 v -0.896333 -0.89633 h 0.896329 0.89633 v -0.896329 -0.896333 h 1.792662 1.792663 v -0.896329 -0.89633 h 0.89633 0.896329 v -0.896333 -0.89633 h 0.896333 0.896332 v -0.896331 -0.89633 h 1.792662 1.792657 v -0.896331 -0.89633 h 0.896331 0.896332 V 10.39466 9.4983291 h 1.792662 1.792657 V 8.6019985 7.7056677 h 0.896337 0.896325 V 22.04696 36.388246 h -0.896325 -0.896337 z"
         id="path980" />
      <path
         style="fill:#284b5f;stroke-width:0.0896331"
         d="m -58.315886,50.729535 v -1.792656 h -0.896329 -0.896333 v -2.688994 -2.688994 h -0.89633 -0.896329 v -2.688988 -2.688994 h -0.896333 -0.896329 v -2.688994 -2.688988 h -0.89633 -0.896333 v -2.688994 -2.688992 h -0.896329 -0.89633 v -0.896333 -0.89633 h 1.792659 1.792663 v 0.89633 0.896333 h 2.688991 2.688992 v 0.896329 0.896332 h 1.792663 1.792659 v 0.896331 0.896331 h 1.792665 1.792662 v 0.896326 0.896337 h 1.792657 1.792663 v 0.896325 0.896332 h 1.792662 1.792657 v 2.688994 2.688988 h -0.896326 -0.896331 v 0.896337 0.896325 h -0.896331 -0.896331 v 0.896332 0.896331 h -0.896332 -0.896331 v 0.896331 0.896331 h -0.896331 -0.896326 v 0.896332 0.896331 h -0.896337 -0.896325 v 0.896326 0.896337 h -0.896332 -0.896333 v 1.792656 1.792663 h -1.792659 -1.792663 z"
         id="path978" />
      <path
         style="fill:#001a2d;stroke-width:0.0896331"
         d="m -54.730564,50.729535 v -1.792656 h 0.896333 0.896332 v -0.896337 -0.896326 h 0.896325 0.896337 v -0.896331 -0.896332 h 0.896326 0.896331 v -0.896331 -0.896331 h 0.896331 0.896332 V 42.66256 41.766228 h 0.896331 0.896331 v -0.896325 -0.896337 h 0.896331 0.896326 v -1.792657 -1.792663 h 0.896337 0.896325 v 0.896332 0.896331 h 0.896338 0.896325 v 0.896331 0.896326 h 0.896331 0.896332 v 0.896337 0.896325 h 0.896331 0.896331 v 0.896332 0.896331 h 0.896332 0.896331 v 0.896331 0.896331 h 0.896325 0.896337 v 0.896332 0.896331 h 0.896326 0.896331 v 1.792663 1.792656 h 0.896332 0.896331 v 0.896332 0.896331 H -42.181936 -54.730564 Z M -67.279191,16.668976 V 9.4983291 h -0.89633 -0.896329 V 2.327684 -4.8429612 h 0.896329 0.89633 v 0.896331 0.89633 h 2.688992 2.688992 v 0.896331 0.89633 h 1.792659 1.792662 v 0.89633095 0.8963308 h 1.792663 1.792659 V 1.4313533 2.327684 h 1.792665 1.792662 v 0.8963307 0.8963308 h 2.688988 2.688994 v 0.8963301 0.8963307 h 3.585319 3.585326 V 5.0166756 4.1203455 h 2.688994 2.688993 V 3.2240147 2.327684 h 1.792657 1.792663 V 1.4313533 0.53502255 h 1.792657 1.792662 v -0.8963308 -0.89633095 h 1.792663 1.792662 v -0.89633 -0.896331 h 2.688989 2.688994 V 10.39466 23.839616 h -1.792657 -1.792663 V 22.94329 22.04696 h -0.896331 -0.896332 v -0.896333 -0.89633 h -0.896331 -0.896331 v -0.896329 -0.896333 h -1.792663 -1.792662 v -0.896329 -0.89633 h -0.896326 -0.896331 v -0.896333 -0.89633 h -1.792663 -1.792657 v -0.896331 -0.89633 h -0.896337 -0.896325 v -0.896331 -0.89633 h -0.896331 -0.896332 V 10.39466 9.4983291 h -1.792662 -1.792663 V 8.6019985 7.7056677 h -1.792663 -1.792662 v 0.8963308 0.8963306 h -1.792657 -1.792662 v 0.8963309 0.896331 h -0.896332 -0.896331 v 0.89633 0.896331 h -1.792657 -1.792662 v 0.89633 0.896331 h -0.896332 -0.896333 v 0.89633 0.896333 h -0.896329 -0.89633 v 0.89633 0.896329 h -1.792663 -1.792662 v 0.896333 0.896329 h -0.89633 -0.896329 v 0.89633 0.896333 h -0.896333 -0.896329 v 0.89633 0.896326 h -1.792663 -1.792659 z"
         id="path976" />
      <g
         aria-label="Sonja"
         id="text2124"
         style="font-size:27.6422px;line-height:1.25;fill:#feeed2;stroke-width:0.691057">
        <path
           d="m -97.621544,55.006965 h 5.344878 v 1.781626 h 1.781626 v 3.563253 h -1.781626 v -1.781627 h -3.563252 v 1.781627 h -1.781626 v 1.781626 h 3.563252 v 1.781626 h 1.781626 v 5.344879 h -1.781626 v 1.781626 h -1.781626 v 1.781626 h -5.344882 v -1.781626 h -1.78162 v -3.563253 h 3.563249 v 1.781627 h 1.781627 v -1.781627 h 1.781626 v -1.781626 h -3.563253 v -1.781626 h -1.781629 v -5.344879 h 1.781629 v -1.781626 h 1.781627 z"
           style="font-family:DPComic;-inkscape-font-specification:DPComic"
           id="path14489" />
        <path
           d="m -86.796816,60.351844 h 5.344879 v 1.781626 h 1.781626 v 7.126505 h -1.781626 v 1.781626 h -1.781627 v 1.781626 h -5.344878 v -1.781626 h -1.781626 v -7.126505 h 1.781626 V 62.13347 h 1.781626 z m 1.781626,1.781626 v 1.781626 h -1.781626 v 7.126505 h 1.781626 v -1.781626 h 1.781626 V 62.13347 Z"
           style="font-family:DPComic;-inkscape-font-specification:DPComic"
           id="path14491" />
        <path
           d="m -72.408835,60.351844 h 3.563252 v 1.781626 h 1.781627 v 10.689757 h -3.563253 V 62.13347 h -1.781626 v 1.781626 h -1.781626 v 8.908131 h -3.563253 v -8.908131 h 1.781627 V 62.13347 h 3.563252 z"
           style="font-family:DPComic;-inkscape-font-specification:DPComic"
           id="path14493" />
        <path
           d="m -59.802479,55.006965 h 1.781626 v 3.563252 h -1.781626 v 1.781627 h 1.781626 v 14.253009 h -1.781626 v 1.781626 h -1.781627 v 1.781627 h -3.563252 v -1.781627 h 1.781626 v -1.781626 h 1.781626 V 62.13347 h 1.781627 v -1.781626 h -1.781627 v -3.563253 h 1.781627 z"
           style="font-family:DPComic;-inkscape-font-specification:DPComic"
           id="path14495" />
        <path
           d="m -52.594993,60.351844 h 5.344879 v 1.781626 h 1.781626 v 8.908131 h 1.781626 v 1.781626 h -3.563252 v -1.781626 h -1.781626 v 1.781626 h -5.344879 v -1.781626 h -1.781626 v -7.126505 h 1.781626 V 62.13347 h 1.781626 z m 1.781627,1.781626 v 1.781626 h -1.781627 v 7.126505 h 1.781627 v -1.781626 h 1.781626 V 62.13347 Z"
           style="font-family:DPComic;-inkscape-font-specification:DPComic"
           id="path14497" />
      </g>
      <g
         aria-label="Doryen"
         id="text2124-3"
         style="font-size:27.6422px;line-height:1.25;fill:#feeed2;stroke-width:0.691057">
        <path
           d="m -56.861621,75.863334 h 5.344879 v 1.781626 h 1.781626 v 1.781626 h 1.781626 v 8.908131 h -1.781626 v 1.781627 h -1.781626 v 1.781626 h -1.781627 v 1.781626 h -7.126504 v -14.25301 h 1.781626 V 77.64496 h 1.781626 z m 1.781626,3.563252 v 1.781627 h -1.781626 v 8.908131 h 1.781626 v -1.781627 h 1.781626 v -1.781626 h 1.781627 v -5.344878 h -1.781627 v -1.781627 z"
           style="font-family:DPComic;-inkscape-font-specification:DPComic"
           id="path14500" />
        <path
           d="m -42.47364,81.208213 h 5.344879 v 1.781626 h 1.781626 v 7.126505 h -1.781626 v 1.781626 h -1.781626 v 1.781626 h -5.344879 V 91.89797 h -1.781626 v -7.126505 h 1.781626 v -1.781626 h 1.781626 z m 1.781627,1.781626 v 1.781626 h -1.781627 v 7.126505 h 1.781627 v -1.781626 h 1.781626 v -7.126505 z"
           style="font-family:DPComic;-inkscape-font-specification:DPComic"
           id="path14502" />
        <path
           d="m -29.867286,81.208213 h 3.563253 v 1.781626 h 1.781626 v 3.563252 h -1.781626 v -1.781626 h -3.563253 v 8.908131 h -3.563252 v -8.908131 h 1.781626 v -1.781626 h 1.781626 z"
           style="font-family:DPComic;-inkscape-font-specification:DPComic"
           id="path14504" />
        <path
           d="m -20.851179,81.208213 h 1.781627 v 8.908131 h 1.781626 v -1.781627 h 1.781626 v -5.344878 h 1.781626 v -1.781626 h 1.781626 v 12.471383 h -1.781626 v 1.781626 H -15.5063 v 1.781626 h -3.563252 v -1.781626 h 1.781626 v -1.781626 h -3.563253 V 91.89797 h -1.781626 v -8.908131 h 1.781626 z m 3.563253,10.689757 v 1.781626 H -15.5063 V 91.89797 Z"
           style="font-family:DPComic;-inkscape-font-specification:DPComic"
           id="path14506" />
        <path
           d="m -6.4631949,81.208213 h 5.3448786 v 1.781626 h 1.78162622 v 1.781626 H -1.1183163 v 1.781626 h -1.7816262 v 1.781626 h 1.7816262 v 3.563253 h -1.7816262 v 1.781626 H -8.2448211 V 91.89797 h -1.7816259 v -7.126505 h 1.7816259 v -1.781626 h 1.7816262 z m 1.7816262,1.781626 v 1.781626 h -1.7816262 v 1.781626 h 1.7816262 v -1.781626 h 1.7816262 v -1.781626 z m -1.7816262,5.344878 v 3.563253 h 1.7816262 v -1.781626 h 1.7816262 v -1.781627 z"
           style="font-family:DPComic;-inkscape-font-specification:DPComic"
           id="path14508" />
        <path
           d="M 6.1161646,81.208213 H 9.679417 v 1.781626 h 1.781626 V 93.679596 H 7.8977908 V 82.989839 H 6.1161646 v 1.781626 H 4.3345384 v 8.908131 H 0.77128601 V 84.771465 H 2.5529122 v -1.781626 h 3.5632524 z"
           style="font-family:DPComic;-inkscape-font-specification:DPComic"
           id="path14510" />
      </g>
    </g>
  </g>
</svg>
