<?xml version="1.0" encoding="UTF-8" standalone="no"?>
<!-- Created with Inkscape (http://www.inkscape.org/) -->

<svg
   width="11.906253mm"
   height="11.906253mm"
   viewBox="0 0 11.906253 11.906253"
   version="1.1"
   id="svg5"
   inkscape:version="1.1.2 (0a00cf5339, 2022-02-04)"
   sodipodi:docname="ui.svg"
   xmlns:inkscape="http://www.inkscape.org/namespaces/inkscape"
   xmlns:sodipodi="http://sodipodi.sourceforge.net/DTD/sodipodi-0.dtd"
   xmlns="http://www.w3.org/2000/svg"
   xmlns:svg="http://www.w3.org/2000/svg">
  <sodipodi:namedview
     id="namedview7"
     pagecolor="#ffffff"
     bordercolor="#666666"
     borderopacity="1.0"
     inkscape:pageshadow="2"
     inkscape:pageopacity="0.0"
     inkscape:pagecheckerboard="0"
     inkscape:document-units="mm"
     showgrid="false"
     inkscape:zoom="5.6449831"
     inkscape:cx="13.729005"
     inkscape:cy="42.427054"
     inkscape:window-width="1536"
     inkscape:window-height="800"
     inkscape:window-x="0"
     inkscape:window-y="27"
     inkscape:window-maximized="1"
     inkscape:current-layer="g974"
     showguides="false" />
  <defs
     id="defs2" />
  <g
     inkscape:label="Tavolo 1"
     inkscape:groupmode="layer"
     id="layer1"
     transform="translate(-102.99317,-119.19651)">
    <g
       transform="matrix(0.10822473,0,0,0.10822473,101.09025,117.29354)"
       id="layer1-6"
       inkscape:groupmode="layer"
       inkscape:label="Layer 1">
      <g
         transform="matrix(0.58858828,0,0,0.58858828,9.3078648,19.573623)"
         id="g974">
        <rect
           ry="2.5503161"
           y="50.547272"
           x="25.484262"
           height="129.04105"
           width="165.65199"
           id="rect833-2"
           style="fill:#fec39a;fill-opacity:0.25098;stroke:#fec39a;stroke-width:4.15359705;stroke-miterlimit:4;stroke-dasharray:none;stroke-opacity:1;paint-order:markers fill stroke;stop-color:#000000" />
        <rect
           style="fill:#fec39a;fill-opacity:0.25098041;stroke:none;stroke-width:2.78016;stroke-linecap:round;stroke-miterlimit:4;stroke-dasharray:none;stroke-opacity:1;paint-order:markers fill stroke"
           id="rect38314"
           width="165.22903"
           height="20.204205"
           x="25.484262"
           y="50.547272"
           ry="2.047241" />
        <g
           id="g1004"
           transform="translate(-2.4175095,-1.3485697)" />
        <path
           style="fill:none;fill-opacity:1;stroke:#fec39a;stroke-width:4.15359705;stroke-linecap:butt;stroke-linejoin:miter;stroke-miterlimit:4;stroke-dasharray:none;stroke-opacity:1"
           d="M 25.513996,70.751474 H 190.7133"
           id="path904" />
        <text
           xml:space="preserve"
           style="font-style:normal;font-weight:normal;font-size:17.5809px;line-height:1.25;font-family:sans-serif;letter-spacing:0px;word-spacing:0px;fill:#fec39a;fill-opacity:1;stroke:#fec39a;stroke-width:2.07679853;stroke-miterlimit:4;stroke-dasharray:none;stroke-opacity:1"
           x="174.9949"
           y="66.461441"
           id="text5321"><tspan
             sodipodi:role="line"
             id="tspan5319"
             style="font-style:normal;font-variant:normal;font-weight:normal;font-stretch:normal;font-family:Ubuntu;-inkscape-font-specification:Ubuntu;fill:#fec39a;fill-opacity:1;stroke:#fec39a;stroke-width:2.07679853;stroke-miterlimit:4;stroke-dasharray:none;stroke-opacity:1"
             x="174.9949"
             y="66.461441">×</tspan></text>
        <g
           aria-label="Game"
           id="text10345"
           style="font-size:27.7107px;line-height:1.25;letter-spacing:0px;word-spacing:0px;fill:#fec39a;stroke-width:0.311411">
          <path
             d="m 82.426967,89.351643 q -3.020466,0 -4.37829,1.690353 -1.330114,1.662642 -1.330114,4.572265 0,1.413246 0.332529,2.577095 0.332528,1.136139 0.997585,1.967464 0.665056,0.83132 1.662642,1.3024 0.997585,0.44337 2.327698,0.44337 0.720479,0 1.219271,-0.0277 0.526503,-0.0277 0.914453,-0.11084 v -6.678282 h 4.322869 v 9.504772 q -0.775899,0.30482 -2.493963,0.63734 -1.718063,0.36024 -4.239737,0.36024 -2.161434,0 -3.934919,-0.66505 -1.745774,-0.66506 -2.992755,-1.93975 -1.246982,-1.2747 -1.939749,-3.131312 -0.665057,-1.856617 -0.665057,-4.239737 0,-2.410831 0.748189,-4.267448 0.748189,-1.856616 2.050592,-3.131309 1.302402,-1.302402 3.048176,-1.967459 1.773485,-0.665057 3.768655,-0.665057 1.357825,0 2.438542,0.193975 1.108428,0.166264 1.884328,0.41566 0.80361,0.221686 1.302402,0.471082 0.526504,0.249397 0.748189,0.38795 l -1.246981,3.463837 q -0.886743,-0.471081 -2.050592,-0.80361 -1.136139,-0.360239 -2.493963,-0.360239 z"
             style="font-weight:bold;font-family:Ubuntu;-inkscape-font-specification:'Ubuntu Bold'"
             id="path1712" />
          <path
             d="m 97.806396,102.34796 q 0.609636,0 1.16385,-0.0277 0.554214,-0.0277 0.886742,-0.0831 v -3.131311 q -0.249396,-0.05542 -0.748189,-0.110843 -0.498792,-0.05542 -0.914453,-0.05542 -0.581925,0 -1.108428,0.08313 -0.498793,0.05542 -0.886742,0.249396 -0.38795,0.193975 -0.609636,0.526504 -0.221685,0.332533 -0.221685,0.831323 0,0.96987 0.637346,1.35782 0.665057,0.36024 1.801195,0.36024 z M 97.473868,90.266096 q 1.828906,0 3.048172,0.415661 1.21928,0.41566 1.93975,1.19156 0.74819,0.775899 1.05301,1.884327 0.30482,1.108428 0.30482,2.466252 v 8.590314 q -0.88674,0.19398 -2.46625,0.44337 -1.579514,0.27711 -3.824081,0.27711 -1.413245,0 -2.577095,-0.24939 -1.136138,-0.2494 -1.967459,-0.80362 -0.831321,-0.58192 -1.274693,-1.49637 -0.443371,-0.91446 -0.443371,-2.24457 0,-1.274692 0.498793,-2.161434 0.526503,-0.886742 1.385535,-1.413246 0.859031,-0.526503 1.967459,-0.748189 1.108428,-0.249396 2.299988,-0.249396 0.803611,0 1.413246,0.08313 0.637346,0.05542 1.025296,0.166264 v -0.387949 q 0,-1.053007 -0.637346,-1.690353 -0.637346,-0.637346 -2.216856,-0.637346 -1.053007,0 -2.078302,0.166264 -1.025296,0.138554 -1.773485,0.415661 l -0.526503,-3.325284 q 0.360239,-0.110843 0.886742,-0.221686 0.554214,-0.138553 1.19156,-0.221686 0.637346,-0.110842 1.330114,-0.166264 0.720478,-0.08313 1.440956,-0.08313 z"
             style="font-weight:bold;font-family:Ubuntu;-inkscape-font-specification:'Ubuntu Bold'"
             id="path1714" />
          <path
             d="m 115.56894,97.498589 q 0,-1.995171 -0.5265,-2.826492 -0.49879,-0.831321 -1.74578,-0.831321 -0.38795,0 -0.80361,0.05542 -0.41566,0.02771 -0.80361,0.08313 v 11.25054 h -4.12889 V 91.152839 q 0.5265,-0.138554 1.21927,-0.277107 0.72048,-0.166265 1.49638,-0.277107 0.80361,-0.138554 1.63493,-0.193975 0.83132,-0.08313 1.63493,-0.08313 1.57951,0 2.54938,0.41566 0.99759,0.38795 1.63494,0.942164 0.88674,-0.637346 2.02288,-0.997585 1.16385,-0.360239 2.13372,-0.360239 1.74577,0 2.8542,0.498792 1.13614,0.471082 1.8012,1.357824 0.66505,0.886743 0.91445,2.106014 0.2494,1.21927 0.2494,2.715648 v 8.230074 h -4.1289 v -7.731281 q 0,-1.995171 -0.5265,-2.826492 -0.49879,-0.831321 -1.74577,-0.831321 -0.33253,0 -0.94217,0.166265 -0.58192,0.166264 -0.96987,0.41566 0.19397,0.637346 0.24939,1.357824 0.0554,0.692768 0.0554,1.496378 v 7.952967 h -4.1289 z"
             style="font-weight:bold;font-family:Ubuntu;-inkscape-font-specification:'Ubuntu Bold'"
             id="path1716" />
          <path
             d="m 130.75439,98.052803 q 0,-1.939749 0.58192,-3.380706 0.60964,-1.468667 1.57951,-2.438541 0.96988,-0.969875 2.21686,-1.468667 1.27469,-0.498793 2.60481,-0.498793 3.10359,0 4.90479,1.912038 1.80119,1.884328 1.80119,5.569851 0,0.360239 -0.0277,0.80361 -0.0277,0.415661 -0.0554,0.748189 h -9.36621 q 0.13855,1.274696 1.19156,2.022886 1.053,0.74818 2.82649,0.74818 1.13614,0 2.21685,-0.19397 1.10843,-0.22169 1.8012,-0.5265 l 0.55421,3.35299 q -0.33253,0.16626 -0.88674,0.33253 -0.55421,0.16626 -1.24698,0.27711 -0.66506,0.13855 -1.44096,0.22168 -0.7759,0.0831 -1.5518,0.0831 -1.96746,0 -3.43612,-0.58192 -1.44096,-0.58193 -2.41083,-1.57951 -0.94217,-1.0253 -1.41325,-2.41083 -0.44337,-1.385537 -0.44337,-2.992757 z m 9.69874,-1.57951 q -0.0277,-0.526504 -0.19397,-1.025296 -0.13855,-0.498793 -0.47108,-0.886742 -0.30482,-0.38795 -0.80361,-0.637347 -0.47108,-0.249396 -1.19156,-0.249396 -0.69277,0 -1.19156,0.249396 -0.4988,0.221686 -0.83132,0.609636 -0.33253,0.38795 -0.52651,0.914453 -0.16626,0.498792 -0.24939,1.025296 z"
             style="font-weight:bold;font-family:Ubuntu;-inkscape-font-specification:'Ubuntu Bold'"
             id="path1718" />
        </g>
        <g
           aria-label="Play"
           id="text10345-7"
           style="font-size:14.0297px;line-height:1.25;letter-spacing:0px;word-spacing:0px;fill:#fec39a;stroke-width:0.157667">
          <path
             d="m 97.820209,116.03146 q 2.174604,0 3.339071,0.77163 1.16446,0.75761 1.16446,2.49729 0,1.75371 -1.17849,2.53938 -1.178497,0.77163 -3.36713,0.77163 h -0.687455 v 3.25489 h -2.188634 v -9.58229 q 0.715515,-0.14029 1.515208,-0.19641 0.799693,-0.0561 1.40297,-0.0561 z m 0.140297,1.86595 q -0.238505,0 -0.47701,0.014 -0.224475,0.014 -0.392831,0.0281 v 2.80594 h 0.687455 q 1.136406,0 1.711623,-0.30865 0.575217,-0.30866 0.575217,-1.15044 0,-0.40686 -0.154326,-0.67343 -0.140297,-0.26656 -0.420891,-0.42089 -0.266564,-0.16835 -0.659395,-0.22447 -0.392832,-0.0702 -0.869842,-0.0702 z"
             style="font-weight:bold;font-family:Ubuntu;-inkscape-font-specification:'Ubuntu Bold'"
             id="path1739" />
          <path
             d="m 106.74309,126.00658 q -0.91193,-0.014 -1.48715,-0.19642 -0.56119,-0.18239 -0.8979,-0.50507 -0.32269,-0.33671 -0.44895,-0.79969 -0.11224,-0.47701 -0.11224,-1.06626 v -8.1232 l 2.09042,-0.33671 v 8.03902 q 0,0.28059 0.0421,0.50507 0.0421,0.22447 0.15433,0.3788 0.12627,0.15433 0.35074,0.25254 0.22448,0.0982 0.60328,0.12626 z"
             style="font-weight:bold;font-family:Ubuntu;-inkscape-font-specification:'Ubuntu Bold'"
             id="path1741" />
          <path
             d="m 111.26064,124.40719 q 0.30865,0 0.58925,-0.014 0.28059,-0.014 0.44895,-0.0421 v -1.58535 q -0.12627,-0.0281 -0.3788,-0.0561 -0.25254,-0.0281 -0.46298,-0.0281 -0.29463,0 -0.56119,0.0421 -0.25254,0.0281 -0.44895,0.12626 -0.19642,0.0982 -0.30866,0.26657 -0.11223,0.16835 -0.11223,0.42089 0,0.49104 0.32268,0.68745 0.33671,0.18239 0.91193,0.18239 z m -0.16836,-6.11695 q 0.92596,0 1.54327,0.21045 0.61731,0.21044 0.98208,0.60327 0.3788,0.39284 0.53313,0.95402 0.15433,0.56119 0.15433,1.24865 v 4.3492 q -0.44896,0.0982 -1.24865,0.22448 -0.79969,0.1403 -1.9361,0.1403 -0.71551,0 -1.30476,-0.12627 -0.57522,-0.12627 -0.99611,-0.40686 -0.42089,-0.29463 -0.64536,-0.75761 -0.22448,-0.46298 -0.22448,-1.1364 0,-0.64537 0.25254,-1.09432 0.26656,-0.44895 0.70148,-0.71551 0.43492,-0.26657 0.99611,-0.37881 0.56119,-0.12626 1.16446,-0.12626 0.40687,0 0.71552,0.0421 0.32268,0.0281 0.5191,0.0842 v -0.19641 q 0,-0.53313 -0.32269,-0.85581 -0.32268,-0.32269 -1.12237,-0.32269 -0.53313,0 -1.05223,0.0842 -0.5191,0.0702 -0.8979,0.21045 l -0.26656,-1.68357 q 0.18238,-0.0561 0.44895,-0.11223 0.28059,-0.0701 0.60327,-0.11224 0.32269,-0.0561 0.67343,-0.0842 0.36477,-0.0421 0.72954,-0.0421 z"
             style="font-weight:bold;font-family:Ubuntu;-inkscape-font-specification:'Ubuntu Bold'"
             id="path1743" />
          <path
             d="m 122.56857,118.48666 q -0.63134,2.13251 -1.3188,3.99846 -0.68745,1.86595 -1.50117,3.61966 -0.29463,0.63134 -0.58925,1.06626 -0.29463,0.44895 -0.64537,0.72955 -0.35074,0.29462 -0.79969,0.42089 -0.43492,0.14029 -1.02417,0.14029 -0.49104,0 -0.91193,-0.0982 -0.40686,-0.0842 -0.67343,-0.19642 l 0.36478,-1.66953 q 0.32268,0.11223 0.57521,0.15432 0.25254,0.0421 0.53313,0.0421 0.56119,0 0.85582,-0.30865 0.30865,-0.29463 0.51909,-0.82775 -0.71551,-1.40297 -1.43103,-3.14266 -0.71551,-1.75371 -1.34685,-3.92831 h 2.2167 q 0.14029,0.54716 0.32268,1.19252 0.19642,0.63134 0.40686,1.29073 0.21045,0.64537 0.42089,1.26268 0.22448,0.6173 0.42089,1.12237 0.18239,-0.50507 0.3788,-1.12237 0.19642,-0.61731 0.37881,-1.26268 0.19641,-0.65939 0.36477,-1.29073 0.18238,-0.64536 0.32268,-1.19252 z"
             style="font-weight:bold;font-family:Ubuntu;-inkscape-font-specification:'Ubuntu Bold'"
             id="path1745" />
        </g>
        <g
           aria-label="Options"
           id="text10345-7-6"
           style="font-size:14.121px;line-height:1.25;letter-spacing:0px;word-spacing:0px;fill:#fec39a;stroke-width:0.158692">
          <path
             d="m 83.743287,138.20467 q 0,0.72017 0.169452,1.29913 0.183573,0.57897 0.508356,1.0026 0.338904,0.4095 0.819018,0.63544 0.480114,0.22594 1.101438,0.22594 0.607203,0 1.087317,-0.22594 0.494235,-0.22594 0.819018,-0.63544 0.338904,-0.42363 0.508356,-1.0026 0.183573,-0.57896 0.183573,-1.29913 0,-0.72017 -0.183573,-1.29913 -0.169452,-0.59308 -0.508356,-1.00259 -0.324783,-0.42363 -0.819018,-0.64957 -0.480114,-0.22593 -1.087317,-0.22593 -0.621324,0 -1.101438,0.24005 -0.480114,0.22594 -0.819018,0.64957 -0.324783,0.40951 -0.508356,1.00259 -0.169452,0.57896 -0.169452,1.28501 z m 7.470009,0 q 0,1.25677 -0.381267,2.217 -0.367146,0.94611 -1.016712,1.59567 -0.649566,0.63545 -1.55331,0.96023 -0.889623,0.32478 -1.920456,0.32478 -1.002591,0 -1.892214,-0.32478 -0.889623,-0.32478 -1.55331,-0.96023 -0.663687,-0.64956 -1.044954,-1.59567 -0.381267,-0.96023 -0.381267,-2.217 0,-1.25677 0.395388,-2.20287 0.395388,-0.96023 1.059075,-1.6098 0.677808,-0.64956 1.55331,-0.97435 0.889623,-0.32478 1.863972,-0.32478 1.002591,0 1.892214,0.32478 0.889623,0.32479 1.55331,0.97435 0.663687,0.64957 1.044954,1.6098 0.381267,0.9461 0.381267,2.20287 z"
             style="font-weight:bold;font-family:Ubuntu;-inkscape-font-specification:'Ubuntu Bold'"
             id="path1766" />
          <path
             d="m 97.666579,139.44732 q 0,-0.97435 -0.437751,-1.55331 -0.437751,-0.59308 -1.299132,-0.59308 -0.28242,0 -0.522477,0.0282 -0.240057,0.0141 -0.395388,0.0424 v 3.79855 q 0.197694,0.12709 0.508356,0.21182 0.324783,0.0847 0.649566,0.0847 1.496826,0 1.496826,-2.0193 z m 2.146392,-0.0565 q 0,0.86138 -0.211815,1.56743 -0.211815,0.70605 -0.621324,1.2144 -0.409509,0.50836 -1.016712,0.79078 -0.607203,0.28242 -1.397979,0.28242 -0.437751,0 -0.819018,-0.0847 -0.381267,-0.0847 -0.734292,-0.24005 v 2.79596 h -2.104029 v -9.78586 q 0.28242,-0.0847 0.649566,-0.15533 0.367146,-0.0847 0.762534,-0.14121 0.409509,-0.0565 0.819018,-0.0847 0.42363,-0.0424 0.804897,-0.0424 0.917865,0 1.638036,0.28242 0.720171,0.2683 1.214406,0.77666 0.494235,0.49423 0.748413,1.2144 0.268299,0.72017 0.268299,1.6098 z"
             style="font-weight:bold;font-family:Ubuntu;-inkscape-font-specification:'Ubuntu Bold'"
             id="path1768" />
          <path
             d="m 101.36626,133.82716 2.10403,-0.3389 v 2.18875 h 2.52765 v 1.75101 h -2.52765 v 2.61238 q 0,0.66369 0.22593,1.05908 0.24006,0.39539 0.94611,0.39539 0.3389,0 0.69193,-0.0565 0.36714,-0.0706 0.66368,-0.18357 l 0.29655,1.63804 q -0.38127,0.15533 -0.84726,0.26829 -0.466,0.11297 -1.14381,0.11297 -0.86138,0 -1.42622,-0.22593 -0.56484,-0.24006 -0.90374,-0.64957 -0.33891,-0.42363 -0.48012,-1.01671 -0.12708,-0.59308 -0.12708,-1.31326 z"
             style="font-weight:bold;font-family:Ubuntu;-inkscape-font-specification:'Ubuntu Bold'"
             id="path1770" />
          <path
             d="m 109.81059,143.10466 h -2.10403 v -7.42765 h 2.10403 z m 0.19769,-9.57404 q 0,0.57896 -0.38126,0.91787 -0.36715,0.32478 -0.87551,0.32478 -0.50835,0 -0.88962,-0.32478 -0.36714,-0.33891 -0.36714,-0.91787 0,-0.57896 0.36714,-0.90374 0.38127,-0.33891 0.88962,-0.33891 0.50836,0 0.87551,0.33891 0.38126,0.32478 0.38126,0.90374 z"
             style="font-weight:bold;font-family:Ubuntu;-inkscape-font-specification:'Ubuntu Bold'"
             id="path1772" />
          <path
             d="m 118.73506,139.37672 q 0,0.8755 -0.25418,1.60979 -0.25418,0.72017 -0.73429,1.24265 -0.48012,0.50835 -1.15793,0.79077 -0.66368,0.28242 -1.49682,0.28242 -0.81902,0 -1.49683,-0.28242 -0.66369,-0.28242 -1.1438,-0.79077 -0.48011,-0.52248 -0.74841,-1.24265 -0.2683,-0.73429 -0.2683,-1.60979 0,-0.87551 0.2683,-1.59568 0.28242,-0.72017 0.76253,-1.22852 0.49424,-0.50836 1.15792,-0.79078 0.67781,-0.28242 1.46859,-0.28242 0.80489,0 1.46858,0.28242 0.67781,0.28242 1.15792,0.79078 0.48012,0.50835 0.74842,1.22852 0.2683,0.72017 0.2683,1.59568 z m -2.1464,0 q 0,-0.97435 -0.39538,-1.52507 -0.38127,-0.56484 -1.10144,-0.56484 -0.72017,0 -1.11556,0.56484 -0.39539,0.55072 -0.39539,1.52507 0,0.97434 0.39539,1.55331 0.39539,0.56484 1.11556,0.56484 0.72017,0 1.10144,-0.56484 0.39538,-0.57897 0.39538,-1.55331 z"
             style="font-weight:bold;font-family:Ubuntu;-inkscape-font-specification:'Ubuntu Bold'"
             id="path1774" />
          <path
             d="m 120.35895,135.93119 q 0.5366,-0.15533 1.38386,-0.28242 0.84726,-0.14121 1.77924,-0.14121 0.94611,0 1.56743,0.25418 0.63545,0.24006 1.0026,0.69193 0.36714,0.45187 0.52247,1.07319 0.15533,0.62133 0.15533,1.38386 v 4.19394 h -2.10403 v -3.93976 q 0,-1.01671 -0.26829,-1.44034 -0.2683,-0.42363 -1.0026,-0.42363 -0.22593,0 -0.48011,0.0282 -0.25418,0.0141 -0.45187,0.0424 v 5.73313 h -2.10403 z"
             style="font-weight:bold;font-family:Ubuntu;-inkscape-font-specification:'Ubuntu Bold'"
             id="path1776" />
          <path
             d="m 130.80847,141.59371 q 0.57896,0 0.81902,-0.11296 0.24005,-0.11297 0.24005,-0.43776 0,-0.25417 -0.31066,-0.43775 -0.31066,-0.19769 -0.9461,-0.43775 -0.49424,-0.18357 -0.90375,-0.38127 -0.39539,-0.19769 -0.67781,-0.46599 -0.28242,-0.28242 -0.43775,-0.66369 -0.15533,-0.38126 -0.15533,-0.91786 0,-1.04495 0.77666,-1.65216 0.77665,-0.6072 2.13227,-0.6072 0.67781,0 1.29913,0.12709 0.62132,0.11297 0.98847,0.25418 l -0.36715,1.63803 q -0.36714,-0.12709 -0.80489,-0.22593 -0.42363,-0.0988 -0.96023,-0.0988 -0.98847,0 -0.98847,0.55072 0,0.12709 0.0424,0.22593 0.0424,0.0988 0.16945,0.1977 0.12709,0.0847 0.33891,0.19769 0.22593,0.0988 0.56484,0.22594 0.69193,0.25418 1.1438,0.50835 0.45187,0.24006 0.70605,0.5366 0.2683,0.28242 0.36715,0.63545 0.11296,0.35302 0.11296,0.81902 0,1.10143 -0.83314,1.66627 -0.81901,0.56484 -2.32996,0.56484 -0.98847,0 -1.65216,-0.16945 -0.64956,-0.16945 -0.90374,-0.28242 l 0.35302,-1.70864 q 0.5366,0.21182 1.10144,0.33891 0.56484,0.11296 1.11556,0.11296 z"
             style="font-weight:bold;font-family:Ubuntu;-inkscape-font-specification:'Ubuntu Bold'"
             id="path1778" />
        </g>
        <g
           aria-label="Exit"
           id="text10345-7-6-9"
           style="font-size:14.4762px;line-height:1.25;letter-spacing:0px;word-spacing:0px;fill:#fec39a;stroke-width:0.162683">
          <path
             d="m 95.267585,160.43843 v -10.03201 h 6.774865 v 1.89639 h -4.516577 v 1.96876 h 4.009907 v 1.85295 h -4.009907 v 2.41753 h 4.849527 v 1.89638 z"
             style="font-weight:bold;font-family:Ubuntu;-inkscape-font-specification:'Ubuntu Bold'"
             id="path1799" />
          <path
             d="m 107.22491,155.14014 1.50553,-2.31619 h 2.22933 l -2.60572,3.66248 q 0.86858,1.08571 1.57791,2.11352 0.70933,1.02781 1.12914,1.83848 h -2.31619 q -0.11581,-0.21714 -0.28952,-0.53562 -0.17372,-0.33295 -0.39086,-0.68038 -0.21714,-0.36191 -0.46324,-0.70933 -0.23162,-0.36191 -0.46324,-0.65143 -0.21714,0.27504 -0.44876,0.608 -0.21714,0.33295 -0.41981,0.68038 -0.20266,0.33295 -0.40533,0.6659 -0.18819,0.33296 -0.33295,0.62248 h -2.20039 q 0.17372,-0.3619 0.47772,-0.8541 0.304,-0.49219 0.65143,-1.01333 0.3619,-0.53562 0.75276,-1.05676 0.39086,-0.53562 0.76724,-0.99886 -0.65143,-0.912 -1.30286,-1.83848 -0.65143,-0.94095 -1.28838,-1.85295 h 2.33067 z"
             style="font-weight:bold;font-family:Ubuntu;-inkscape-font-specification:'Ubuntu Bold'"
             id="path1801" />
          <path
             d="m 114.37614,160.43843 h -2.15696 v -7.61448 h 2.15696 z m 0.20267,-9.81486 q 0,0.59352 -0.39086,0.94095 -0.37638,0.33295 -0.89753,0.33295 -0.52114,0 -0.912,-0.33295 -0.37638,-0.34743 -0.37638,-0.94095 0,-0.59353 0.37638,-0.92648 0.39086,-0.34743 0.912,-0.34743 0.52115,0 0.89753,0.34743 0.39086,0.33295 0.39086,0.92648 z"
             style="font-weight:bold;font-family:Ubuntu;-inkscape-font-specification:'Ubuntu Bold'"
             id="path1803" />
          <path
             d="m 116.33042,150.92757 2.15695,-0.34743 v 2.24381 h 2.59124 v 1.79505 h -2.59124 v 2.6781 q 0,0.68038 0.23162,1.08571 0.2461,0.40533 0.96991,0.40533 0.34743,0 0.70933,-0.0579 0.37638,-0.0724 0.68038,-0.18819 l 0.304,1.67924 q -0.39086,0.15924 -0.86857,0.27505 -0.47771,0.11581 -1.17257,0.11581 -0.88305,0 -1.4621,-0.23162 -0.57905,-0.2461 -0.92648,-0.66591 -0.34742,-0.43429 -0.49219,-1.04229 -0.13028,-0.608 -0.13028,-1.34628 z"
             style="font-weight:bold;font-family:Ubuntu;-inkscape-font-specification:'Ubuntu Bold'"
             id="path1805" />
        </g>
      </g>
    </g>
  </g>
</svg>
