<?xml version="1.0" encoding="UTF-8" standalone="no"?>
<!-- Created with Inkscape (http://www.inkscape.org/) -->

<svg
   width="11.904894mm"
   height="11.906932mm"
   viewBox="0 0 11.904894 11.906932"
   version="1.1"
   id="svg5"
   inkscape:version="1.1.2 (0a00cf5339, 2022-02-04)"
   sodipodi:docname="script.svg"
   xmlns:inkscape="http://www.inkscape.org/namespaces/inkscape"
   xmlns:sodipodi="http://sodipodi.sourceforge.net/DTD/sodipodi-0.dtd"
   xmlns="http://www.w3.org/2000/svg"
   xmlns:svg="http://www.w3.org/2000/svg">
  <sodipodi:namedview
     id="namedview7"
     pagecolor="#ffffff"
     bordercolor="#666666"
     borderopacity="1.0"
     inkscape:pageshadow="2"
     inkscape:pageopacity="0.0"
     inkscape:pagecheckerboard="0"
     inkscape:document-units="mm"
     showgrid="false"
     inkscape:zoom="9.1583245"
     inkscape:cx="10.100101"
     inkscape:cy="20.473177"
     inkscape:window-width="1536"
     inkscape:window-height="800"
     inkscape:window-x="0"
     inkscape:window-y="27"
     inkscape:window-maximized="1"
     inkscape:current-layer="layer1" />
  <defs
     id="defs2" />
  <g
     inkscape:label="Tavolo 1"
     inkscape:groupmode="layer"
     id="layer1"
     transform="translate(-102.2252,-118.46222)">
    <path
       d="m 104.83065,121.29948 -0.084,-0.0969 c -0.1299,-0.14984 -0.30606,-0.23403 -0.48974,-0.23403 h 5.70286 c 0.38965,0 0.76334,0.17859 1.03887,0.49648 0.27554,0.31789 0.43032,0.74903 0.43032,1.19858 v 5.09009 h -3.29915 c -0.0791,0 -0.14342,0.0741 -0.14342,0.16549 v 0.62183 c 0,0.44955 -0.1548,0.88068 -0.43034,1.19858 l -0.0245,0.0283 c -0.25572,0.29506 -0.60115,0.46282 -0.96234,0.46798 -0.38326,-0.004 -0.74986,-0.18329 -1.02122,-0.49636 -0.27552,-0.3179 -0.43033,-0.74903 -0.43033,-1.19858 v -6.44242 c 0,-0.29971 -0.10322,-0.58714 -0.28688,-0.79907 z"
       fill="#c2ccde"
       fill-opacity="0.25"
       id="path2436"
       style="stroke-width:0.154073;fill:#b794f4;fill-opacity:0.25098041" />
    <path
       d="m 107.53141,129.76793 0.0245,-0.0283 c 0.27556,-0.31792 0.43034,-0.74904 0.43034,-1.19859 v -0.62183 c 0,-0.0913 0.0642,-0.16548 0.14343,-0.16548 h 4.877 c 0.0791,0 0.14346,0.0741 0.14346,0.16548 v 0.62183 c 0,0.44955 -0.1548,0.88067 -0.43033,1.19859 -0.27553,0.31788 -0.64923,0.49647 -1.03889,0.49647 h -5.12907 c 0.36737,0 0.71969,-0.16838 0.97947,-0.46809 z"
       fill="#c2ccde"
       fill-opacity="0.25"
       id="path2438"
       style="stroke-width:0.154073;fill:#b794f4;fill-opacity:0.25098041" />
    <path
       d="m 104.13805,120.96849 h -0.0493 c -0.25977,0 -0.5089,0.11909 -0.6926,0.33099 -0.18369,0.21193 -0.28688,0.49935 -0.28688,0.79905 v 1.68332 c 0,0.0913 0.0642,0.16548 0.14344,0.16548 h 1.7213 c 0.0791,0 0.14344,-0.0741 0.14344,-0.16548 v -1.68332 c 0,-0.2997 -0.10321,-0.58712 -0.28688,-0.79905 -6e-5,-7e-5 -10e-5,-1.2e-4 -1.6e-4,-1.9e-4 -0.18366,-0.21181 -0.43273,-0.3308 -0.69244,-0.3308 z"
       fill="#c2ccde"
       fill-opacity="0.25"
       id="path2440"
       style="stroke-width:0.154073;fill:#b794f4;fill-opacity:0.25098041" />
    <path
       d="m 104.83065,121.29948 -0.084,-0.0969 c -0.1299,-0.14984 -0.30606,-0.23403 -0.48974,-0.23403 h 5.70286 c 0.38965,0 0.76334,0.17859 1.03887,0.49648 0.27554,0.31789 0.43032,0.74903 0.43032,1.19858 v 5.09009 h -3.29915 m -3.29913,-6.45416 c 0.18368,0.21193 0.28687,0.49936 0.28687,0.79905 m -0.28687,-0.79905 c -6e-5,-7e-5 -1.1e-4,-1.2e-4 -1.6e-4,-1.8e-4 -0.18366,-0.21182 -0.43274,-0.33081 -0.69244,-0.33081 h -0.0493 c -0.25976,0 -0.5089,0.11909 -0.69258,0.33099 -0.18371,0.21193 -0.28689,0.49936 -0.28689,0.79905 v 1.68332 c 0,0.0913 0.0642,0.16549 0.14344,0.16549 h 1.72129 c 0.0791,0 0.14345,-0.0741 0.14345,-0.16549 v -1.68332 m 3.01226,5.65511 c -0.0791,0 -0.14344,0.0741 -0.14344,0.16549 v 0.62183 c 0,0.44955 -0.15478,0.88068 -0.43032,1.19858 l -0.0245,0.0283 m 0.59836,-2.01428 h 4.87701 c 0.0791,0 0.14343,0.0741 0.14343,0.16548 v 0.62184 c 0,0.44955 -0.15477,0.88068 -0.43033,1.19858 -0.27551,0.31789 -0.64921,0.49647 -1.03887,0.49647 h -5.12908 c 0.36738,0 0.7197,-0.16837 0.97948,-0.46809 m 0,0 c -0.25574,0.29506 -0.60115,0.46282 -0.96234,0.46798 -0.38327,-0.004 -0.74986,-0.18329 -1.02122,-0.49636 -0.27555,-0.3179 -0.43034,-0.74903 -0.43034,-1.19858 v -6.44242"
       stroke="#c2ccde"
       stroke-linecap="round"
       stroke-linejoin="round"
       id="path2442"
       style="fill:none;stroke-width:0.26458333;stroke:#b794f4;stroke-opacity:1;stroke-miterlimit:4;stroke-dasharray:none" />
  </g>
</svg>
