<?xml version="1.0" encoding="UTF-8" standalone="no"?>
<!-- Created with Inkscape (http://www.inkscape.org/) -->

<svg
   width="1199.3002"
   height="1199.3002"
   viewBox="0 0 317.31485 317.31485"
   version="1.1"
   id="svg3256"
   inkscape:version="1.1.2 (0a00cf5339, 2022-02-04)"
   sodipodi:docname="ks.svg"
   xmlns:inkscape="http://www.inkscape.org/namespaces/inkscape"
   xmlns:sodipodi="http://sodipodi.sourceforge.net/DTD/sodipodi-0.dtd"
   xmlns="http://www.w3.org/2000/svg"
   xmlns:svg="http://www.w3.org/2000/svg">
  <sodipodi:namedview
     id="namedview3258"
     pagecolor="#ffffff"
     bordercolor="#666666"
     borderopacity="1.0"
     inkscape:pageshadow="2"
     inkscape:pageopacity="0.0"
     inkscape:pagecheckerboard="0"
     inkscape:document-units="mm"
     showgrid="false"
     inkscape:zoom="0.23877172"
     inkscape:cx="389.49336"
     inkscape:cy="649.15559"
     inkscape:window-width="1280"
     inkscape:window-height="655"
     inkscape:window-x="0"
     inkscape:window-y="37"
     inkscape:window-maximized="1"
     inkscape:current-layer="layer1"
     units="px" />
  <defs
     id="defs3253" />
  <g
     inkscape:label="Tavolo 1"
     inkscape:groupmode="layer"
     id="layer1"
     transform="translate(-19.323498,-32.015805)">
    <g
       id="g1428"
       transform="matrix(0.90671733,0,0,0.90671733,16.602534,17.786506)">
      <path
         id="rect399-3"
         style="fill:#3473fe;fill-opacity:1;stroke-width:4.07569"
         d="M 511.7207,-149.62109 A 661.34189,661.34183 0 0 0 -149.62109,511.7207 661.34189,661.34183 0 0 0 511.7207,1173.0625 661.34189,661.34183 0 0 0 1173.0625,511.7207 661.34189,661.34183 0 0 0 511.7207,-149.62109 Z"
         transform="matrix(0.26458333,0,0,0.26458333,42.588142,55.280449)" />
      <path
         id="rect399"
         style="fill:#ffbe1b;fill-opacity:1;stroke-width:2.8754"
         d="M -149.50781,514.72852 A 661.34189,661.34183 0 0 0 511.7207,1173.0625 661.34189,661.34183 0 0 0 1172.9492,514.72852 Z"
         transform="matrix(0.26458333,0,0,0.26458333,42.588142,55.280449)" />
    </g>
    <path
       style="fill:#fcfcfc;stroke-width:0.588663"
       d="m 113.8164,276.99869 v -13.33142 h 1.67183 c 3.12805,0 10.95264,-2.37011 14.12523,-4.2786 6.69241,-4.02588 12.31991,-12.07168 13.70733,-19.59776 0.35451,-1.92307 0.75346,-4.09252 0.88655,-4.82098 l 0.24198,-1.32449 h 13.32097 13.32096 l -0.36163,4.56214 c -2.13954,26.99091 -25.11587,50.10517 -51.46808,51.77705 l -5.44514,0.34547 z m 113.97339,11.43571 c -21.3837,-5.58553 -37.05628,-22.29319 -41.60959,-44.35764 -0.61602,-2.98524 -1.12356,-6.55351 -1.12781,-7.9295 l -0.007,-2.50182 h 13.53924 13.53926 v 2.66755 c 0,8.04117 6.39323,18.26431 14.49596,23.17991 3.04516,1.84736 10.7681,4.17437 13.85404,4.17437 h 1.67183 v 13.24491 13.24494 l -3.97348,-0.0245 c -2.39752,-0.0156 -6.51509,-0.68831 -10.38173,-1.69831 z M 108.72027,235.26426 c -2.49355,-2.99483 -5.70418,-7.25348 -7.13475,-9.46366 -5.42735,-8.38514 -10.563289,-21.03777 -12.869373,-31.70428 -1.365596,-6.31643 -1.537091,-27.40082 -0.274426,-33.73948 5.939927,-29.81877 25.563559,-54.72159 52.453199,-66.564197 12.57419,-5.537871 23.78926,-7.901795 37.48718,-7.901586 24.03101,3.67e-4 45.99873,8.958379 63.37867,25.844593 19.95494,19.38806 29.85327,46.93109 26.84289,74.69275 -2.05782,18.97733 -10.14362,36.94104 -23.11072,51.34368 l -2.83301,3.14666 -11.43258,-11.42132 -11.4326,-11.42133 1.98029,-2.07542 c 5.64017,-5.91119 11.09373,-15.89284 13.35553,-24.44466 1.77098,-6.69599 2.16144,-17.78547 0.88906,-25.24998 -2.01958,-11.84809 -7.11843,-21.70687 -15.83119,-30.61005 -5.04358,-5.15381 -9.24369,-8.30586 -14.8349,-11.13315 -9.69687,-4.90339 -16.25166,-6.46943 -27.0785,-6.46943 -12.60825,0 -22.33282,2.86515 -32.46932,9.56642 -27.95216,18.47925 -34.90091,56.23774 -15.33388,83.32208 1.63732,2.26636 3.26161,4.38555 3.60953,4.70931 2.71071,2.52251 3.05681,1.97842 -8.82387,13.87146 -6.12433,6.1307 -11.33053,11.14673 -11.56932,11.14673 -0.23881,0 -2.47436,-2.45032 -4.96791,-5.44514 z m 42.18192,-21.43907 c 0,-0.2147 2.39391,-7.54155 5.31981,-16.28206 2.92589,-8.74053 5.11131,-16.07799 4.85647,-16.30551 -0.5434,-0.48513 -18.53934,-13.37255 -22.83254,-16.35105 -1.61882,-1.12309 -3.31556,-2.33685 -3.77053,-2.69719 -0.61447,-0.48669 3.6196,-0.73089 16.46334,-0.94953 l 17.29056,-0.29433 4.24586,-13.24493 c 2.33525,-7.28471 4.5331,-14.37074 4.88419,-15.74674 0.35106,-1.376 0.85335,-2.50182 1.11617,-2.50182 0.26283,0 1.74089,4.0397 3.28462,8.97711 1.54373,4.93742 3.79707,12.02345 5.00745,15.74675 l 2.20066,6.76963 17.31694,0.29433 17.31693,0.29433 -2.06034,1.50991 c -1.13317,0.83045 -2.63026,1.89004 -3.32685,2.35466 -0.6966,0.4646 -4.3944,3.09638 -8.21733,5.84838 -3.82295,2.75199 -8.41852,6.02791 -10.21239,7.27982 -1.79389,1.25191 -3.46864,2.46556 -3.72167,2.69699 -0.25304,0.23143 1.9494,7.64478 4.89433,16.47413 2.9449,8.82933 5.26533,16.14238 5.15651,16.2512 -0.10879,0.1088 -1.51658,-0.80522 -3.12834,-2.03121 -12.59345,-9.57938 -23.83732,-17.68462 -24.55726,-17.70235 -0.23922,-0.007 -1.96105,1.14164 -3.82631,2.5501 -9.6852,7.31323 -23.70028,17.40123 -23.70028,17.05938 z"
       id="path277"
       inkscape:export-filename="/home/ks/Labortablo/ks.png"
       inkscape:export-xdpi="96"
       inkscape:export-ydpi="96" />
  </g>
</svg>
