<?xml version="1.0" encoding="UTF-8" standalone="no"?>
<!-- Created with Inkscape (http://www.inkscape.org/) -->

<svg
   width="11.906253mm"
   height="11.906253mm"
   viewBox="0 0 11.906253 11.906253"
   version="1.1"
   id="svg5"
   inkscape:version="1.1.2 (0a00cf5339, 2022-02-04)"
   sodipodi:docname="flatbox.svg"
   xmlns:inkscape="http://www.inkscape.org/namespaces/inkscape"
   xmlns:sodipodi="http://sodipodi.sourceforge.net/DTD/sodipodi-0.dtd"
   xmlns="http://www.w3.org/2000/svg"
   xmlns:svg="http://www.w3.org/2000/svg">
  <sodipodi:namedview
     id="namedview7"
     pagecolor="#ffffff"
     bordercolor="#666666"
     borderopacity="1.0"
     inkscape:pageshadow="2"
     inkscape:pageopacity="0.0"
     inkscape:pagecheckerboard="0"
     inkscape:document-units="mm"
     showgrid="false"
     inkscape:zoom="11.313709"
     inkscape:cx="26.295533"
     inkscape:cy="23.467106"
     inkscape:window-width="1466"
     inkscape:window-height="800"
     inkscape:window-x="70"
     inkscape:window-y="27"
     inkscape:window-maximized="1"
     inkscape:current-layer="g974"
     showguides="false" />
  <defs
     id="defs2" />
  <g
     inkscape:label="Tavolo 1"
     inkscape:groupmode="layer"
     id="layer1"
     transform="translate(-102.99317,-119.19651)">
    <g
       transform="matrix(0.10822473,0,0,0.10822473,101.09025,117.29354)"
       id="layer1-6"
       inkscape:groupmode="layer"
       inkscape:label="Layer 1">
      <g
         transform="matrix(0.58858828,0,0,0.58858828,9.3078648,19.573623)"
         id="g974">
        <g
           id="g1004"
           transform="matrix(0.96244181,0,0,0.96244181,1.7186116,-0.6319457)"
           style="stroke-width:2.05728;stroke-miterlimit:4;stroke-dasharray:none" />
        <path
           style="fill:#fec39a;fill-opacity:0.25098;stroke:#fec39a;stroke-width:1.98001;stroke-linecap:butt;stroke-linejoin:round;stroke-miterlimit:4;stroke-dasharray:none;stroke-opacity:1"
           d="m 29.380116,56.791621 0.19332,81.454029 2.919767,5.64214 10.282876,6.68105 57.382961,28.76407 7.22754,2.43356 7.15104,-1.92449 66.50136,-33.76513 3.94889,-3.72023 1.00713,-4.45957 0.0518,-81.177427 -0.81667,-5.665149 -1.95361,-3.736615 -2.57315,-3.035297 -64.78587,-32.121936 -4.29473,-1.607807 -3.8667,-0.8504165 -4.05502,0.9981605 -4.520134,1.546919 -2.995838,1.354665 -62.687156,31.251736 -2.979773,2.45745 -1.487241,4.091982 z"
           id="path1832" />
        <path
           style="fill:none;stroke:#fec39a;stroke-width:1.98001;stroke-linecap:butt;stroke-linejoin:round;stroke-miterlimit:4;stroke-dasharray:none;stroke-opacity:1"
           d="m 29.380116,56.791621 2.710868,1.94066 66.168035,32.999795 4.333851,1.410621 5.03054,0.696142 4.77501,-0.573296 4.65894,-1.348803 66.186,-33.217568 2.80336,-1.979549"
           id="path1687" />
        <path
           style="fill:none;stroke:#fec39a;stroke-width:1.98001;stroke-linecap:butt;stroke-linejoin:round;stroke-miterlimit:4;stroke-dasharray:none;stroke-opacity:1"
           d="m 29.420445,68.383058 2.733168,2.086633 66.055362,32.975239 4.222975,1.41167 4.91156,0.43951 5.21558,-0.23047 4.22766,-1.38851 66.40761,-33.342319 2.9828,-2.249999"
           id="path1818" />
        <path
           style="fill:none;stroke:#fec39a;stroke-width:1.98001;stroke-linecap:butt;stroke-linejoin:round;stroke-miterlimit:4;stroke-dasharray:none;stroke-opacity:1"
           d="m 29.370582,80.079251 2.829194,1.944236 66.119259,32.964643 4.174215,1.52003 5.08895,0.47976 4.95234,-0.37828 4.37517,-1.52472 66.26496,-33.147152 2.93481,-2.131992"
           id="path1820" />
        <path
           style="fill:none;stroke:#fec39a;stroke-width:1.98001;stroke-linecap:butt;stroke-linejoin:round;stroke-miterlimit:4;stroke-dasharray:none;stroke-opacity:1"
           d="m 29.503505,91.449119 2.56415,2.10474 66.222444,33.073011 4.230871,1.3707 5.23832,0.77953 4.89084,-0.67767 4.43013,-1.46004 65.99045,-33.125593 2.92148,-1.957564"
           id="path1822"
           sodipodi:nodetypes="ccccccccc" />
        <path
           style="fill:none;stroke:#fec39a;stroke-width:1.98001;stroke-linecap:butt;stroke-linejoin:round;stroke-miterlimit:4;stroke-dasharray:none;stroke-opacity:1"
           d="m 29.506946,103.22107 2.69426,2.01011 66.103309,33.02884 4.232605,1.35897 5.03384,0.5544 5.12293,-0.38553 4.3862,-1.4789 65.97244,-33.12714 3.06443,-2.12558"
           id="path1824"
           sodipodi:nodetypes="ccccccccc" />
        <path
           style="fill:none;stroke:#fec39a;stroke-width:1.98001;stroke-linecap:butt;stroke-linejoin:round;stroke-miterlimit:4;stroke-dasharray:none;stroke-opacity:1"
           d="m 29.621516,114.83804 2.447426,1.82909 66.017254,32.90696 4.472334,1.64115 4.91519,0.76924 5.40087,-0.659 3.76855,-1.25641 66.55847,-33.20089 2.61544,-2.06394"
           id="path1826"
           sodipodi:nodetypes="ccccccccc" />
        <path
           style="fill:none;stroke:#fec39a;stroke-width:1.98001;stroke-linecap:butt;stroke-linejoin:round;stroke-miterlimit:4;stroke-dasharray:none;stroke-opacity:1"
           d="m 185.96374,126.36566 -2.80245,2.08276 -66.18187,33.05187 -4.20054,1.33243 -5.05198,0.67092 -5.11401,-0.58004 -4.259828,-1.49746 -66.540508,-33.23724 -2.270332,-1.47755"
           id="path1828" />
        <path
           style="fill:none;stroke:#fec39a;stroke-width:1.98001;stroke-linecap:butt;stroke-linejoin:round;stroke-miterlimit:4;stroke-dasharray:none;stroke-opacity:1"
           d="m 29.573427,138.24565 2.91152,2.09934 9.020007,4.37149 56.765553,28.58738 4.251343,1.00069 5.02418,0.56524 5.20791,-0.259 4.01452,-1.48289 66.60785,-33.4413 2.61869,-1.78955"
           id="path1830" />
        <path
           style="fill:none;stroke:#fec39a;stroke-width:1.98001;stroke-linecap:butt;stroke-linejoin:round;stroke-miterlimit:4;stroke-dasharray:none;stroke-opacity:1"
           d="m 107.38658,181.76647 0.39217,-2.96253 -0.062,-92.833715"
           id="path5624" />
        <path
           style="fill:none;stroke:#fec39a;stroke-width:1.98001;stroke-linecap:butt;stroke-linejoin:round;stroke-miterlimit:4;stroke-dasharray:none;stroke-opacity:1"
           d="m 95.791762,13.782301 2.547923,0.621411 66.226525,33.056921 3.63882,2.634704 2.74195,4.01707 2.0508,4.555123 0.68036,4.86744 0.12056,80.71365 -0.77992,4.17315 -1.58429,2.54555"
           id="path5626"
           sodipodi:nodetypes="cccccccccc" />
        <path
           style="fill:none;stroke:#fec39a;stroke-width:1.98001;stroke-linecap:butt;stroke-linejoin:round;stroke-miterlimit:4;stroke-dasharray:none;stroke-opacity:1"
           d="m 107.75605,9.7024025 9.46898,4.7507645 56.67035,28.36741 3.59658,2.655815 3.02336,4.009606 1.95265,4.65782 0.77539,4.555354 0.13298,80.987428 -0.66137,4.8095"
           id="path5776"
           sodipodi:nodetypes="ccccccccc" />
        <path
           style="fill:none;stroke:#fec39a;stroke-width:1.98001;stroke-linecap:butt;stroke-linejoin:round;stroke-miterlimit:4;stroke-dasharray:none;stroke-opacity:1"
           d="m 86.316985,18.536598 2.326192,0.566703 66.309693,33.086766 3.64518,2.76442 3.09436,4.041989 1.91798,4.522109 0.68295,4.552893 0.0728,81.214352 -0.78886,4.10406 -1.40369,2.21743"
           id="path5927" />
        <path
           style="fill:none;stroke:#fec39a;stroke-width:1.98001;stroke-linecap:butt;stroke-linejoin:round;stroke-miterlimit:4;stroke-dasharray:none;stroke-opacity:1"
           d="m 76.932953,23.191394 2.318545,0.635012 66.317912,33.074911 3.51728,2.686929 2.9699,4.045558 1.92416,4.633574 0.83187,4.463868 -0.006,81.209824 -0.78157,4.08718 -1.32051,2.33604"
           id="path5929" />
        <path
           style="fill:none;stroke:#fec39a;stroke-width:1.98001;stroke-linecap:butt;stroke-linejoin:round;stroke-miterlimit:4;stroke-dasharray:none;stroke-opacity:1"
           d="m 67.558092,27.828631 2.274975,0.81703 66.058333,33.01514 3.59762,2.624586 3.20479,4.077644 1.98807,4.548714 0.72098,4.686481 -0.006,80.944614 -0.86218,4.24223 -1.27732,2.36312"
           id="path6100" />
        <path
           style="fill:none;stroke:#fec39a;stroke-width:1.98001;stroke-linecap:butt;stroke-linejoin:round;stroke-miterlimit:4;stroke-dasharray:none;stroke-opacity:1"
           d="m 58.114882,32.464436 2.416841,0.879206 66.100867,33.21174 3.59502,2.617159 2.84386,3.818736 2.06338,4.773205 0.74035,4.862858 0.0333,81.06831 -0.73268,3.71769 -1.47278,2.65705"
           id="path6102" />
        <path
           style="fill:none;stroke:#fec39a;stroke-width:1.98001;stroke-linecap:butt;stroke-linejoin:round;stroke-miterlimit:4;stroke-dasharray:none;stroke-opacity:1"
           d="m 48.465414,37.262107 2.601123,0.848241 65.931143,33.098699 3.75595,2.693557 3.02381,4.000529 1.88968,4.670971 0.62702,4.586297 0.0913,80.971059 -0.81283,4.18289 -1.392,2.57547"
           id="path6104" />
        <path
           style="fill:none;stroke:#fec39a;stroke-width:1.98001;stroke-linecap:butt;stroke-linejoin:round;stroke-miterlimit:4;stroke-dasharray:none;stroke-opacity:1"
           d="m 39.044562,42.021353 2.549715,0.833873 66.166023,33.017916 3.29915,2.646582 3.02666,3.877453 2.01351,4.716316 0.95774,4.803247 -0.28891,81.21116 -0.60546,3.7868 -1.62537,2.92728"
           id="path6106" />
        <path
           style="fill:none;stroke:#fec39a;stroke-width:1.98001;stroke-linecap:butt;stroke-linejoin:round;stroke-miterlimit:4;stroke-dasharray:none;stroke-opacity:1"
           d="m 30.518128,47.311333 77.198682,38.658892 72.79851,-36.484227 3.06516,-1.486756"
           id="path6112" />
        <path
           style="fill:none;stroke:#fec39a;stroke-width:1.98001;stroke-linecap:butt;stroke-linejoin:round;stroke-miterlimit:4;stroke-dasharray:none;stroke-opacity:1"
           d="m 107.75605,9.7024025 -9.416365,4.7013095 -56.745408,28.451514 -3.683447,2.576255 -3.137036,4.196403 -1.798925,4.566329 -0.883885,4.538068 0.393963,81.612709 1.688265,4.41498"
           id="path6146" />
        <path
           style="fill:none;stroke:#fec39a;stroke-width:1.98001;stroke-linecap:butt;stroke-linejoin:round;stroke-miterlimit:4;stroke-dasharray:none;stroke-opacity:1"
           d="m 119.24276,13.791815 -2.20654,0.636323 -66.129405,33.063554 -3.538064,2.64275 -3.141775,4.215272 -1.959401,4.537314 -0.688838,4.601672 -0.03404,81.15617 0.706991,3.87347 0.524406,2.0505"
           id="path6148" />
        <path
           style="fill:none;stroke:#fec39a;stroke-width:1.98001;stroke-linecap:butt;stroke-linejoin:round;stroke-miterlimit:4;stroke-dasharray:none;stroke-opacity:1"
           d="m 128.89305,18.546752 -2.52114,0.557364 -66.063759,33.13284 -3.535699,2.707653 -3.119208,3.98911 -1.815905,4.839359 -0.702319,4.309983 -0.103997,81.463409 0.61106,4.00008 1.023367,1.92172"
           id="path6182" />
        <path
           style="fill:none;stroke:#fec39a;stroke-width:1.98001;stroke-linecap:butt;stroke-linejoin:round;stroke-miterlimit:4;stroke-dasharray:none;stroke-opacity:1"
           d="m 138.19877,23.255377 -2.24502,0.628569 -66.07901,33.070849 -3.682627,2.674338 -2.91234,4.090878 -1.977725,4.648041 -0.7105,4.540139 -0.01821,81.420709 0.552893,3.7786 1.591571,2.41879"
           id="path6184" />
        <path
           style="fill:none;stroke:#fec39a;stroke-width:1.98001;stroke-linecap:butt;stroke-linejoin:round;stroke-miterlimit:4;stroke-dasharray:none;stroke-opacity:1"
           d="m 71.919156,165.06272 -1.224276,-2.3256 -0.759885,-3.93364 0.03766,-81.115278 0.726498,-4.806882 2.098444,-4.67597 3.141203,-3.925333 3.461458,-2.691982 65.921862,-32.864816 2.59149,-0.705307"
           id="path6186" />
        <path
           style="fill:none;stroke:#fec39a;stroke-width:1.98001;stroke-linecap:butt;stroke-linejoin:round;stroke-miterlimit:4;stroke-dasharray:none;stroke-opacity:1"
           d="m 157.1777,32.605592 -2.32896,0.785509 -66.052276,33.172579 -3.724204,2.690482 -2.816562,4.060752 -2.061643,4.562375 -0.62029,4.490457 0.03232,81.421534 0.538974,3.56165 1.520038,2.62539"
           id="path6188" />
        <path
           style="fill:none;stroke:#fec39a;stroke-width:1.98001;stroke-linecap:butt;stroke-linejoin:round;stroke-miterlimit:4;stroke-dasharray:none;stroke-opacity:1"
           d="m 91.109337,174.79203 -1.559175,-2.53706 -0.696008,-3.80953 0.139082,-81.4609 0.622663,-4.651753 1.833047,-4.602774 3.187462,-3.888378 3.706719,-2.768044 65.919643,-32.81592 2.59677,-0.928382"
           id="path6190" />
        <path
           style="fill:none;stroke:#fec39a;stroke-width:1.98001;stroke-linecap:butt;stroke-linejoin:round;stroke-miterlimit:4;stroke-dasharray:none;stroke-opacity:1"
           d="m 176.89997,42.386113 -3.00459,0.434464 -66.13508,33.052565 -3.65324,2.635459 -3.00194,4.268743 -2.185836,4.459836 -0.660256,4.494896 0.01154,81.571784 0.921162,3.98135 0.96736,2.0477"
           id="path6192" />
      </g>
    </g>
  </g>
</svg>
