<?xml version="1.0" encoding="UTF-8" standalone="no"?>
<!-- Created with Inkscape (http://www.inkscape.org/) -->

<svg
   width="11.906253mm"
   height="11.906253mm"
   viewBox="0 0 11.906253 11.906253"
   version="1.1"
   id="svg5"
   inkscape:version="1.1.2 (0a00cf5339, 2022-02-04)"
   sodipodi:docname="physics.svg"
   xmlns:inkscape="http://www.inkscape.org/namespaces/inkscape"
   xmlns:sodipodi="http://sodipodi.sourceforge.net/DTD/sodipodi-0.dtd"
   xmlns="http://www.w3.org/2000/svg"
   xmlns:svg="http://www.w3.org/2000/svg">
  <sodipodi:namedview
     id="namedview7"
     pagecolor="#ffffff"
     bordercolor="#666666"
     borderopacity="1.0"
     inkscape:pageshadow="2"
     inkscape:pageopacity="0.0"
     inkscape:pagecheckerboard="0"
     inkscape:document-units="mm"
     showgrid="false"
     inkscape:zoom="14.594612"
     inkscape:cx="26.619413"
     inkscape:cy="21.206456"
     inkscape:window-width="1466"
     inkscape:window-height="800"
     inkscape:window-x="70"
     inkscape:window-y="27"
     inkscape:window-maximized="1"
     inkscape:current-layer="layer1" />
  <defs
     id="defs2" />
  <g
     inkscape:label="Tavolo 1"
     inkscape:groupmode="layer"
     id="layer1"
     transform="translate(-102.99317,-119.19651)">
    <path
       fill-rule="evenodd"
       clip-rule="evenodd"
       d="m 109.51452,123.08284 c 0.007,0.0448 0.017,0.0888 0.0288,0.13201 l -0.38226,0.47857 0.52533,0.63911 0.54338,-0.28235 c 0.0402,0.02 0.0817,0.0381 0.12425,0.0541 0.0425,0.016 0.0856,0.0296 0.12898,0.041 l 0.22325,0.57016 0.81615,-0.13539 0.0271,-0.61175 c 0.0374,-0.0248 0.0738,-0.0516 0.10881,-0.0805 0.0351,-0.0288 0.0686,-0.0593 0.10017,-0.0913 l 0.60544,0.0918 0.29079,-0.77449 -0.51634,-0.32949 c -0.003,-0.0447 -0.009,-0.0895 -0.0153,-0.13424 -0.007,-0.0449 -0.0171,-0.089 -0.0289,-0.13235 l 0.38231,-0.47863 -0.52534,-0.63907 -0.54371,0.28251 c -0.0401,-0.0199 -0.0813,-0.0379 -0.12387,-0.0538 -0.0425,-0.016 -0.0855,-0.0297 -0.12888,-0.041 l -0.22342,-0.57056 -0.81613,0.13541 -0.0271,0.61214 c -0.0373,0.0248 -0.0737,0.0517 -0.10874,0.0805 -0.0351,0.0287 -0.0684,0.0591 -0.0999,0.0909 l -0.60582,-0.0918 -0.29079,0.77451 0.51639,0.32952 c 0.003,0.0448 0.009,0.0897 0.0153,0.1346 z m 1.48363,-0.75468 c -0.19137,-0.0718 -0.40654,-0.0361 -0.56446,0.0937 -0.15792,0.1298 -0.23459,0.33401 -0.20112,0.53565 0.0335,0.20168 0.17197,0.37016 0.36334,0.44202 0.19137,0.0718 0.40653,0.0362 0.56444,-0.0937 0.15792,-0.1298 0.23458,-0.33399 0.20113,-0.53565 -0.0335,-0.20166 -0.17197,-0.37016 -0.36333,-0.44201 z"
       fill="#c2ccde"
       fill-opacity="0.25"
       id="path824"
       style="fill:#ff9b4e;fill-opacity:0.25098041;stroke-width:0.169131" />
    <path
       fill-rule="evenodd"
       clip-rule="evenodd"
       d="m 110.4133,128.5305 c 9e-4,0.0773 0.007,0.15392 0.0184,0.22955 l -0.49723,0.38034 0.45041,0.89008 0.60058,-0.17528 c 0.0548,0.0537 0.11323,0.10442 0.1749,0.15161 0.0615,0.0471 0.12537,0.0902 0.19128,0.12892 l -0.0127,0.62538 0.97674,0.20281 0.2373,-0.57855 c 0.0761,-0.01 0.15203,-0.0234 0.22736,-0.0422 0.0753,-0.0187 0.14892,-0.042 0.22053,-0.0693 l 0.48091,0.39969 0.76755,-0.6372 -0.30445,-0.54636 c 0.0401,-0.0652 0.0762,-0.13319 0.10851,-0.20363 0.0323,-0.0706 0.0601,-0.14277 0.0834,-0.21592 l 0.61258,-0.12685 -0.0197,-0.99738 -0.61747,-0.10272 c -0.026,-0.0719 -0.0566,-0.1424 -0.0914,-0.21139 -0.0351,-0.0693 -0.0741,-0.13589 -0.11675,-0.19964 l 0.28301,-0.55849 -0.792,-0.60652 -0.46564,0.41904 c -0.0724,-0.0243 -0.14656,-0.0446 -0.22225,-0.0604 -0.0758,-0.0157 -0.15212,-0.0268 -0.22839,-0.0332 l -0.26035,-0.5698 -0.96799,0.24105 0.0372,0.62541 c -0.0643,0.0414 -0.12652,0.0869 -0.18609,0.13634 -0.0596,0.0494 -0.11555,0.10208 -0.16804,0.15757 l -0.60779,-0.15173 -0.41507,0.90712 0.51194,0.36057 c -0.009,0.0763 -0.0111,0.15342 -0.01,0.23103 z m 2.07561,-0.99795 c -0.2919,-0.0606 -0.59552,0.015 -0.82493,0.20545 -0.22939,0.19043 -0.35958,0.47496 -0.35372,0.77302 0.005,0.29809 0.14715,0.57728 0.38385,0.75855 0.23671,0.18126 0.54308,0.24487 0.83238,0.17283 0.2893,-0.072 0.53004,-0.27191 0.65409,-0.54301 0.12405,-0.27111 0.1179,-0.58395 -0.0168,-0.84997 -0.13462,-0.26601 -0.38303,-0.45626 -0.67495,-0.51687 z"
       fill="#c2ccde"
       fill-opacity="0.25"
       id="path826"
       style="fill:#ff9b4e;fill-opacity:0.25098041;stroke-width:0.169131" />
    <path
       fill-rule="evenodd"
       clip-rule="evenodd"
       d="m 108.96354,124.76093 c -0.129,-0.19404 -0.28008,-0.36705 -0.44823,-0.51714 l 0.1943,-0.9325 -1.56752,-0.58246 -0.46164,0.83291 c -0.22558,0.003 -0.45322,0.0362 -0.67787,0.099 -0.0408,0.0115 -0.0814,0.0238 -0.12137,0.0371 l -0.71079,-0.63485 -1.28817,1.0663 0.49217,0.81902 c -0.12945,0.23394 -0.22471,0.48844 -0.27996,0.7562 l -0.90872,0.29931 0.27934,1.64875 0.95959,-0.0168 c 0.13823,0.22926 0.31044,0.43758 0.51144,0.61716 l -0.19589,0.9401 1.56753,0.58246 0.46566,-0.84016 c 0.26933,-0.005 0.53563,-0.0502 0.78986,-0.13353 l 0.71615,0.63962 1.28817,-1.0663 -0.49316,-0.82068 c 0.13279,-0.23865 0.22673,-0.49329 0.28143,-0.75471 l 0.90824,-0.29915 -0.27934,-1.64875 -0.95334,0.0167 c -0.0217,-0.0363 -0.0443,-0.0721 -0.0679,-0.10752 z m -1.60607,1.0133 c -0.19295,-0.29025 -0.55088,-0.42323 -0.88654,-0.3294 -0.33566,0.0938 -0.57275,0.39311 -0.58725,0.74136 -0.0145,0.34822 0.1969,0.66618 0.52362,0.78758 0.3267,0.1214 0.69444,0.0186 0.91084,-0.2546 0.21642,-0.2732 0.23229,-0.65469 0.0393,-0.94494 z"
       fill="#c2ccde"
       fill-opacity="0.25"
       id="path828"
       style="fill:#ff9b4e;fill-opacity:0.25098041;stroke-width:0.169131" />
    <path
       fill-rule="evenodd"
       clip-rule="evenodd"
       d="m 109.51452,123.08284 c 0.007,0.0448 0.017,0.0888 0.0288,0.13201 l -0.38226,0.47857 0.52533,0.63911 0.54338,-0.28235 c 0.0402,0.02 0.0817,0.0381 0.12425,0.0541 0.0425,0.016 0.0856,0.0296 0.12898,0.041 l 0.22325,0.57016 0.81615,-0.13539 0.0271,-0.61175 c 0.0374,-0.0248 0.0738,-0.0516 0.10881,-0.0805 0.0351,-0.0288 0.0686,-0.0593 0.10017,-0.0913 l 0.60544,0.0918 0.29079,-0.77449 -0.51634,-0.32949 c -0.003,-0.0447 -0.009,-0.0895 -0.0153,-0.13424 -0.007,-0.0449 -0.0171,-0.089 -0.0289,-0.13235 l 0.38231,-0.47863 -0.52534,-0.63907 -0.54371,0.28251 c -0.0401,-0.0199 -0.0813,-0.0379 -0.12387,-0.0538 -0.0425,-0.016 -0.0855,-0.0297 -0.12888,-0.041 l -0.22342,-0.57056 -0.81613,0.13541 -0.0271,0.61214 c -0.0373,0.0248 -0.0737,0.0517 -0.10874,0.0805 -0.0351,0.0287 -0.0684,0.0591 -0.0999,0.0909 l -0.60582,-0.0918 -0.29079,0.77451 0.51639,0.32952 c 0.003,0.0448 0.009,0.0897 0.0153,0.1346 z m 1.48363,-0.75468 c -0.19137,-0.0718 -0.40654,-0.0361 -0.56446,0.0937 -0.15792,0.1298 -0.23459,0.33401 -0.20112,0.53565 0.0335,0.20168 0.17197,0.37016 0.36334,0.44202 0.19137,0.0718 0.40653,0.0362 0.56444,-0.0937 0.15792,-0.1298 0.23458,-0.33399 0.20113,-0.53565 -0.0335,-0.20166 -0.17197,-0.37016 -0.36333,-0.44201 z"
       stroke="#c2ccde"
       stroke-linecap="round"
       stroke-linejoin="round"
       id="path830"
       style="fill:none;stroke:#ff9b4e;stroke-width:0.281344;stroke-miterlimit:4;stroke-dasharray:none;stroke-opacity:1" />
    <path
       fill-rule="evenodd"
       clip-rule="evenodd"
       d="m 110.4133,128.5305 c 9e-4,0.0773 0.007,0.15392 0.0184,0.22955 l -0.49723,0.38034 0.45041,0.89008 0.60058,-0.17528 c 0.0548,0.0537 0.11323,0.10442 0.1749,0.15161 0.0615,0.0471 0.12537,0.0902 0.19128,0.12892 l -0.0127,0.62538 0.97674,0.20281 0.2373,-0.57855 c 0.0761,-0.01 0.15203,-0.0234 0.22736,-0.0422 0.0753,-0.0187 0.14892,-0.042 0.22053,-0.0693 l 0.48091,0.39969 0.76755,-0.6372 -0.30445,-0.54636 c 0.0401,-0.0652 0.0762,-0.13319 0.10851,-0.20363 0.0323,-0.0706 0.0601,-0.14277 0.0834,-0.21592 l 0.61258,-0.12685 -0.0197,-0.99738 -0.61747,-0.10272 c -0.026,-0.0719 -0.0566,-0.1424 -0.0914,-0.21139 -0.0351,-0.0693 -0.0741,-0.13589 -0.11675,-0.19964 l 0.28301,-0.55849 -0.792,-0.60652 -0.46564,0.41904 c -0.0724,-0.0243 -0.14656,-0.0446 -0.22225,-0.0604 -0.0758,-0.0157 -0.15212,-0.0268 -0.22839,-0.0332 l -0.26035,-0.5698 -0.96799,0.24105 0.0372,0.62541 c -0.0643,0.0414 -0.12652,0.0869 -0.18609,0.13634 -0.0596,0.0494 -0.11555,0.10208 -0.16804,0.15757 l -0.60779,-0.15173 -0.41507,0.90712 0.51194,0.36057 c -0.009,0.0763 -0.0111,0.15342 -0.01,0.23103 z m 2.07561,-0.99795 c -0.2919,-0.0606 -0.59552,0.015 -0.82493,0.20545 -0.22939,0.19043 -0.35958,0.47496 -0.35372,0.77302 0.005,0.29809 0.14715,0.57728 0.38385,0.75855 0.23671,0.18126 0.54308,0.24487 0.83238,0.17283 0.2893,-0.072 0.53004,-0.27191 0.65409,-0.54301 0.12405,-0.27111 0.1179,-0.58395 -0.0168,-0.84997 -0.13462,-0.26601 -0.38303,-0.45626 -0.67495,-0.51687 z"
       stroke="#c2ccde"
       stroke-linecap="round"
       stroke-linejoin="round"
       id="path832"
       style="fill:none;stroke:#ff9b4e;stroke-width:0.281344;stroke-miterlimit:4;stroke-dasharray:none;stroke-opacity:1" />
    <path
       fill-rule="evenodd"
       clip-rule="evenodd"
       d="m 108.96354,124.76093 c -0.129,-0.19404 -0.28008,-0.36705 -0.44823,-0.51714 l 0.1943,-0.9325 -1.56752,-0.58246 -0.46164,0.83291 c -0.22558,0.003 -0.45322,0.0362 -0.67787,0.099 -0.0408,0.0115 -0.0814,0.0238 -0.12137,0.0371 l -0.71079,-0.63485 -1.28817,1.0663 0.49217,0.81902 c -0.12945,0.23394 -0.22471,0.48844 -0.27996,0.7562 l -0.90872,0.29931 0.27934,1.64875 0.95959,-0.0168 c 0.13823,0.22926 0.31044,0.43758 0.51144,0.61716 l -0.19589,0.9401 1.56753,0.58246 0.46566,-0.84016 c 0.26933,-0.005 0.53563,-0.0502 0.78986,-0.13353 l 0.71615,0.63962 1.28817,-1.0663 -0.49316,-0.82068 c 0.13279,-0.23865 0.22673,-0.49329 0.28143,-0.75471 l 0.90824,-0.29915 -0.27934,-1.64875 -0.95334,0.0167 c -0.0217,-0.0363 -0.0443,-0.0721 -0.0679,-0.10752 z m -1.60607,1.0133 c -0.19295,-0.29025 -0.55088,-0.42323 -0.88654,-0.3294 -0.33566,0.0938 -0.57275,0.39311 -0.58725,0.74136 -0.0145,0.34822 0.1969,0.66618 0.52362,0.78758 0.3267,0.1214 0.69444,0.0186 0.91084,-0.2546 0.21642,-0.2732 0.23229,-0.65469 0.0393,-0.94494 z"
       stroke="#c2ccde"
       stroke-linecap="round"
       stroke-linejoin="round"
       id="path834"
       style="fill:none;stroke:#ff9b4e;stroke-width:0.281344;stroke-miterlimit:4;stroke-dasharray:none;stroke-opacity:1" />
  </g>
</svg>
