<?xml version="1.0" encoding="UTF-8" standalone="no"?>
<svg
   id="svg1023"
   version="1.1"
   viewBox="0 0 190.5 190.50001"
   height="190.5mm"
   width="190.5mm"
   sodipodi:docname="favicon.svg"
   inkscape:version="1.2.2 (b0a8486541, 2022-12-01)"
   inkscape:export-filename="/home/viburno/Dokumentujo/Servilo/html/img/logotipoj/logo_mini.png"
   inkscape:export-xdpi="95"
   inkscape:export-ydpi="95"
   xml:space="preserve"
   xmlns:inkscape="http://www.inkscape.org/namespaces/inkscape"
   xmlns:sodipodi="http://sodipodi.sourceforge.net/DTD/sodipodi-0.dtd"
   xmlns="http://www.w3.org/2000/svg"
   xmlns:svg="http://www.w3.org/2000/svg"
   xmlns:rdf="http://www.w3.org/1999/02/22-rdf-syntax-ns#"
   xmlns:cc="http://creativecommons.org/ns#"
   xmlns:dc="http://purl.org/dc/elements/1.1/"><sodipodi:namedview
     pagecolor="#ffffff"
     bordercolor="#666666"
     borderopacity="1"
     objecttolerance="10"
     gridtolerance="10"
     guidetolerance="10"
     inkscape:pageopacity="0"
     inkscape:pageshadow="2"
     inkscape:window-width="1920"
     inkscape:window-height="1033"
     id="namedview10"
     showgrid="false"
     inkscape:zoom="0.71316116"
     inkscape:cx="281.84373"
     inkscape:cy="504.79474"
     inkscape:window-x="0"
     inkscape:window-y="27"
     inkscape:window-maximized="1"
     inkscape:current-layer="layer1"
     inkscape:showpageshadow="2"
     inkscape:pagecheckerboard="0"
     inkscape:deskcolor="#d1d1d1"
     inkscape:document-units="mm" /><defs
     id="defs1017" /><metadata
     id="metadata1020"><rdf:RDF><cc:Work
         rdf:about=""><dc:format>image/svg+xml</dc:format><dc:type
           rdf:resource="http://purl.org/dc/dcmitype/StillImage" /><dc:title /></cc:Work></rdf:RDF></metadata><g
     transform="translate(-8.1126518,13.462307)"
     id="layer1"
     style="stroke:#000000;stroke-opacity:1"><rect
       style="fill:#000000;fill-opacity:1;stroke:none;stroke-width:34.0244;stroke-linecap:round;stroke-linejoin:round;stroke-dasharray:none;stroke-opacity:1"
       id="rect1162"
       width="190.5"
       height="190.5"
       x="8.1126518"
       y="-13.462307"
       ry="48.350826" /><path
       style="fill:#ffffff;fill-opacity:1;stroke:#ffffff;stroke-width:10.3715;stroke-dasharray:none;stroke-opacity:1"
       d="m 46.235352,150.21203 c -1.097675,-0.42791 -5.052198,-4.46549 -8.071558,-8.24113 -4.954873,-6.1959 -11.520705,-17.09434 -11.520705,-19.12285 0,-2.28503 1.983375,-4.27878 4.270898,-4.29319 2.1798,-0.0137 3.020647,0.77642 5.52536,5.19231 3.528816,6.22143 7.791581,12.23955 11.42726,16.13286 1.839524,1.96988 3.584211,4.03302 3.877084,4.58477 0.713206,1.34359 0.255421,3.53333 -0.981638,4.69549 -1.015833,0.95433 -3.372195,1.50182 -4.526701,1.05174 z"
       id="path358"
       sodipodi:nodetypes="ssscsssss" /><path
       d="M 68.584457,106.69801 C 55.926321,103.29645 47.961892,90.164043 50.709559,77.224386 54.313618,60.251711 74.872864,51.823533 88.89006,61.572439 97.274171,67.403557 101.42347,76.628864 99.947951,86.157936 97.66197,100.92104 82.947397,110.55766 68.584457,106.69801 Z"
       style="fill:#ffffff;fill-opacity:1;stroke:#ffffff;stroke-width:0.560359;stroke-opacity:1"
       id="path417" /><path
       d="m 123.37501,106.86841 c -8.46966,-2.27761 -14.71862,-8.209896 -17.58459,-16.693413 -0.98843,-2.925867 -1.16745,-4.549681 -0.99146,-8.993547 0.19353,-4.886618 0.42058,-5.839435 2.29556,-9.633184 6.15963,-12.46316 20.91507,-17.670008 33.42898,-11.796294 13.3781,6.279344 18.39855,22.826863 10.83912,35.726044 -1.79246,3.0586 -6.81649,7.841854 -9.876,9.402714 -5.47938,2.79536 -12.31744,3.54581 -18.11161,1.98768 z"
       style="fill:#ffffff;fill-opacity:1;stroke:#ffffff;stroke-width:0.56418;stroke-opacity:1"
       id="path440" /><path
       d="m 175.89746,117.22548 -1.34764,-1.34763 V 81.92076 47.96367 l 1.34764,-1.34764 c 2.16713,-2.16712 6.086,-1.53817 7.32229,1.175171 0.41076,0.901501 0.55079,9.654896 0.55079,34.427873 v 33.219016 l -1.56753,1.56752 c -2.08953,2.08953 -4.35682,2.1686 -6.30555,0.21987 z"
       style="fill:#ffffff;fill-opacity:1;stroke:#ffffff;stroke-width:11.2267;stroke-linecap:round;stroke-linejoin:round;stroke-dasharray:none;stroke-opacity:1"
       id="path463" /><path
       d="M 22.989451,61.717985 C 21.232795,59.961328 21.353466,58.18924 23.605034,52.678062 28.888255,39.746279 36.764972,27.893215 46.643828,18.008763 55.240416,9.407303 66.787689,1.6226386 70.043848,2.2334969 c 2.775648,0.5207139 4.355534,3.6366316 3.087357,6.0890135 -0.441343,0.8534577 -1.823322,1.9275076 -4.194152,3.2596126 -15.847277,8.904165 -30.262344,26.473671 -38.235335,46.602341 -1.554348,3.924116 -2.417163,4.778514 -4.825606,4.778514 -1.246582,0 -1.941289,-0.29962 -2.886661,-1.244993 z"
       style="fill:#ffffff;fill-opacity:1;stroke:#ffffff;stroke-width:10.3715;stroke-dasharray:none;stroke-opacity:1"
       id="path486" /></g></svg>
