<?xml version="1.0" encoding="UTF-8" standalone="no"?>
<!-- Created with Inkscape (http://www.inkscape.org/) -->

<svg
   xmlns:dc="http://purl.org/dc/elements/1.1/"
   xmlns:cc="http://creativecommons.org/ns#"
   xmlns:rdf="http://www.w3.org/1999/02/22-rdf-syntax-ns#"
   xmlns:svg="http://www.w3.org/2000/svg"
   xmlns="http://www.w3.org/2000/svg"
   xmlns:sodipodi="http://sodipodi.sourceforge.net/DTD/sodipodi-0.dtd"
   xmlns:inkscape="http://www.inkscape.org/namespaces/inkscape"
   width="18.842442mm"
   height="18.842442mm"
   viewBox="0 0 18.842442 18.842442"
   version="1.1"
   id="svg8"
   inkscape:version="0.92.5 (2060ec1f9f, 2020-04-08)"
   sodipodi:docname="favicon.svg">
  <defs
     id="defs2" />
  <sodipodi:namedview
     id="base"
     pagecolor="#ffffff"
     bordercolor="#666666"
     borderopacity="1.0"
     inkscape:pageopacity="0.0"
     inkscape:pageshadow="2"
     inkscape:zoom="3.3981351"
     inkscape:cx="32.999799"
     inkscape:cy="36.670787"
     inkscape:document-units="mm"
     inkscape:current-layer="layer1"
     showgrid="false"
     inkscape:window-width="1366"
     inkscape:window-height="711"
     inkscape:window-x="0"
     inkscape:window-y="0"
     inkscape:window-maximized="1" />
  <metadata
     id="metadata5">
    <rdf:RDF>
      <cc:Work
         rdf:about="">
        <dc:format>image/svg+xml</dc:format>
        <dc:type
           rdf:resource="http://purl.org/dc/dcmitype/StillImage" />
        <dc:title></dc:title>
      </cc:Work>
    </rdf:RDF>
  </metadata>
  <g
     inkscape:label="Tavolo 1"
     inkscape:groupmode="layer"
     id="layer1"
     transform="translate(-24.137012,-147.50624)">
    <rect
       style="fill:#000000;fill-opacity:1;stroke:none;stroke-width:14.23529434;stroke-linecap:round;stroke-linejoin:miter;stroke-miterlimit:4;stroke-dasharray:none;stroke-opacity:1;paint-order:normal"
       id="rect829"
       width="18.842442"
       height="18.842442"
       x="24.137012"
       y="147.50624"
       ry="4.0640631" />
    <g
       aria-label="火"
       style="font-style:normal;font-weight:normal;font-size:10.58333302px;line-height:1.25;font-family:sans-serif;letter-spacing:0px;word-spacing:0px;fill:#ffffff;fill-opacity:1;stroke:none;stroke-width:0.26458332"
       id="text817">
      <path
         d="m 33.969205,154.61772 h -1.354667 v 3.302 c 0,1.57692 -0.963083,4.13809 -4.148666,5.35517 0.275166,0.254 0.719666,0.79375 0.889,1.0795 2.487083,-1.06892 3.651249,-3.12208 3.926416,-4.20158 0.296333,1.04775 1.566333,3.16441 4.09575,4.20158 0.1905,-0.37042 0.592667,-0.91017 0.878417,-1.18533 -3.291417,-1.21709 -4.28625,-3.65125 -4.28625,-5.25992 z m 2.44475,1.93675 c -0.328084,0.93134 -0.910167,2.13784 -1.418167,2.93159 l 1.100667,0.46566 c 0.529166,-0.71966 1.164166,-1.85208 1.703916,-2.87866 z m -6.466417,0.0106 c -0.148166,1.19591 -0.497416,2.24366 -1.27,2.89983 l 1.143,0.70908 c 0.910167,-0.75141 1.217083,-2.01083 1.397,-3.33375 z"
         style="font-style:normal;font-variant:normal;font-weight:bold;font-stretch:normal;font-family:sans-serif;-inkscape-font-specification:'sans-serif Bold';fill:#ffffff;fill-opacity:1;stroke-width:0.26458332"
         id="path853" />
    </g>
    <g
       aria-label="の"
       style="font-style:normal;font-weight:normal;font-size:14.84543514px;line-height:1.25;font-family:sans-serif;letter-spacing:0px;word-spacing:0px;fill:#ffffff;fill-opacity:1;stroke:none;stroke-width:0.37113589"
       id="text825">
      <path
         d="m 39.951648,154.84656 c 0,-3.01362 -2.21197,-5.46312 -5.685802,-5.46312 -3.622286,0 -6.487455,2.82064 -6.487455,6.04209 0,2.4495 1.321244,3.96374 2.642487,3.96374 1.380626,0 2.553415,-1.55877 3.458987,-4.61693 0.415672,-1.38063 0.697735,-2.89486 0.890726,-4.27549 2.523724,0.20784 3.963731,2.06352 3.963731,4.30518 0,2.56826 -1.870525,3.97857 -3.770741,4.40909 -0.341445,0.0742 -0.801653,0.14846 -1.276707,0.19299 l 0.697735,1.09856 c 3.518369,-0.4602 5.567039,-2.53857 5.567039,-5.65611 z m -11.015313,0.47506 c 0,-2.01898 1.751761,-4.45363 4.602085,-4.80992 -0.1633,1.36578 -0.460209,2.77609 -0.831345,4.00826 -0.757117,2.50888 -1.543925,3.50353 -2.24166,3.50353 -0.668045,0 -1.52908,-0.83135 -1.52908,-2.70187 z"
         style="fill:#ffffff;fill-opacity:1;stroke-width:0.37113589"
         id="path850" />
    </g>
  </g>
</svg>
