<?xml version="1.0" encoding="UTF-8" standalone="no"?>
<svg
   xmlns:dc="http://purl.org/dc/elements/1.1/"
   xmlns:cc="http://creativecommons.org/ns#"
   xmlns:rdf="http://www.w3.org/1999/02/22-rdf-syntax-ns#"
   xmlns:svg="http://www.w3.org/2000/svg"
   xmlns="http://www.w3.org/2000/svg"
   xmlns:sodipodi="http://sodipodi.sourceforge.net/DTD/sodipodi-0.dtd"
   xmlns:inkscape="http://www.inkscape.org/namespaces/inkscape"
   id="svg1023"
   version="1.1"
   viewBox="0 0 268.36303 95.288336"
   height="95.288338mm"
   width="268.36304mm"
   sodipodi:docname="logo.svg"
   inkscape:version="0.92.5 (2060ec1f9f, 2020-04-08)">
  <sodipodi:namedview
     pagecolor="#ffffff"
     bordercolor="#666666"
     borderopacity="1"
     objecttolerance="10"
     gridtolerance="10"
     guidetolerance="10"
     inkscape:pageopacity="0"
     inkscape:pageshadow="2"
     inkscape:window-width="1366"
     inkscape:window-height="705"
     id="namedview10"
     showgrid="false"
     inkscape:zoom="0.57723819"
     inkscape:cx="457.24429"
     inkscape:cy="168.30207"
     inkscape:window-x="0"
     inkscape:window-y="0"
     inkscape:window-maximized="1"
     inkscape:current-layer="g855" />
  <defs
     id="defs1017" />
  <metadata
     id="metadata1020">
    <rdf:RDF>
      <cc:Work
         rdf:about="">
        <dc:format>image/svg+xml</dc:format>
        <dc:type
           rdf:resource="http://purl.org/dc/dcmitype/StillImage" />
        <dc:title />
      </cc:Work>
    </rdf:RDF>
  </metadata>
  <g
     transform="translate(0.05574464,-109.49065)"
     id="layer1"
     style="stroke:#000000;stroke-opacity:1">
    <g
       id="g855"
       transform="matrix(1.5138035,0,0,1.5138035,-390.06923,-56.544074)"
       style="fill:#483737;fill-opacity:1">
      <path
         inkscape:connector-curvature="0"
         id="path817-36"
         d="m 422.93072,153.53674 c 5.79663,-5.79663 7.53622,-14.54232 4.3991,-22.11599 -3.13711,-7.57366 -10.55133,-12.52821 -18.749,-12.52821 -8.19768,0 -15.6119,4.95455 -18.749,12.52821 -3.13712,7.57367 -1.39671,16.31853 4.39992,22.11517 l 5.06905,-5.06904 c -3.76097,-3.76096 -4.88098,-9.38977 -2.84556,-14.30369 2.03541,-4.91394 6.80679,-8.10106 12.12559,-8.10106 5.31879,0 10.09018,3.18712 12.12559,8.10106 2.03543,4.91392 0.91623,10.54356 -2.84473,14.30451 z"
         style="color:#000000;font-style:normal;font-variant:normal;font-weight:normal;font-stretch:normal;font-size:medium;line-height:normal;font-family:sans-serif;font-variant-ligatures:normal;font-variant-position:normal;font-variant-caps:normal;font-variant-numeric:normal;font-variant-alternates:normal;font-feature-settings:normal;text-indent:0;text-align:start;text-decoration:none;text-decoration-line:none;text-decoration-style:solid;text-decoration-color:#000000;letter-spacing:normal;word-spacing:normal;text-transform:none;writing-mode:lr-tb;direction:ltr;text-orientation:mixed;dominant-baseline:auto;baseline-shift:baseline;text-anchor:start;white-space:normal;shape-padding:0;clip-rule:nonzero;display:inline;overflow:visible;visibility:visible;opacity:1;isolation:auto;mix-blend-mode:normal;color-interpolation:sRGB;color-interpolation-filters:linearRGB;solid-color:#000000;solid-opacity:1;vector-effect:none;fill:#483737;fill-opacity:1;fill-rule:nonzero;stroke:none;stroke-width:7.1687026;stroke-linecap:butt;stroke-linejoin:miter;stroke-miterlimit:4;stroke-dasharray:none;stroke-dashoffset:0;stroke-opacity:1;color-rendering:auto;image-rendering:auto;shape-rendering:auto;text-rendering:auto;enable-background:accumulate" />
      <path
         inkscape:connector-curvature="0"
         id="path817-3-0"
         d="m 400.9925,151.88633 c 0,3.75048 -2.97602,6.7265 -6.7265,6.7265 v 5.97391 c 6.97903,0 12.70041,-5.72138 12.70041,-12.70041 z"
         style="color:#000000;font-style:normal;font-variant:normal;font-weight:normal;font-stretch:normal;font-size:medium;line-height:normal;font-family:sans-serif;font-variant-ligatures:normal;font-variant-position:normal;font-variant-caps:normal;font-variant-numeric:normal;font-variant-alternates:normal;font-feature-settings:normal;text-indent:0;text-align:start;text-decoration:none;text-decoration-line:none;text-decoration-style:solid;text-decoration-color:#000000;letter-spacing:normal;word-spacing:normal;text-transform:none;writing-mode:lr-tb;direction:ltr;text-orientation:mixed;dominant-baseline:auto;baseline-shift:baseline;text-anchor:start;white-space:normal;shape-padding:0;clip-rule:nonzero;display:inline;overflow:visible;visibility:visible;opacity:1;isolation:auto;mix-blend-mode:normal;color-interpolation:sRGB;color-interpolation-filters:linearRGB;solid-color:#000000;solid-opacity:1;vector-effect:none;fill:#483737;fill-opacity:1;fill-rule:nonzero;stroke:none;stroke-width:5.97391891;stroke-linecap:butt;stroke-linejoin:miter;stroke-miterlimit:4;stroke-dasharray:none;stroke-dashoffset:0;stroke-opacity:1;color-rendering:auto;image-rendering:auto;shape-rendering:auto;text-rendering:auto;enable-background:accumulate" />
      <path
         inkscape:connector-curvature="0"
         id="path817-3-7-6"
         d="m 416.09764,151.88633 c 0,3.75048 2.97601,6.7265 6.72649,6.7265 v 5.97391 c -6.97903,0 -12.70041,-5.72138 -12.70041,-12.70041 z"
         style="color:#000000;font-style:normal;font-variant:normal;font-weight:normal;font-stretch:normal;font-size:medium;line-height:normal;font-family:sans-serif;font-variant-ligatures:normal;font-variant-position:normal;font-variant-caps:normal;font-variant-numeric:normal;font-variant-alternates:normal;font-feature-settings:normal;text-indent:0;text-align:start;text-decoration:none;text-decoration-line:none;text-decoration-style:solid;text-decoration-color:#000000;letter-spacing:normal;word-spacing:normal;text-transform:none;writing-mode:lr-tb;direction:ltr;text-orientation:mixed;dominant-baseline:auto;baseline-shift:baseline;text-anchor:start;white-space:normal;shape-padding:0;clip-rule:nonzero;display:inline;overflow:visible;visibility:visible;opacity:1;isolation:auto;mix-blend-mode:normal;color-interpolation:sRGB;color-interpolation-filters:linearRGB;solid-color:#000000;solid-opacity:1;vector-effect:none;fill:#483737;fill-opacity:1;fill-rule:nonzero;stroke:none;stroke-width:5.97391891;stroke-linecap:butt;stroke-linejoin:miter;stroke-miterlimit:4;stroke-dasharray:none;stroke-dashoffset:0;stroke-opacity:1;color-rendering:auto;image-rendering:auto;shape-rendering:auto;text-rendering:auto;enable-background:accumulate" />
      <path
         inkscape:connector-curvature="0"
         style="fill:#009600;fill-opacity:1;stroke:none;stroke-width:6.37484694;stroke-linecap:butt;stroke-linejoin:miter;stroke-miterlimit:4;stroke-dasharray:none;stroke-opacity:1"
         id="path885-2"
         d="m 408.67125,128.41834 2.34421,7.40489 7.76687,-0.0588 -6.31806,4.51771 2.45597,7.36858 -6.24899,-4.61278 -6.249,4.61278 2.45598,-7.36858 -6.31807,-4.51771 7.76688,0.0588 z" />
    </g>
    <g
       aria-label="Koncepto "
       transform="matrix(1.0688167,0,0,1.0442237,-187.80069,30.434673)"
       style="font-style:normal;font-weight:normal;font-size:38.58969879px;line-height:1.25;font-family:sans-serif;letter-spacing:0px;word-spacing:0px;fill:#483737;fill-opacity:1;stroke:none;stroke-width:0.96474254"
       id="text827">
      <path
         d="m 199.41649,114.79897 q -0.81038,-1.31205 -1.92948,-2.81704 -1.08052,-1.54359 -2.39257,-3.04859 -1.27346,-1.54359 -2.66269,-2.93282 -1.38922,-1.42782 -2.77845,-2.50833 v 11.30678 h -6.02 V 88.056312 h 6.02 v 10.110501 q 2.35397,-2.469741 4.70794,-5.13243 2.39256,-2.701279 4.43781,-4.978071 h 7.1391 q -2.73987,3.241535 -5.51833,6.251531 -2.73987,3.009997 -5.78845,6.058587 3.20294,2.66268 6.17435,6.32871 3.01,3.66602 5.74986,8.10383 z"
         style="font-style:normal;font-variant:normal;font-weight:bold;font-stretch:normal;font-family:Ubuntu;-inkscape-font-specification:'Ubuntu Bold';fill:#483737;fill-opacity:1;stroke-width:0.96474254"
         id="path891"
         inkscape:connector-curvature="0" />
      <path
         d="m 227.0852,104.61129 q 0,2.39256 -0.69462,4.39923 -0.69461,1.96807 -2.00666,3.39589 -1.31205,1.38923 -3.16436,2.16102 -1.81371,0.7718 -4.09051,0.7718 -2.2382,0 -4.0905,-0.7718 -1.81372,-0.77179 -3.12577,-2.16102 -1.31205,-1.42782 -2.04525,-3.39589 -0.73321,-2.00667 -0.73321,-4.39923 0,-2.39256 0.73321,-4.36063 0.77179,-1.968078 2.08384,-3.357307 1.35064,-1.389229 3.16435,-2.161023 1.85231,-0.771794 4.01333,-0.771794 2.19962,0 4.01333,0.771794 1.85231,0.771794 3.16436,2.161023 1.31205,1.389229 2.04525,3.357307 0.73321,1.96807 0.73321,4.36063 z m -5.86564,0 q 0,-2.66269 -1.08051,-4.16768 -1.04192,-1.543593 -3.01,-1.543593 -1.96807,0 -3.04858,1.543593 -1.08051,1.50499 -1.08051,4.16768 0,2.66269 1.08051,4.24487 1.08051,1.54359 3.04858,1.54359 1.96808,0 3.01,-1.54359 1.08051,-1.58218 1.08051,-4.24487 z"
         style="font-style:normal;font-variant:normal;font-weight:bold;font-stretch:normal;font-family:Ubuntu;-inkscape-font-specification:'Ubuntu Bold';fill:#483737;fill-opacity:1;stroke-width:0.96474254"
         id="path893"
         inkscape:connector-curvature="0" />
      <path
         d="m 231.52295,95.195406 q 1.46641,-0.424487 3.78179,-0.771794 2.31538,-0.385897 4.8623,-0.385897 2.58551,0 4.28346,0.694615 1.73653,0.656025 2.73987,1.890895 1.00333,1.23487 1.42782,2.932817 0.42448,1.697948 0.42448,3.781788 v 11.46114 h -5.74986 v -10.76652 q 0,-2.77846 -0.73321,-3.93615 -0.7332,-1.157693 -2.73987,-1.157693 -0.61743,0 -1.31205,0.07718 -0.69461,0.03859 -1.23487,0.115769 v 15.667414 h -5.74986 z"
         style="font-style:normal;font-variant:normal;font-weight:bold;font-stretch:normal;font-family:Ubuntu;-inkscape-font-specification:'Ubuntu Bold';fill:#483737;fill-opacity:1;stroke-width:0.96474254"
         id="path895"
         inkscape:connector-curvature="0" />
      <path
         d="m 253.28749,104.64988 q 0,-2.19961 0.69462,-4.1291 0.7332,-1.96807 2.08384,-3.395889 1.35064,-1.466409 3.28013,-2.315382 1.92948,-0.848973 4.39922,-0.848973 1.62077,0 2.97141,0.308717 1.35064,0.270128 2.6241,0.810384 l -1.19628,4.592174 q -0.81039,-0.308717 -1.77513,-0.540256 -0.96474,-0.231538 -2.16102,-0.231538 -2.54692,0 -3.82038,1.582173 -1.23487,1.58218 -1.23487,4.16769 0,2.73987 1.15769,4.24487 1.19628,1.505 4.1291,1.505 1.04192,0 2.2382,-0.19295 1.19628,-0.19295 2.19961,-0.61744 l 0.81039,4.70795 q -1.00334,0.42448 -2.50834,0.7332 -1.50499,0.30872 -3.31871,0.30872 -2.77846,0 -4.78512,-0.81038 -2.00667,-0.84898 -3.31872,-2.2768 -1.27346,-1.42782 -1.89089,-3.3573 -0.57885,-1.96808 -0.57885,-4.24487 z"
         style="font-style:normal;font-variant:normal;font-weight:bold;font-stretch:normal;font-family:Ubuntu;-inkscape-font-specification:'Ubuntu Bold';fill:#483737;fill-opacity:1;stroke-width:0.96474254"
         id="path897"
         inkscape:connector-curvature="0" />
      <path
         d="m 271.61747,104.80424 q 0,-2.70128 0.81039,-4.70794 0.84897,-2.045256 2.19961,-3.395896 1.35064,-1.350639 3.08717,-2.045254 1.77513,-0.694614 3.62744,-0.694614 4.32204,0 6.83037,2.662689 2.50833,2.624099 2.50833,7.756525 0,0.50167 -0.0386,1.11911 -0.0386,0.57884 -0.0772,1.04192 H 277.5217 q 0.19294,1.77512 1.65935,2.81705 1.46641,1.04192 3.93615,1.04192 1.58218,0 3.08718,-0.27013 1.54359,-0.30872 2.50833,-0.7332 l 0.77179,4.66935 q -0.46307,0.23154 -1.23487,0.46308 -0.77179,0.23153 -1.73653,0.38589 -0.92616,0.19295 -2.00667,0.30872 -1.08051,0.11577 -2.16102,0.11577 -2.73987,0 -4.78512,-0.81038 -2.00667,-0.81039 -3.35731,-2.19962 -1.31205,-1.42782 -1.96807,-3.3573 -0.61744,-1.92949 -0.61744,-4.16769 z m 13.5064,-2.19961 q -0.0386,-0.73321 -0.27013,-1.42782 -0.19295,-0.69462 -0.65603,-1.234871 -0.42448,-0.540256 -1.1191,-0.887563 -0.65602,-0.347307 -1.65935,-0.347307 -0.96475,0 -1.65936,0.347307 -0.69462,0.308718 -1.15769,0.848973 -0.46308,0.540261 -0.73321,1.273461 -0.23153,0.69461 -0.3473,1.42782 z"
         style="font-style:normal;font-variant:normal;font-weight:bold;font-stretch:normal;font-family:Ubuntu;-inkscape-font-specification:'Ubuntu Bold';fill:#483737;fill-opacity:1;stroke-width:0.96474254"
         id="path899"
         inkscape:connector-curvature="0" />
      <path
         d="m 308.12331,104.80424 q 0,-2.66269 -1.19628,-4.24487 -1.19628,-1.620763 -3.55025,-1.620763 -0.77179,0 -1.42782,0.07718 -0.65602,0.03859 -1.08051,0.115769 v 10.380624 q 0.54025,0.34731 1.38923,0.57885 0.88756,0.23154 1.77512,0.23154 4.09051,0 4.09051,-5.51833 z m 5.86564,-0.15436 q 0,2.35397 -0.57885,4.28346 -0.57884,1.92948 -1.69795,3.31871 -1.1191,1.38923 -2.77845,2.16103 -1.65936,0.77179 -3.82038,0.77179 -1.19628,0 -2.23821,-0.23154 -1.04192,-0.23154 -2.00666,-0.65602 v 7.64076 h -5.74987 V 95.195406 q 0.7718,-0.231538 1.77513,-0.424487 1.00333,-0.231538 2.08384,-0.385897 1.11911,-0.154358 2.23821,-0.231538 1.15769,-0.115769 2.19961,-0.115769 2.50833,0 4.4764,0.771794 1.96808,0.733204 3.31872,2.122434 1.35064,1.350639 2.04525,3.318717 0.73321,1.96807 0.73321,4.39922 z"
         style="font-style:normal;font-variant:normal;font-weight:bold;font-stretch:normal;font-family:Ubuntu;-inkscape-font-specification:'Ubuntu Bold';fill:#483737;fill-opacity:1;stroke-width:0.96474254"
         id="path901"
         inkscape:connector-curvature="0" />
      <path
         d="m 318.23375,89.445541 5.74986,-0.926153 v 5.981404 h 6.90756 v 4.785122 h -6.90756 v 7.139096 q 0,1.81371 0.61744,2.89423 0.65602,1.08051 2.58551,1.08051 0.92615,0 1.89089,-0.15436 1.00334,-0.19295 1.81372,-0.50167 l 0.81038,4.47641 q -1.04192,0.42448 -2.31538,0.7332 -1.27346,0.30872 -3.12576,0.30872 -2.35398,0 -3.89756,-0.61744 -1.54359,-0.65602 -2.46974,-1.77512 -0.92616,-1.15769 -1.31205,-2.77846 -0.34731,-1.62077 -0.34731,-3.58884 z"
         style="font-style:normal;font-variant:normal;font-weight:bold;font-stretch:normal;font-family:Ubuntu;-inkscape-font-specification:'Ubuntu Bold';fill:#483737;fill-opacity:1;stroke-width:0.96474254"
         id="path903"
         inkscape:connector-curvature="0" />
      <path
         d="m 353.77477,104.61129 q 0,2.39256 -0.69462,4.39923 -0.69461,1.96807 -2.00666,3.39589 -1.31205,1.38923 -3.16436,2.16102 -1.81371,0.7718 -4.09051,0.7718 -2.2382,0 -4.0905,-0.7718 -1.81372,-0.77179 -3.12577,-2.16102 -1.31205,-1.42782 -2.04525,-3.39589 -0.73321,-2.00667 -0.73321,-4.39923 0,-2.39256 0.73321,-4.36063 0.77179,-1.968078 2.08384,-3.357307 1.35064,-1.389229 3.16436,-2.161023 1.8523,-0.771794 4.01332,-0.771794 2.19962,0 4.01333,0.771794 1.85231,0.771794 3.16436,2.161023 1.31205,1.389229 2.04525,3.357307 0.73321,1.96807 0.73321,4.36063 z m -5.86564,0 q 0,-2.66269 -1.08051,-4.16768 -1.04192,-1.543593 -3.01,-1.543593 -1.96807,0 -3.04858,1.543593 -1.08051,1.50499 -1.08051,4.16768 0,2.66269 1.08051,4.24487 1.08051,1.54359 3.04858,1.54359 1.96808,0 3.01,-1.54359 1.08051,-1.58218 1.08051,-4.24487 z"
         style="font-style:normal;font-variant:normal;font-weight:bold;font-stretch:normal;font-family:Ubuntu;-inkscape-font-specification:'Ubuntu Bold';fill:#483737;fill-opacity:1;stroke-width:0.96474254"
         id="path905"
         inkscape:connector-curvature="0" />
    </g>
    <g
       aria-label="Sociala"
       transform="matrix(1.0688167,0,0,1.0442237,-187.54629,27.838237)"
       style="font-style:normal;font-weight:normal;font-size:38.58969879px;line-height:1.25;font-family:sans-serif;letter-spacing:0px;word-spacing:0px;fill:#483737;fill-opacity:1;stroke:none;stroke-width:0.96474254"
       id="text847">
      <path
         d="m 232.86041,149.95726 q 1.27346,0 2.08384,-0.19294 0.84898,-0.23154 1.35064,-0.57885 0.50167,-0.3859 0.69462,-0.88756 0.19295,-0.50167 0.19295,-1.1191 0,-1.31205 -1.23487,-2.16103 -1.23487,-0.88756 -4.24487,-1.89089 -1.31205,-0.46308 -2.6241,-1.04192 -1.31205,-0.61744 -2.35397,-1.505 -1.04192,-0.92616 -1.69795,-2.19962 -0.65602,-1.31205 -0.65602,-3.16435 0,-1.85231 0.69461,-3.31871 0.69462,-1.505 1.96808,-2.54692 1.27346,-1.04193 3.08717,-1.58218 1.81372,-0.57885 4.09051,-0.57885 2.70128,0 4.66935,0.57885 1.96808,0.57884 3.24154,1.27346 l -1.73654,4.74653 q -1.1191,-0.57884 -2.50833,-1.00333 -1.35064,-0.46308 -3.28012,-0.46308 -2.16103,0 -3.12577,0.61744 -0.92615,0.57884 -0.92615,1.81371 0,0.73321 0.34731,1.23487 0.3473,0.50167 0.96474,0.92616 0.65602,0.38589 1.46641,0.7332 0.84897,0.30872 1.8523,0.65603 2.08385,0.77179 3.62743,1.54358 1.54359,0.73321 2.54692,1.73654 1.04193,1.00333 1.54359,2.35397 0.50167,1.35064 0.50167,3.28013 0,3.7432 -2.6241,5.82704 -2.6241,2.04525 -7.91089,2.04525 -1.77513,0 -3.20294,-0.23153 -1.42782,-0.19295 -2.54692,-0.50167 -1.08052,-0.30872 -1.8909,-0.65602 -0.77179,-0.34731 -1.31205,-0.65603 l 1.69795,-4.78512 q 1.19628,0.65602 2.93281,1.19628 1.77513,0.50166 4.32205,0.50166 z"
         style="font-style:normal;font-variant:normal;font-weight:bold;font-stretch:normal;font-family:Ubuntu;-inkscape-font-specification:'Ubuntu Bold';fill:#483737;fill-opacity:1;stroke-width:0.96474254"
         id="path908"
         inkscape:connector-curvature="0" />
      <path
         d="m 266.62635,144.36176 q 0,2.39256 -0.69461,4.39922 -0.69462,1.96808 -2.00667,3.3959 -1.31205,1.38923 -3.16435,2.16102 -1.81372,0.77179 -4.09051,0.77179 -2.2382,0 -4.09051,-0.77179 -1.81371,-0.77179 -3.12576,-2.16102 -1.31205,-1.42782 -2.04526,-3.3959 -0.7332,-2.00666 -0.7332,-4.39922 0,-2.39256 0.7332,-4.36064 0.7718,-1.96807 2.08385,-3.3573 1.35064,-1.38923 3.16435,-2.16102 1.85231,-0.7718 4.01333,-0.7718 2.19961,0 4.01333,0.7718 1.8523,0.77179 3.16435,2.16102 1.31205,1.38923 2.04526,3.3573 0.7332,1.96808 0.7332,4.36064 z m -5.86563,0 q 0,-2.66269 -1.08051,-4.16769 -1.04192,-1.54359 -3.01,-1.54359 -1.96807,0 -3.04859,1.54359 -1.08051,1.505 -1.08051,4.16769 0,2.66269 1.08051,4.24486 1.08052,1.54359 3.04859,1.54359 1.96808,0 3.01,-1.54359 1.08051,-1.58217 1.08051,-4.24486 z"
         style="font-style:normal;font-variant:normal;font-weight:bold;font-stretch:normal;font-family:Ubuntu;-inkscape-font-specification:'Ubuntu Bold';fill:#483737;fill-opacity:1;stroke-width:0.96474254"
         id="path910"
         inkscape:connector-curvature="0" />
      <path
         d="m 270.09937,144.40035 q 0,-2.19962 0.69461,-4.1291 0.73321,-1.96807 2.08385,-3.39589 1.35064,-1.46641 3.28012,-2.31539 1.92949,-0.84897 4.39923,-0.84897 1.62076,0 2.9714,0.30872 1.35064,0.27013 2.6241,0.81038 l -1.19628,4.59218 q -0.81038,-0.30872 -1.77512,-0.54026 -0.96475,-0.23154 -2.16103,-0.23154 -2.54692,0 -3.82038,1.58218 -1.23487,1.58218 -1.23487,4.16769 0,2.73987 1.15769,4.24486 1.19628,1.505 4.1291,1.505 1.04192,0 2.2382,-0.19295 1.19628,-0.19294 2.19962,-0.61743 l 0.81038,4.70794 q -1.00333,0.42449 -2.50833,0.73321 -1.505,0.30871 -3.31871,0.30871 -2.77846,0 -4.78513,-0.81038 -2.00666,-0.84897 -3.31871,-2.27679 -1.27346,-1.42782 -1.8909,-3.35731 -0.57884,-1.96807 -0.57884,-4.24486 z"
         style="font-style:normal;font-variant:normal;font-weight:bold;font-stretch:normal;font-family:Ubuntu;-inkscape-font-specification:'Ubuntu Bold';fill:#483737;fill-opacity:1;stroke-width:0.96474254"
         id="path912"
         inkscape:connector-curvature="0" />
      <path
         d="m 296.10875,154.54944 h -5.74986 v -20.29818 h 5.74986 z m 0.54026,-26.16382 q 0,1.58218 -1.04192,2.50833 -1.00334,0.88757 -2.39257,0.88757 -1.38922,0 -2.43115,-0.88757 -1.00333,-0.92615 -1.00333,-2.50833 0,-1.58217 1.00333,-2.46974 1.04193,-0.92615 2.43115,-0.92615 1.38923,0 2.39257,0.92615 1.04192,0.88757 1.04192,2.46974 z"
         style="font-style:normal;font-variant:normal;font-weight:bold;font-stretch:normal;font-family:Ubuntu;-inkscape-font-specification:'Ubuntu Bold';fill:#483737;fill-opacity:1;stroke-width:0.96474254"
         id="path914"
         inkscape:connector-curvature="0" />
      <path
         d="m 309.26782,150.53611 q 0.84897,0 1.62077,-0.0386 0.77179,-0.0386 1.23487,-0.11577 v -4.36063 q -0.34731,-0.0772 -1.04192,-0.15436 -0.69462,-0.0772 -1.27346,-0.0772 -0.81039,0 -1.54359,0.11577 -0.69462,0.0772 -1.23487,0.3473 -0.54026,0.27013 -0.84897,0.73321 -0.30872,0.46307 -0.30872,1.15769 0,1.35064 0.88756,1.89089 0.92615,0.50167 2.50833,0.50167 z M 308.80474,133.711 q 2.54692,0 4.24487,0.57885 1.69795,0.57884 2.70128,1.65935 1.04192,1.08052 1.46641,2.6241 0.42449,1.54359 0.42449,3.43449 v 11.9628 q -1.23487,0.27013 -3.43449,0.61744 -2.19961,0.3859 -5.32538,0.3859 -1.96807,0 -3.58884,-0.34731 -1.58218,-0.34731 -2.73987,-1.1191 -1.15769,-0.81039 -1.77512,-2.08385 -0.61744,-1.27346 -0.61744,-3.12576 0,-1.77513 0.69462,-3.01 0.7332,-1.23487 1.92948,-1.96807 1.19628,-0.73321 2.73987,-1.04193 1.54359,-0.3473 3.20295,-0.3473 1.1191,0 1.96807,0.11577 0.88756,0.0772 1.42782,0.23153 v -0.54025 q 0,-1.46641 -0.88756,-2.35397 -0.88757,-0.88757 -3.08718,-0.88757 -1.46641,0 -2.89423,0.23154 -1.42782,0.19295 -2.46974,0.57885 l -0.7332,-4.63077 q 0.50166,-0.15436 1.23487,-0.30871 0.77179,-0.19295 1.65935,-0.30872 0.88757,-0.15436 1.85231,-0.23154 1.00333,-0.11577 2.00666,-0.11577 z"
         style="font-style:normal;font-variant:normal;font-weight:bold;font-stretch:normal;font-family:Ubuntu;-inkscape-font-specification:'Ubuntu Bold';fill:#483737;fill-opacity:1;stroke-width:0.96474254"
         id="path916"
         inkscape:connector-curvature="0" />
      <path
         d="m 330.95521,154.93534 q -2.50833,-0.0386 -4.09051,-0.54026 -1.54359,-0.50167 -2.46974,-1.38923 -0.88756,-0.92615 -1.23487,-2.19961 -0.30872,-1.31205 -0.30872,-2.93282 v -22.34344 l 5.74987,-0.92615 v 22.1119 q 0,0.77179 0.11577,1.38923 0.11577,0.61743 0.42448,1.04192 0.34731,0.42449 0.96475,0.69462 0.61743,0.27012 1.65935,0.3473 z"
         style="font-style:normal;font-variant:normal;font-weight:bold;font-stretch:normal;font-family:Ubuntu;-inkscape-font-specification:'Ubuntu Bold';fill:#483737;fill-opacity:1;stroke-width:0.96474254"
         id="path918"
         inkscape:connector-curvature="0" />
      <path
         d="m 343.38107,150.53611 q 0.84898,0 1.62077,-0.0386 0.77179,-0.0386 1.23487,-0.11577 v -4.36063 q -0.34731,-0.0772 -1.04192,-0.15436 -0.69462,-0.0772 -1.27346,-0.0772 -0.81039,0 -1.54359,0.11577 -0.69461,0.0772 -1.23487,0.3473 -0.54026,0.27013 -0.84897,0.73321 -0.30872,0.46307 -0.30872,1.15769 0,1.35064 0.88756,1.89089 0.92615,0.50167 2.50833,0.50167 z M 342.918,133.711 q 2.54692,0 4.24486,0.57885 1.69795,0.57884 2.70128,1.65935 1.04192,1.08052 1.46641,2.6241 0.42449,1.54359 0.42449,3.43449 v 11.9628 q -1.23487,0.27013 -3.43449,0.61744 -2.19961,0.3859 -5.32538,0.3859 -1.96807,0 -3.58884,-0.34731 -1.58217,-0.34731 -2.73987,-1.1191 -1.15769,-0.81039 -1.77512,-2.08385 -0.61744,-1.27346 -0.61744,-3.12576 0,-1.77513 0.69462,-3.01 0.7332,-1.23487 1.92948,-1.96807 1.19628,-0.73321 2.73987,-1.04193 1.54359,-0.3473 3.20295,-0.3473 1.1191,0 1.96807,0.11577 0.88756,0.0772 1.42782,0.23153 v -0.54025 q 0,-1.46641 -0.88756,-2.35397 -0.88757,-0.88757 -3.08718,-0.88757 -1.46641,0 -2.89423,0.23154 -1.42782,0.19295 -2.46974,0.57885 l -0.7332,-4.63077 q 0.50166,-0.15436 1.23487,-0.30871 0.77179,-0.19295 1.65936,-0.30872 0.88756,-0.15436 1.8523,-0.23154 1.00333,-0.11577 2.00667,-0.11577 z"
         style="font-style:normal;font-variant:normal;font-weight:bold;font-stretch:normal;font-family:Ubuntu;-inkscape-font-specification:'Ubuntu Bold';fill:#483737;fill-opacity:1;stroke-width:0.96474254"
         id="path920"
         inkscape:connector-curvature="0" />
    </g>
  </g>
</svg>
