<?xml version="1.0" encoding="UTF-8" standalone="no"?>
<!-- Created with Inkscape (http://www.inkscape.org/) -->

<svg
   xmlns:dc="http://purl.org/dc/elements/1.1/"
   xmlns:cc="http://creativecommons.org/ns#"
   xmlns:rdf="http://www.w3.org/1999/02/22-rdf-syntax-ns#"
   xmlns:svg="http://www.w3.org/2000/svg"
   xmlns="http://www.w3.org/2000/svg"
   xmlns:sodipodi="http://sodipodi.sourceforge.net/DTD/sodipodi-0.dtd"
   xmlns:inkscape="http://www.inkscape.org/namespaces/inkscape"
   width="135.46666mm"
   height="135.46666mm"
   viewBox="0 0 135.46666 135.46666"
   version="1.1"
   id="svg8"
   inkscape:version="0.92.5 (2060ec1f9f, 2020-04-08)"
   sodipodi:docname="desl.svg">
  <defs
     id="defs2">
    <marker
       inkscape:isstock="true"
       style="overflow:visible"
       id="marker1236"
       refX="0"
       refY="0"
       orient="auto"
       inkscape:stockid="Arrow1Lstart">
      <path
         transform="matrix(0.8,0,0,0.8,10,0)"
         style="fill:#ffffff;fill-opacity:1;fill-rule:evenodd;stroke:#000000;stroke-width:1.00000003pt;stroke-opacity:1"
         d="M 0,0 5,-5 -12.5,0 5,5 Z"
         id="path1234"
         inkscape:connector-curvature="0" />
    </marker>
    <marker
       inkscape:isstock="true"
       style="overflow:visible"
       id="marker1208"
       refX="0"
       refY="0"
       orient="auto"
       inkscape:stockid="Arrow1Lstart">
      <path
         transform="matrix(0.8,0,0,0.8,10,0)"
         style="fill:#ffffff;fill-opacity:1;fill-rule:evenodd;stroke:#000000;stroke-width:1.00000003pt;stroke-opacity:1"
         d="M 0,0 5,-5 -12.5,0 5,5 Z"
         id="path1206"
         inkscape:connector-curvature="0" />
    </marker>
    <marker
       inkscape:isstock="true"
       style="overflow:visible"
       id="marker1186"
       refX="0"
       refY="0"
       orient="auto"
       inkscape:stockid="Arrow1Lstart">
      <path
         transform="matrix(0.8,0,0,0.8,10,0)"
         style="fill:#ffffff;fill-opacity:1;fill-rule:evenodd;stroke:#000000;stroke-width:1.00000003pt;stroke-opacity:1"
         d="M 0,0 5,-5 -12.5,0 5,5 Z"
         id="path1184"
         inkscape:connector-curvature="0" />
    </marker>
  </defs>
  <sodipodi:namedview
     id="base"
     pagecolor="#ffffff"
     bordercolor="#666666"
     borderopacity="1.0"
     inkscape:pageopacity="0.0"
     inkscape:pageshadow="2"
     inkscape:zoom="0.98994949"
     inkscape:cx="155.07855"
     inkscape:cy="254.99868"
     inkscape:document-units="mm"
     inkscape:current-layer="g1296"
     showgrid="false"
     inkscape:window-width="1366"
     inkscape:window-height="705"
     inkscape:window-x="0"
     inkscape:window-y="0"
     inkscape:window-maximized="1"
     showguides="false" />
  <metadata
     id="metadata5">
    <rdf:RDF>
      <cc:Work
         rdf:about="">
        <dc:format>image/svg+xml</dc:format>
        <dc:type
           rdf:resource="http://purl.org/dc/dcmitype/StillImage" />
        <dc:title></dc:title>
      </cc:Work>
    </rdf:RDF>
  </metadata>
  <g
     inkscape:label="Tavolo 1"
     inkscape:groupmode="layer"
     id="layer1"
     transform="translate(-24.322771,-48.159374)">
    <rect
       style="opacity:1;fill:#0a2843;fill-opacity:1;stroke:none;stroke-width:0.62853616;stroke-linecap:round;stroke-linejoin:round;stroke-miterlimit:4;stroke-dasharray:none;stroke-opacity:1;paint-order:normal"
       id="rect896"
       width="135.46666"
       height="135.46666"
       x="24.322771"
       y="48.159374" />
    <g
       id="g1296"
       transform="matrix(2.1364466,0,0,2.1364466,-43.197749,-63.251099)">
      <path
         sodipodi:nodetypes="csscccsc"
         inkscape:connector-curvature="0"
         id="path854"
         d="m 54.782922,80.218841 c 1.277829,-0.67907 2.562525,-1.456627 3.373475,-2.700287 0.860692,-1.319945 1.656512,-2.743423 1.879043,-4.327969 0.281653,-2.005527 1.644549,-3.923238 3.620789,-4.557909 1.466838,-0.451341 3.173132,-0.621528 4.574885,0.121732 1.658177,1.019738 2.251308,3.091188 2.308854,4.935031 0.576925,6.122202 -2.27569,11.153171 -8.274165,11.076272 -2.936361,-0.03764 -5.928398,-2.47936 -7.482881,-4.54687 z"
         style="fill:#0a2843;fill-opacity:1;stroke:#44df1c;stroke-width:0.66145831;stroke-linecap:round;stroke-linejoin:round;stroke-miterlimit:4;stroke-dasharray:none;stroke-opacity:1" />
      <circle
         r="0.56794775"
         cy="70.885895"
         cx="66.13665"
         id="path850"
         style="opacity:1;fill:none;fill-opacity:1;stroke:#44df1c;stroke-width:0.79374999;stroke-linecap:round;stroke-linejoin:miter;stroke-miterlimit:4;stroke-dasharray:none;stroke-opacity:1;paint-order:normal" />
      <path
         inkscape:connector-curvature="0"
         id="path857"
         d="M 69.277056,69.683181 72.283839,69.115234 70.446361,72.0552"
         style="fill:none;stroke:#44df1c;stroke-width:0.66145831;stroke-linecap:round;stroke-linejoin:round;stroke-miterlimit:4;stroke-dasharray:none;stroke-opacity:1" />
    </g>
    <path
       style="fill:#ffffff;fill-opacity:1;stroke:none;stroke-width:0.62418985;stroke-linecap:butt;stroke-linejoin:miter;stroke-miterlimit:4;stroke-dasharray:none;stroke-opacity:1"
       d="m 57.373813,117.44348 c 2.173008,2.30247 3.322594,4.40673 4.038115,7.51173 1.009844,4.38218 1.258425,9.43906 0,14.13473 -0.7482,2.79183 -4.038115,7.67252 -4.038115,7.67252 0,0 4.455548,-0.69029 7.673392,-3.23068 3.862369,-3.04922 5.519277,-7.97829 5.007233,-13.16562 -0.44981,-4.55684 -2.728139,-8.59131 -7.026732,-10.98445 -2.334682,-1.29978 -5.653893,-1.93823 -5.653893,-1.93823 z m -4.038115,0.24206 -7.269673,0.16167 0.32333,28.51152 c 0,0 3.310518,0.27479 4.684785,-0.48411 1.107964,-0.61186 2.259138,-1.72565 2.341947,-2.98861 0.547442,-8.34858 -0.08039,-25.20047 -0.08039,-25.20047 z"
       id="path880"
       inkscape:connector-curvature="0" />
    <path
       style="fill:#ffffff;fill-opacity:1;stroke:none;stroke-width:0.62418985;stroke-linecap:butt;stroke-linejoin:miter;stroke-miterlimit:4;stroke-dasharray:none;stroke-opacity:1"
       d="m 87.115945,123.27406 c 0,0 2.176898,2.6404 2.712987,4.22628 0.412879,1.22141 0.314496,3.85525 0.314496,3.85525 l -5.312009,4.08406 10.737979,0.1705 c 0,0 0.6478,-1.39261 0.770345,-2.14141 0.218353,-1.33423 0.295056,-2.75765 -0.0857,-4.05491 -0.389879,-1.32835 -1.131819,-2.62456 -2.169679,-3.54074 -1.99298,-1.75932 -4.353788,-2.20442 -6.968424,-2.59903 z m -2.118442,0.22704 c 0,0 -2.859871,0.71283 -4.684785,2.09989 -3.55453,2.70171 -5.286856,7.11623 -4.846445,11.2274 0.47115,4.39814 3.49507,7.60723 7.269672,9.04623 3.425079,1.30575 7.481341,1.20894 10.499458,-0.40461 1.075013,-0.57472 2.665277,-2.50362 2.665277,-2.50362 0,0 -3.129236,0.34664 -4.603505,-0.0804 -3.361448,-0.97363 -7.0856,-3.14319 -8.238781,-6.21929 -0.974768,-2.60018 -1.128391,-5.97348 -0.484118,-8.48084 0.437534,-1.70278 2.423227,-4.68478 2.423227,-4.68478 z"
       id="path884"
       inkscape:connector-curvature="0" />
    <path
       style="opacity:1;fill:#ffffff;fill-opacity:1;stroke:none;stroke-width:0.62418985;stroke-linecap:round;stroke-linejoin:round;stroke-miterlimit:4;stroke-dasharray:none;stroke-opacity:1;paint-order:normal"
       d="m 108.90464,123.41806 8.56741,7.07973 v -7.07973 z m -1.82692,0.19877 c 0,0 -3.18235,0.54556 -4.74044,3.0266 -1.10647,1.76191 -0.87326,5.08248 0.45674,7.02496 2.88767,4.21749 10.0294,6.82254 11.47917,10.16641 0.62501,1.44158 -0.68085,2.06708 -1.54157,2.79867 1.91873,-0.39828 3.51928,-0.57481 4.91182,-2.39848 1.48645,-1.94667 1.17893,-5.68369 -0.51415,-7.82446 -3.09985,-3.91951 -8.85856,-5.75404 -11.42264,-9.70968 -1.0911,-1.68327 1.37107,-3.08402 1.37107,-3.08402 z m -1.71383,15.76287 c -1.98723,-3e-5 -3.59821,1.61095 -3.59818,3.59818 -3e-5,1.98723 1.61095,3.5982 3.59818,3.59817 1.98723,3e-5 3.5982,-1.61094 3.59817,-3.59817 3e-5,-1.98723 -1.61094,-3.59821 -3.59817,-3.59818 z"
       id="path888"
       inkscape:connector-curvature="0"
       sodipodi:nodetypes="cccccssscssscccccc" />
    <path
       style="fill:#ffffff;fill-opacity:1;stroke:none;stroke-width:0.62418985;stroke-linecap:butt;stroke-linejoin:miter;stroke-miterlimit:4;stroke-dasharray:none;stroke-opacity:1"
       d="m 124.49348,117.84721 v 24.47341 c 0,2.06214 1.91589,3.65577 3.71567,4.19978 3.43604,1.03858 5.9456,-1.31604 8.31918,-3.71567 l -4.84645,-0.16167 v -24.79585 z"
       id="path894"
       inkscape:connector-curvature="0" />
  </g>
</svg>
