<?xml version="1.0" encoding="UTF-8" standalone="no"?>
<!-- Created with Inkscape (http://www.inkscape.org/) -->

<svg
   xmlns:dc="http://purl.org/dc/elements/1.1/"
   xmlns:cc="http://creativecommons.org/ns#"
   xmlns:rdf="http://www.w3.org/1999/02/22-rdf-syntax-ns#"
   xmlns:svg="http://www.w3.org/2000/svg"
   xmlns="http://www.w3.org/2000/svg"
   xmlns:sodipodi="http://sodipodi.sourceforge.net/DTD/sodipodi-0.dtd"
   xmlns:inkscape="http://www.inkscape.org/namespaces/inkscape"
   width="135.46666mm"
   height="135.46666mm"
   viewBox="0 0 135.46666 135.46665"
   version="1.1"
   id="svg8"
   inkscape:version="0.92.5 (2060ec1f9f, 2020-04-08)"
   sodipodi:docname="despero.svg"
   inkscape:export-filename="/home/viburno/Стільниця/despero.png"
   inkscape:export-xdpi="95"
   inkscape:export-ydpi="95">
  <defs
     id="defs2" />
  <sodipodi:namedview
     id="base"
     pagecolor="#ffffff"
     bordercolor="#666666"
     borderopacity="1.0"
     inkscape:pageopacity="0.0"
     inkscape:pageshadow="2"
     inkscape:zoom="0.67692922"
     inkscape:cx="-79.872564"
     inkscape:cy="227.82387"
     inkscape:document-units="mm"
     inkscape:current-layer="layer1"
     showgrid="false"
     inkscape:window-width="1366"
     inkscape:window-height="705"
     inkscape:window-x="0"
     inkscape:window-y="0"
     inkscape:window-maximized="1" />
  <metadata
     id="metadata5">
    <rdf:RDF>
      <cc:Work
         rdf:about="">
        <dc:format>image/svg+xml</dc:format>
        <dc:type
           rdf:resource="http://purl.org/dc/dcmitype/StillImage" />
        <dc:title />
      </cc:Work>
    </rdf:RDF>
  </metadata>
  <g
     inkscape:label="Layer 1"
     inkscape:groupmode="layer"
     id="layer1"
     transform="translate(-15.908173,-49.534634)">
    <rect
       style="opacity:1;fill:#241c1c;fill-opacity:1;stroke:none;stroke-width:2.84235001;stroke-linecap:round;stroke-linejoin:miter;stroke-miterlimit:4;stroke-dasharray:none;stroke-opacity:1;paint-order:normal"
       id="rect817"
       width="135.46666"
       height="135.46666"
       x="15.908173"
       y="49.534634" />
    <g
       id="g835"
       style="fill:#ff6600;fill-opacity:1"
       transform="matrix(0.91059623,0,0,0.91059623,7.5375139,10.637797)">
      <path
         inkscape:connector-curvature="0"
         id="rect826"
         d="m 57.958949,75.267684 v 5.845644 h -5.634405 v 11.404194 h -5.978393 v 11.610168 h 5.837216 v -5.687612 h 5.981026 v 5.687612 h 5.640726 v -5.687612 h 5.98103 v 5.687612 H 75.2857 v -5.687612 h 5.981025 v 5.687612 H 86.98067 V 92.517522 H 81.266725 V 81.113328 h -5.704996 v -5.845644 h -5.981025 v 5.845644 h -5.640729 v -5.845644 z m 0,11.550638 h 5.981026 v 5.693407 h -5.981026 z m 11.621755,0 h 5.981025 v 5.693407 h -5.981025 z"
         style="opacity:1;fill:#ff6600;fill-opacity:1;stroke:none;stroke-width:2.91340542;stroke-linecap:round;stroke-linejoin:miter;stroke-miterlimit:4;stroke-dasharray:none;stroke-opacity:1;paint-order:normal" />
      <path
         inkscape:connector-curvature="0"
         id="rect949"
         d="m 87.150823,81.002179 v 5.816672 H 110.05509 V 127.38858 H 57.958949 v -17.36837 h -5.602272 v 23.10234 H 116.02822 V 81.002179 Z"
         style="opacity:1;fill:#ff6600;fill-opacity:1;stroke:none;stroke-width:0.2697098;stroke-linecap:round;stroke-linejoin:miter;stroke-miterlimit:4;stroke-dasharray:none;stroke-opacity:1;paint-order:normal" />
    </g>
    <g
       aria-label="despero"
       style="font-style:normal;font-weight:normal;font-size:23.17170906px;line-height:1.25;font-family:sans-serif;letter-spacing:0px;word-spacing:0px;fill:#ff6600;fill-opacity:1;stroke:none;stroke-width:0.57929271"
       id="text1032">
      <path
         d="m 43.920471,148.32211 q 0,1.59885 0.718323,2.57206 0.718323,0.97321 2.131797,0.97321 0.463434,0 0.857353,-0.0232 0.393919,-0.0463 0.648808,-0.0927 v -6.27953 q -0.324404,-0.20855 -0.857353,-0.34758 -0.509778,-0.13903 -1.042727,-0.13903 -2.456201,0 -2.456201,3.33673 z m 7.808866,5.79293 q -0.463434,0.13903 -1.065899,0.27806 -0.602464,0.11586 -1.274444,0.20854 -0.648808,0.0927 -1.343959,0.13903 -0.671979,0.0695 -1.297616,0.0695 -1.506161,0 -2.687918,-0.44026 -1.181757,-0.44027 -1.992767,-1.25128 -0.81101,-0.83418 -1.251272,-1.99276 -0.417091,-1.18176 -0.417091,-2.64158 0,-1.48299 0.370747,-2.66474 0.370748,-1.20493 1.065899,-2.03911 0.695151,-0.83419 1.691535,-1.27445 1.019555,-0.44026 2.317171,-0.44026 0.718323,0 1.274444,0.13903 0.579292,0.13903 1.158585,0.39392 v -5.51487 l 3.452585,-0.55612 z"
         style="font-style:normal;font-variant:normal;font-weight:bold;font-stretch:normal;font-family:ubuntu;-inkscape-font-specification:ubuntu;fill:#ff6600;fill-opacity:1;stroke-width:0.57929271"
         id="path1495"
         inkscape:connector-curvature="0" />
      <path
         d="m 54.394041,148.50748 q 0,-1.62202 0.486606,-2.82694 0.509778,-1.2281 1.320788,-2.03911 0.81101,-0.81101 1.853736,-1.22811 1.065899,-0.41709 2.178141,-0.41709 2.595232,0 4.101393,1.59885 1.506161,1.57568 1.506161,4.65752 0,0.30123 -0.02317,0.67198 -0.02317,0.34757 -0.04634,0.62563 h -7.832038 q 0.115858,1.0659 0.996383,1.69154 0.880525,0.62563 2.363515,0.62563 0.95004,0 1.853736,-0.1622 0.926869,-0.18537 1.506162,-0.44026 l 0.463434,2.80377 q -0.278061,0.13903 -0.741495,0.27806 -0.463434,0.13904 -1.042727,0.23172 -0.556121,0.11586 -1.204929,0.18538 -0.648808,0.0695 -1.297615,0.0695 -1.645192,0 -2.873292,-0.48661 -1.204929,-0.4866 -2.015939,-1.32078 -0.787838,-0.85736 -1.181757,-2.01594 -0.370748,-1.15859 -0.370748,-2.50255 z m 8.110099,-1.32078 q -0.02317,-0.44027 -0.162202,-0.85736 -0.115859,-0.41709 -0.393919,-0.74149 -0.254889,-0.32441 -0.67198,-0.53295 -0.393919,-0.20855 -0.996383,-0.20855 -0.579293,0 -0.996384,0.20855 -0.417091,0.18537 -0.695151,0.50978 -0.278061,0.3244 -0.440263,0.76466 -0.13903,0.41709 -0.208545,0.85736 z"
         style="font-style:normal;font-variant:normal;font-weight:bold;font-stretch:normal;font-family:ubuntu;-inkscape-font-specification:ubuntu;fill:#ff6600;fill-opacity:1;stroke-width:0.57929271"
         id="path1497"
         inkscape:connector-curvature="0" />
      <path
         d="m 72.004531,152.02958 q 0.95004,0 1.343959,-0.18537 0.393919,-0.18537 0.393919,-0.71832 0,-0.41709 -0.509778,-0.71833 -0.509777,-0.3244 -1.552504,-0.71832 -0.81101,-0.30123 -1.48299,-0.62563 -0.648807,-0.32441 -1.112242,-0.76467 -0.463434,-0.46344 -0.718323,-1.08907 -0.254888,-0.62564 -0.254888,-1.50616 0,-1.71471 1.274444,-2.71109 1.274444,-0.99639 3.498928,-0.99639 1.112242,0 2.131797,0.20855 1.019555,0.18537 1.62202,0.41709 l -0.602465,2.68792 q -0.602464,-0.20855 -1.320787,-0.37075 -0.695152,-0.1622 -1.575676,-0.1622 -1.62202,0 -1.62202,0.9037 0,0.20854 0.06951,0.37074 0.06951,0.16221 0.278061,0.32441 0.208545,0.13903 0.556121,0.3244 0.370747,0.1622 0.926868,0.37075 1.135414,0.41709 1.876908,0.83418 0.741495,0.39392 1.158586,0.88052 0.440262,0.46344 0.602464,1.04273 0.185374,0.57929 0.185374,1.34396 0,1.80739 -1.367131,2.73426 -1.343959,0.92687 -3.823332,0.92687 -1.62202,0 -2.71109,-0.27806 -1.065899,-0.27806 -1.482989,-0.46343 l 0.579292,-2.80378 q 0.880525,0.34757 1.807394,0.55612 0.926868,0.18537 1.830565,0.18537 z"
         style="font-style:normal;font-variant:normal;font-weight:bold;font-stretch:normal;font-family:ubuntu;-inkscape-font-specification:ubuntu;fill:#ff6600;fill-opacity:1;stroke-width:0.57929271"
         id="path1499"
         inkscape:connector-curvature="0" />
      <path
         d="m 87.552719,148.50748 q 0,-1.59884 -0.718323,-2.54888 -0.718323,-0.97322 -2.131797,-0.97322 -0.463434,0 -0.857353,0.0464 -0.393919,0.0232 -0.648808,0.0695 v 6.23319 q 0.324404,0.20855 0.834182,0.34758 0.532949,0.13903 1.065898,0.13903 2.456201,0 2.456201,-3.31356 z m 3.5221,-0.0927 q 0,1.41347 -0.347575,2.57206 -0.347576,1.15858 -1.019556,1.99276 -0.671979,0.83419 -1.668363,1.29762 -0.996383,0.46343 -2.293999,0.46343 -0.718323,0 -1.343959,-0.13903 -0.625636,-0.13903 -1.204929,-0.39392 v 4.588 h -3.452585 v -16.05799 q 0.463435,-0.13903 1.065899,-0.25489 0.602464,-0.13903 1.251272,-0.23172 0.67198,-0.0927 1.343959,-0.13903 0.695152,-0.0695 1.320788,-0.0695 1.506161,0 2.687918,0.46343 1.181757,0.44026 1.992767,1.27445 0.81101,0.81101 1.228101,1.99276 0.440262,1.18176 0.440262,2.64158 z"
         style="font-style:normal;font-variant:normal;font-weight:bold;font-stretch:normal;font-family:ubuntu;-inkscape-font-specification:ubuntu;fill:#ff6600;fill-opacity:1;stroke-width:0.57929271"
         id="path1501"
         inkscape:connector-curvature="0" />
      <path
         d="m 93.160231,148.50748 q 0,-1.62202 0.486606,-2.82694 0.509778,-1.2281 1.320787,-2.03911 0.81101,-0.81101 1.853737,-1.22811 1.065899,-0.41709 2.178141,-0.41709 2.595228,0 4.101388,1.59885 1.50617,1.57568 1.50617,4.65752 0,0.30123 -0.0232,0.67198 -0.0232,0.34757 -0.0463,0.62563 h -7.832037 q 0.115858,1.0659 0.996383,1.69154 0.880525,0.62563 2.363514,0.62563 0.95004,0 1.85374,-0.1622 0.92687,-0.18537 1.50616,-0.44026 l 0.46343,2.80377 q -0.27806,0.13903 -0.74149,0.27806 -0.46344,0.13904 -1.04273,0.23172 -0.55612,0.11586 -1.20493,0.18538 -0.64881,0.0695 -1.297614,0.0695 -1.645191,0 -2.873292,-0.48661 -1.204929,-0.4866 -2.015938,-1.32078 -0.787839,-0.85736 -1.181758,-2.01594 -0.370747,-1.15859 -0.370747,-2.50255 z m 8.110099,-1.32078 q -0.0232,-0.44027 -0.1622,-0.85736 -0.11586,-0.41709 -0.39392,-0.74149 -0.25489,-0.32441 -0.67198,-0.53295 -0.39392,-0.20855 -0.996385,-0.20855 -0.579293,0 -0.996383,0.20855 -0.417091,0.18537 -0.695152,0.50978 -0.27806,0.3244 -0.440262,0.76466 -0.13903,0.41709 -0.208545,0.85736 z"
         style="font-style:normal;font-variant:normal;font-weight:bold;font-stretch:normal;font-family:ubuntu;-inkscape-font-specification:ubuntu;fill:#ff6600;fill-opacity:1;stroke-width:0.57929271"
         id="path1503"
         inkscape:connector-curvature="0" />
      <path
         d="m 114.61722,145.3793 q -0.46343,-0.11586 -1.08907,-0.23171 -0.62563,-0.13903 -1.34396,-0.13903 -0.3244,0 -0.78783,0.0695 -0.44027,0.0463 -0.67198,0.11586 v 9.31503 h -3.45259 v -11.53951 q 0.92687,-0.32441 2.17814,-0.60247 1.27445,-0.30123 2.82695,-0.30123 0.27806,0 0.67198,0.0463 0.39392,0.0232 0.78784,0.0927 0.39392,0.0463 0.78784,0.13903 0.39392,0.0695 0.67198,0.18537 z"
         style="font-style:normal;font-variant:normal;font-weight:bold;font-stretch:normal;font-family:ubuntu;-inkscape-font-specification:ubuntu;fill:#ff6600;fill-opacity:1;stroke-width:0.57929271"
         id="path1505"
         inkscape:connector-curvature="0" />
      <path
         d="m 128.21899,148.39163 q 0,1.43664 -0.41709,2.64157 -0.41709,1.18176 -1.20493,2.03911 -0.78784,0.83418 -1.90008,1.29762 -1.08907,0.46343 -2.4562,0.46343 -1.34396,0 -2.4562,-0.46343 -1.08907,-0.46344 -1.87691,-1.29762 -0.78784,-0.85735 -1.2281,-2.03911 -0.44027,-1.20493 -0.44027,-2.64157 0,-1.43665 0.44027,-2.61841 0.46343,-1.18175 1.25127,-2.01594 0.81101,-0.83418 1.90008,-1.29761 1.11224,-0.46344 2.40986,-0.46344 1.32078,0 2.40985,0.46344 1.11225,0.46343 1.90008,1.29761 0.78784,0.83419 1.22811,2.01594 0.44026,1.18176 0.44026,2.61841 z m -3.5221,0 q 0,-1.59885 -0.64881,-2.50255 -0.62564,-0.92687 -1.80739,-0.92687 -1.18176,0 -1.83057,0.92687 -0.64881,0.9037 -0.64881,2.50255 0,1.59884 0.64881,2.54888 0.64881,0.92687 1.83057,0.92687 1.18175,0 1.80739,-0.92687 0.64881,-0.95004 0.64881,-2.54888 z"
         style="font-style:normal;font-variant:normal;font-weight:bold;font-stretch:normal;font-family:ubuntu;-inkscape-font-specification:ubuntu;fill:#ff6600;fill-opacity:1;stroke-width:0.57929271"
         id="path1507"
         inkscape:connector-curvature="0" />
    </g>
  </g>
</svg>
