<?xml version="1.0" encoding="UTF-8" standalone="no"?>
<!-- Created with Inkscape (http://www.inkscape.org/) -->

<svg
   xmlns:dc="http://purl.org/dc/elements/1.1/"
   xmlns:cc="http://creativecommons.org/ns#"
   xmlns:rdf="http://www.w3.org/1999/02/22-rdf-syntax-ns#"
   xmlns:svg="http://www.w3.org/2000/svg"
   xmlns="http://www.w3.org/2000/svg"
   xmlns:sodipodi="http://sodipodi.sourceforge.net/DTD/sodipodi-0.dtd"
   xmlns:inkscape="http://www.inkscape.org/namespaces/inkscape"
   width="135.46666mm"
   height="135.46666mm"
   viewBox="0 0 135.46666 135.46666"
   version="1.1"
   id="svg8"
   sodipodi:docname="metio.svg"
   inkscape:version="0.92.5 (2060ec1f9f, 2020-04-08)">
  <defs
     id="defs2">
    <marker
       inkscape:isstock="true"
       style="overflow:visible"
       id="marker8396"
       refX="0"
       refY="0"
       orient="auto"
       inkscape:stockid="Arrow2Send">
      <path
         transform="matrix(-0.3,0,0,-0.3,0.69,0)"
         d="M 8.7185878,4.0337352 -2.2072895,0.01601326 8.7185884,-4.0017078 c -1.7454984,2.3720609 -1.7354408,5.6174519 -6e-7,8.035443 z"
         style="fill:#ffffff;fill-opacity:1;fill-rule:evenodd;stroke:#ffffff;stroke-width:0.625;stroke-linejoin:round;stroke-opacity:1"
         id="path8394"
         inkscape:connector-curvature="0" />
    </marker>
    <marker
       inkscape:isstock="true"
       style="overflow:visible"
       id="marker8374"
       refX="0"
       refY="0"
       orient="auto"
       inkscape:stockid="Arrow2Send">
      <path
         transform="matrix(-0.3,0,0,-0.3,0.69,0)"
         d="M 8.7185878,4.0337352 -2.2072895,0.01601326 8.7185884,-4.0017078 c -1.7454984,2.3720609 -1.7354408,5.6174519 -6e-7,8.035443 z"
         style="fill:#ffffff;fill-opacity:1;fill-rule:evenodd;stroke:#ffffff;stroke-width:0.625;stroke-linejoin:round;stroke-opacity:1"
         id="path8372"
         inkscape:connector-curvature="0" />
    </marker>
    <marker
       inkscape:isstock="true"
       style="overflow:visible"
       id="marker1390"
       refX="0"
       refY="0"
       orient="auto"
       inkscape:stockid="Arrow2Send">
      <path
         transform="matrix(-0.3,0,0,-0.3,0.69,0)"
         d="M 8.7185878,4.0337352 -2.2072895,0.01601326 8.7185884,-4.0017078 c -1.7454984,2.3720609 -1.7354408,5.6174519 -6e-7,8.035443 z"
         style="fill:#fefefe;fill-opacity:1;fill-rule:evenodd;stroke:#fefefe;stroke-width:0.625;stroke-linejoin:round;stroke-opacity:1"
         id="path1388"
         inkscape:connector-curvature="0" />
    </marker>
    <marker
       inkscape:stockid="Arrow1Lstart"
       orient="auto"
       refY="0"
       refX="0"
       id="Arrow1Lstart"
       style="overflow:visible"
       inkscape:isstock="true">
      <path
         id="path880"
         d="M 0,0 5,-5 -12.5,0 5,5 Z"
         style="fill:#000000;fill-opacity:1;fill-rule:evenodd;stroke:#000000;stroke-width:1.00000003pt;stroke-opacity:1"
         transform="matrix(0.8,0,0,0.8,10,0)"
         inkscape:connector-curvature="0" />
    </marker>
    <marker
       inkscape:stockid="Arrow1Sstart"
       orient="auto"
       refY="0"
       refX="0"
       id="Arrow1Sstart"
       style="overflow:visible"
       inkscape:isstock="true">
      <path
         id="path892"
         d="M 0,0 5,-5 -12.5,0 5,5 Z"
         style="fill:#000000;fill-opacity:1;fill-rule:evenodd;stroke:#000000;stroke-width:1.00000003pt;stroke-opacity:1"
         transform="matrix(0.2,0,0,0.2,1.2,0)"
         inkscape:connector-curvature="0" />
    </marker>
  </defs>
  <sodipodi:namedview
     id="base"
     pagecolor="#ffffff"
     bordercolor="#666666"
     borderopacity="1.0"
     inkscape:pageopacity="0.0"
     inkscape:pageshadow="2"
     inkscape:zoom="0.7"
     inkscape:cx="22.413053"
     inkscape:cy="198.65356"
     inkscape:document-units="mm"
     inkscape:current-layer="text833"
     showgrid="false"
     showguides="false"
     inkscape:window-width="1366"
     inkscape:window-height="705"
     inkscape:window-x="0"
     inkscape:window-y="0"
     inkscape:window-maximized="1" />
  <metadata
     id="metadata5">
    <rdf:RDF>
      <cc:Work
         rdf:about="">
        <dc:format>image/svg+xml</dc:format>
        <dc:type
           rdf:resource="http://purl.org/dc/dcmitype/StillImage" />
      </cc:Work>
    </rdf:RDF>
  </metadata>
  <g
     inkscape:label="Tavolo 1"
     inkscape:groupmode="layer"
     id="layer1"
     transform="translate(-33.088913,-82.474052)">
    <rect
       style="opacity:1;fill:#1c2224;fill-opacity:1;stroke:none;stroke-width:2.58938551;stroke-linecap:round;stroke-linejoin:round;stroke-miterlimit:4;stroke-dasharray:none;stroke-opacity:1;paint-order:normal"
       id="rect1478"
       width="135.46666"
       height="135.46666"
       x="33.088913"
       y="82.474052" />
    <path
       style="font-style:normal;font-weight:normal;font-size:10.58333302px;line-height:1.25;font-family:sans-serif;letter-spacing:0px;word-spacing:0px;fill:#374347;fill-opacity:1;stroke:none;stroke-width:0.26458332"
       d="m 107.68591,128.2909 c -4.80911,1.53986 -8.353294,5.53542 -12.157397,8.70024 -8.512404,7.82679 -16.726057,15.99644 -24.204208,24.82691 6.026862,-10.15975 12.12855,-20.32096 19.103744,-29.86433 3.018925,-1.67493 2.573957,-5.3836 -0.700733,-2.04081 -11.796539,10.00055 -20.608208,23.25657 -33.449121,32.07517 -2.437429,2.21063 -8.918744,3.69013 -9.959082,1.16996 4.223834,0.49586 1.013146,-6.29552 -1.32085,-2.12494 -1.494276,3.81083 2.977781,6.24184 6.280237,5.01623 7.333902,-2.20571 12.847999,-8.00979 18.183194,-13.21315 4.398115,-4.59038 8.573802,-9.38878 12.985962,-13.96659 -5.46111,7.18049 -11.259214,14.56237 -13.825253,23.34638 -0.913841,2.11978 0.296646,5.56262 2.278156,2.32027 8.337795,-9.99729 17.730388,-19.03403 27.324428,-27.80812 -6.898446,7.40614 -14.128397,14.82152 -18.86603,23.85849 -1.926758,2.82566 0.19584,7.04833 3.872632,5.51542 2.190912,-0.71503 6.665509,-1.49255 5.751587,-4.59765 -1.618764,1.63806 -7.277087,4.62169 -7.887891,1.88309 6.310781,-9.42677 12.845263,-18.75621 20.184425,-27.42119 1.68662,-2.4285 5.2972,-4.69303 6.3871,-6.61504 0.0441,-0.26083 0.43057,-0.95834 0.0191,-1.06034 z m 15.875,8.55761 c -1.52962,2.14974 -3.05925,4.29948 -4.58887,6.44922 -1.74391,-0.44959 -4.65092,0.57463 -2.45566,1.77767 2.33288,-0.48829 -0.0828,1.47422 -0.50367,2.40718 -4.53799,6.08347 -8.33083,13.47632 -15.73565,16.45769 -3.760488,2.38828 -8.801366,-1.01789 -5.018298,-4.92463 4.376808,-1.676 9.637628,-2.95227 12.352738,-7.08794 1.63768,-4.13134 -4.07197,-4.4614 -6.66162,-2.7749 -5.49924,2.36103 -10.731929,8.2164 -9.064557,14.55712 1.729465,4.18614 7.317247,2.70262 10.417967,1.04723 2.12381,-0.65706 4.99856,-5.03958 3.97956,-0.73121 0.77489,4.1719 6.42338,1.71452 8.50341,-0.19791 1.70263,-1.69445 2.13304,-1.87355 1.82935,0.39684 1.45844,3.85075 6.90933,1.58998 9.2568,-0.42478 1.95575,-0.98954 4.93034,-5.87173 4.01371,-1.34427 -0.0651,4.90592 6.50384,4.45793 9.25098,2.13643 2.21677,-1.38045 3.1073,-3.65913 5.67678,-2.39481 2.63658,-1.00283 6.79559,-4.26897 6.70089,-6.37171 -0.66992,-1.62011 -3.91313,4.33569 -6.18154,4.48242 -3.48138,0.61545 1.6119,-3.77427 1.12808,-5.92599 1.07457,-3.22421 -0.78346,-7.45584 -4.77882,-6.05519 -4.70154,0.9704 -8.23887,4.73987 -10.68891,8.6405 -3.05027,3.01147 -6.09537,6.90664 -10.58266,7.56278 -3.92549,-0.38518 2.00086,-4.96871 2.81844,-6.76288 1.95504,-2.67619 5.7445,-6.25441 6.58254,-8.27702 1.51069,-1.90086 -4.59096,-1.5214 -5.29767,1.5694 -4.12518,4.70709 -7.50997,10.69102 -13.55383,13.17904 -5.99258,1.32586 1.03439,-5.30448 2.06496,-7.48688 2.87407,-3.89926 5.76781,-7.78401 8.65063,-11.67681 2.49227,-0.058 5.00776,0.11858 7.48482,-0.093 0.94173,-2.09908 -1.72956,-1.6894 -3.26554,-1.68465 -1.15546,-0.1316 -3.94038,0.55656 -2.07566,-1.09444 1.06313,-1.43214 2.12626,-2.86429 3.18939,-4.29644 -0.26123,-0.60906 0.11999,-1.46526 -2.60449,-0.95916 l -0.84336,-0.0992 z m 10.0707,2.72852 c -3.40784,-0.37415 -3.32341,6.65216 0.32557,4.53719 1.53955,-0.72984 1.8426,-4.4576 -0.32557,-4.53719 z m -28.72382,10.26087 c 3.14488,2.258 -3.9181,5.16986 -6.099637,6.11601 -4.08941,2.10306 1.436847,-3.14604 2.502957,-4.33007 0.99461,-0.90399 2.19336,-1.76743 3.59668,-1.78594 z m 39.1666,0.29766 c 4.47281,1.88219 -0.41221,6.16704 -1.5627,8.50697 -1.10333,3.05737 -4.95805,5.70696 -8.31732,5.79188 -3.59105,-2.03676 0.76324,-6.33394 2.30683,-8.47713 2.10714,-2.29492 4.30736,-5.30436 7.57319,-5.82172 z"
       id="text833-7"
       inkscape:connector-curvature="0" />
    <g
       aria-label="Metio"
       style="font-style:normal;font-weight:normal;font-size:10.58333302px;line-height:1.25;font-family:sans-serif;letter-spacing:0px;word-spacing:0px;fill:#000000;fill-opacity:1;stroke:none;stroke-width:0.26458332"
       id="text833">
      <path
         d="m 81.71555,164.69568 q -1.513086,0 -2.257227,-0.66972 -0.74414,-0.69454 -0.74414,-1.68672 0,-0.71934 0.644921,-2.28203 0.644922,-1.5627 2.678907,-4.63848 2.38125,-3.54707 5.357812,-7.14375 2.976562,-3.62149 6.077148,-7.01973 3.125391,-3.39824 6.002735,-6.35 2.902144,-2.95176 5.134574,-5.15937 -1.11622,0.79375 -2.48047,1.93476 -1.36426,1.14102 -3.348636,2.95176 -1.984375,1.78594 -4.886523,4.51445 -2.902148,2.72852 -7.069336,6.72207 -2.083593,1.98438 -6.052343,6.07715 -3.943946,4.09278 -9.276953,10.31875 -1.289844,1.51309 -1.785938,1.86035 -0.471289,0.34727 -0.744141,0.34727 -0.173632,0 -0.37207,-0.24805 -0.173633,-0.24804 -0.173633,-0.79375 0,-2.08359 1.438672,-5.45703 1.438672,-3.39824 4.067969,-7.66465 2.654101,-4.29121 6.275586,-9.07851 3.621484,-4.78731 7.962304,-9.69863 -1.389062,1.26503 -5.084961,5.08496 -3.671093,3.81992 -10.194726,10.98847 -5.655469,6.20117 -10.169922,10.0211 -4.514453,3.79511 -7.987109,5.55625 -2.976562,1.48828 -5.258594,1.48828 -2.33164,0 -3.49746,-0.89297 -1.165821,-0.89297 -1.165821,-2.28203 0,-1.14102 0.768946,-1.68672 0.768945,-0.57051 1.53789,-0.57051 0.396875,0 0.818555,0.27285 0.446484,0.27285 0.446484,0.86817 0,0.47129 -0.42168,0.86816 -0.421679,0.37207 -0.992187,0.37207 -0.322461,0 -0.644922,-0.0496 -0.297656,-0.0496 -0.545703,-0.22324 0,0.0992 -0.02481,0.17363 0,0.0744 0,0.12403 0,1.0666 0.942578,1.71152 0.942579,0.64492 2.753321,0.64492 1.835547,0 4.216797,-1.09141 2.406054,-1.0914 5.655468,-3.62148 3.274219,-2.55488 7.689453,-6.8709 4.415235,-4.31601 10.293945,-10.74043 4.936133,-5.38261 8.086328,-8.38398 3.175,-3.02617 4.7625,-4.2416 1.612305,-1.21543 1.835547,-1.21543 0.173633,0 0.42168,0.0744 0.248047,0.0496 0.248047,0.17363 0,0.14883 -0.372071,0.47129 -0.248046,0.22324 -0.620117,0.54571 -0.347265,0.32246 -0.868164,0.84336 -0.644922,0.69453 -1.984375,2.57968 -1.314648,1.86035 -3.075781,4.51446 -1.736328,2.62929 -3.720703,5.70507 -1.95957,3.07578 -3.894336,6.20118 -1.934766,3.12539 -3.646289,5.92832 -1.686719,2.80293 -2.926953,4.96093 -1.21543,2.13321 -1.736328,3.19981 2.703711,-3.12539 4.886523,-5.60586 2.207617,-2.48047 4.216797,-4.63848 2.033984,-2.18281 4.142383,-4.34082 2.133203,-2.15801 4.663281,-4.58887 2.530078,-2.45566 5.754687,-5.50664 4.291211,-3.99355 7.143749,-6.30039 2.87734,-2.33164 4.58887,-3.29902 1.71152,-0.99219 2.48047,-0.99219 0.24804,0 0.24804,0.19844 0,0.17363 -0.64492,0.62012 -0.64492,0.44648 -1.38906,1.0914 -2.45566,2.15801 -5.33301,5.53145 -2.852537,3.34863 -5.853904,7.34219 -3.001367,3.99355 -5.92832,8.11113 -2.926954,4.11758 -5.506641,7.78867 -1.16582,1.71152 -1.736328,2.60449 -0.545703,0.86817 -0.694531,1.26504 -0.148828,0.37207 -0.148828,0.66973 0,1.0418 1.438671,1.0418 0.719336,0 1.934766,-0.34727 1.240234,-0.37207 2.579687,-1.0418 1.339454,-0.69453 2.331641,-1.66191 0.124023,0.0496 0.124023,0.32246 0,0.37207 -0.124023,0.57051 -1.066602,0.89297 -2.455664,1.53789 -1.389062,0.62012 -2.678906,0.96738 -1.289844,0.32246 -2.133203,0.32246 z"
         style="font-style:normal;font-variant:normal;font-weight:normal;font-stretch:normal;font-size:50.79999924px;font-family:'Pinyon Script';-inkscape-font-specification:'Pinyon Script';fill:#ffffff;fill-opacity:1;stroke-width:0.26458332"
         id="path834" />
      <path
         d="m 96.151878,164.7949 q -2.430859,0 -3.472656,-1.26504 -1.041797,-1.26504 -1.091406,-3.10058 -0.02481,-1.33946 0.545703,-2.97657 0.570508,-1.63711 1.190625,-2.50527 1.835547,-2.55488 3.96875,-4.16719 2.133203,-1.6123 4.167186,-2.35644 2.05879,-0.76895 3.62149,-0.76895 1.51308,0 2.10839,0.4961 0.62012,0.49609 0.64493,1.14101 0.0744,0.96738 -1.0418,2.25723 -1.09141,1.26504 -3.84473,2.75332 -2.75332,1.48828 -7.68945,3.12539 -0.868164,1.38906 -1.165821,2.40605 -0.297656,0.99219 -0.297656,1.78594 0,1.16582 0.768945,1.81074 0.79375,0.64492 1.860352,0.64492 2.33164,0 4.36562,-0.86816 2.05879,-0.89297 3.74551,-2.23242 1.71153,-1.33945 3.00137,-2.70371 1.28984,-1.38906 2.1084,-2.40606 0.81855,-1.04179 1.0914,-1.28984 l 0.5209,0.42168 q -0.37207,0.32246 -1.26504,1.41387 -0.86816,1.0914 -2.23242,2.50527 -1.33945,1.41387 -3.10058,2.75332 -1.76114,1.33945 -3.91914,2.23242 -2.133208,0.89297 -4.588872,0.89297 z m -0.322461,-8.23516 q 4.812113,-1.68671 7.590233,-3.47265 2.77813,-1.81074 2.77813,-3.44785 0,-1.38907 -1.28985,-1.38907 -1.66191,0 -3.59668,1.78594 -1.934762,1.78594 -4.51445,5.18418 -0.545703,0.69453 -0.967383,1.33945 z"
         style="font-style:normal;font-variant:normal;font-weight:normal;font-stretch:normal;font-size:50.79999924px;font-family:'Pinyon Script';-inkscape-font-specification:'Pinyon Script';fill:#ffffff;fill-opacity:1;stroke-width:0.26458332"
         id="path836" />
      <path
         d="m 109.0007,164.69568 q -1.36425,0 -2.03398,-0.5457 -0.69453,-0.5457 -0.69453,-1.38906 0,-0.66973 0.17363,-1.31465 0.17363,-0.66973 0.74414,-1.68672 0.57051,-1.01699 1.73633,-2.72852 1.16582,-1.73632 3.1502,-4.53925 l 6.39961,-9.00411 h -1.95957 q -0.74415,0 -0.74415,-0.32246 0,-0.39687 0.94258,-0.39687 h 2.25723 l 4.58887,-6.44922 q 0.32246,0.0496 0.84336,0.0992 0.5457,0.0248 1.53789,0 0.49609,0 1.0666,-0.0992 l -4.78731,6.44922 h 6.39961 q 0.69453,0 0.69453,0.34726 0,0.37207 -0.62011,0.37207 h -7.01973 l -6.54844,8.83047 q -2.33164,3.12539 -3.74551,5.13457 -1.41386,2.00918 -2.158,3.175 -0.71934,1.16582 -0.99219,1.73633 -0.24805,0.57051 -0.24805,0.84336 0,0.74414 1.24024,0.79375 1.71152,-0.0248 3.52226,-1.11621 1.83555,-1.11621 3.52227,-2.70371 1.68672,-1.61231 3.02617,-3.1502 1.33945,-1.56269 2.08359,-2.45566 l 0.54571,0.42168 q -0.71934,0.84336 -2.1084,2.43086 -1.38906,1.5875 -3.19981,3.27422 -1.78593,1.66191 -3.7455,2.82773 -1.95957,1.16582 -3.86954,1.16582 z"
         style="font-style:normal;font-variant:normal;font-weight:normal;font-stretch:normal;font-size:50.79999924px;font-family:'Pinyon Script';-inkscape-font-specification:'Pinyon Script';fill:#ffffff;fill-opacity:1;stroke-width:0.26458332"
         id="path838" />
      <path
         d="m 132.66438,142.91717 q -0.69453,0 -1.11621,-0.42168 -0.39688,-0.44649 -0.39688,-1.11621 0,-0.86817 0.71934,-1.5875 0.74414,-0.74414 1.76113,-0.74414 0.69453,0 1.09141,0.47128 0.42168,0.44649 0.42168,1.09141 0,0.91777 -0.79375,1.61231 -0.76895,0.69453 -1.68672,0.69453 z m -12.6752,21.77851 q -1.51308,0 -2.43086,-0.5457 -0.94257,-0.57051 -0.94257,-1.51309 0,-0.74414 0.37207,-1.71152 0.37207,-0.99219 1.43867,-2.57969 1.04179,-1.5875 3.05097,-4.11758 2.03399,-2.55488 5.33301,-6.39961 0.22324,0.0248 1.0666,0.0496 0.84336,0.0248 1.31465,0.0248 0.42168,0 0.62012,0 0.22324,-0.0248 0.42168,-0.0496 -3.62149,4.26641 -5.92832,7.01973 -2.28203,2.75332 -3.52227,4.39043 -1.24023,1.6371 -1.71152,2.50527 -0.47129,0.86816 -0.47129,1.38906 0,0.64492 0.69453,0.74414 0.69453,0.0992 1.11621,0.0992 1.33946,0 2.92696,-0.89297 1.5875,-0.91777 3.15019,-2.25722 1.5875,-1.36426 2.92695,-2.75333 1.36426,-1.38906 2.23243,-2.38124 0.86816,-1.017 1.01699,-1.16583 l 0.49609,0.44649 q -0.27285,0.29766 -1.19062,1.36426 -0.91778,1.0666 -2.28203,2.48047 -1.36426,1.38906 -3.00137,2.72851 -1.61231,1.33945 -3.34863,2.23242 -1.71153,0.89297 -3.34864,0.89297 z"
         style="font-style:normal;font-variant:normal;font-weight:normal;font-stretch:normal;font-size:50.79999924px;font-family:'Pinyon Script';-inkscape-font-specification:'Pinyon Script';fill:#ffffff;fill-opacity:1;stroke-width:0.26458332"
         id="path840" />
      <path
         d="m 134.07825,164.69568 q -2.0836,0 -3.07578,-0.94258 -0.99219,-0.96738 -1.11622,-2.35644 -0.0744,-1.68672 0.69454,-3.62149 0.79375,-1.93476 1.71152,-3.24941 1.21543,-1.71152 2.95176,-3.27422 1.73633,-1.5875 3.79511,-2.57969 2.0836,-1.01699 4.26641,-1.01699 1.31465,0 2.25723,0.69453 0.96738,0.66973 1.0666,2.15801 0.12402,2.1084 -0.81856,4.44004 -0.94257,2.30684 -2.55488,4.29121 0.17363,0.71934 1.11621,0.71934 0.91778,0 2.00918,-0.71934 1.09141,-0.74414 2.1084,-1.73633 1.0418,-0.99218 1.78594,-1.83554 0.74414,-0.84336 0.99219,-1.09141 l 0.5457,0.42168 q -0.47129,0.44648 -1.33945,1.38906 -0.86817,0.91777 -1.93477,1.90996 -1.0418,0.96739 -2.15801,1.66192 -1.0914,0.69453 -2.05879,0.69453 -1.19062,0 -1.6123,-0.74414 -1.83555,2.08359 -4.14238,3.44785 -2.28204,1.33945 -4.48965,1.33945 z m 0.64492,-0.74414 q 0.86816,0 2.00918,-0.49609 1.14101,-0.4961 2.28203,-1.31465 1.90996,-1.36426 3.44785,-3.19981 v -0.0992 q 0,-1.5379 0.79375,-2.43086 0.81856,-0.91778 1.5875,-1.16582 1.21543,-2.53008 1.09141,-4.53926 -0.0744,-1.21543 -0.64492,-1.68672 -0.54571,-0.47129 -1.21543,-0.47129 -1.43868,0 -3.54707,1.71152 -2.0836,1.68672 -4.66329,4.88653 -1.83554,2.30683 -2.57968,3.89433 -0.71934,1.5875 -0.62012,2.75332 0,0.66973 0.44648,1.41387 0.47129,0.74414 1.61231,0.74414 z"
         style="font-style:normal;font-variant:normal;font-weight:normal;font-stretch:normal;font-size:50.79999924px;font-family:'Pinyon Script';-inkscape-font-specification:'Pinyon Script';fill:#ffffff;fill-opacity:1;stroke-width:0.26458332"
         id="path842" />
    </g>
  </g>
</svg>
