<?xml version="1.0" encoding="UTF-8" standalone="no"?>
<!-- Created with Inkscape (http://www.inkscape.org/) -->

<svg
   xmlns:dc="http://purl.org/dc/elements/1.1/"
   xmlns:cc="http://creativecommons.org/ns#"
   xmlns:rdf="http://www.w3.org/1999/02/22-rdf-syntax-ns#"
   xmlns:svg="http://www.w3.org/2000/svg"
   xmlns="http://www.w3.org/2000/svg"
   xmlns:xlink="http://www.w3.org/1999/xlink"
   xmlns:sodipodi="http://sodipodi.sourceforge.net/DTD/sodipodi-0.dtd"
   xmlns:inkscape="http://www.inkscape.org/namespaces/inkscape"
   width="210mm"
   height="297mm"
   viewBox="0 0 210 297"
   version="1.1"
   id="svg8"
   sodipodi:docname="metio.svg"
   inkscape:version="0.92.5 (2060ec1f9f, 2020-04-08)">
  <defs
     id="defs2">
    <marker
       inkscape:isstock="true"
       style="overflow:visible;"
       id="marker8396"
       refX="0.0"
       refY="0.0"
       orient="auto"
       inkscape:stockid="Arrow2Send">
      <path
         transform="scale(0.3) rotate(180) translate(-2.3,0)"
         d="M 8.7185878,4.0337352 L -2.2072895,0.016013256 L 8.7185884,-4.0017078 C 6.9730900,-1.6296469 6.9831476,1.6157441 8.7185878,4.0337352 z "
         style="fill-rule:evenodd;stroke-width:0.625;stroke-linejoin:round;stroke:#ffffff;stroke-opacity:1;fill:#ffffff;fill-opacity:1"
         id="path8394" />
    </marker>
    <marker
       inkscape:isstock="true"
       style="overflow:visible;"
       id="marker8374"
       refX="0.0"
       refY="0.0"
       orient="auto"
       inkscape:stockid="Arrow2Send">
      <path
         transform="scale(0.3) rotate(180) translate(-2.3,0)"
         d="M 8.7185878,4.0337352 L -2.2072895,0.016013256 L 8.7185884,-4.0017078 C 6.9730900,-1.6296469 6.9831476,1.6157441 8.7185878,4.0337352 z "
         style="fill-rule:evenodd;stroke-width:0.625;stroke-linejoin:round;stroke:#ffffff;stroke-opacity:1;fill:#ffffff;fill-opacity:1"
         id="path8372" />
    </marker>
    <marker
       inkscape:stockid="Arrow2Send"
       orient="auto"
       refY="0.0"
       refX="0.0"
       id="marker8352"
       style="overflow:visible;"
       inkscape:isstock="true"
       inkscape:collect="always">
      <path
         id="path8350"
         style="fill-rule:evenodd;stroke-width:0.625;stroke-linejoin:round;stroke:#ffffff;stroke-opacity:1;fill:#ffffff;fill-opacity:1"
         d="M 8.7185878,4.0337352 L -2.2072895,0.016013256 L 8.7185884,-4.0017078 C 6.9730900,-1.6296469 6.9831476,1.6157441 8.7185878,4.0337352 z "
         transform="scale(0.3) rotate(180) translate(-2.3,0)" />
    </marker>
    <marker
       inkscape:isstock="true"
       style="overflow:visible;"
       id="marker1390"
       refX="0.0"
       refY="0.0"
       orient="auto"
       inkscape:stockid="Arrow2Send">
      <path
         transform="scale(0.3) rotate(180) translate(-2.3,0)"
         d="M 8.7185878,4.0337352 L -2.2072895,0.016013256 L 8.7185884,-4.0017078 C 6.9730900,-1.6296469 6.9831476,1.6157441 8.7185878,4.0337352 z "
         style="fill-rule:evenodd;stroke-width:0.625;stroke-linejoin:round;stroke:#fefefe;stroke-opacity:1;fill:#fefefe;fill-opacity:1"
         id="path1388" />
    </marker>
    <marker
       inkscape:stockid="Arrow1Lstart"
       orient="auto"
       refY="0.0"
       refX="0.0"
       id="Arrow1Lstart"
       style="overflow:visible"
       inkscape:isstock="true">
      <path
         id="path880"
         d="M 0.0,0.0 L 5.0,-5.0 L -12.5,0.0 L 5.0,5.0 L 0.0,0.0 z "
         style="fill-rule:evenodd;stroke:#000000;stroke-width:1pt;stroke-opacity:1;fill:#000000;fill-opacity:1"
         transform="scale(0.8) translate(12.5,0)" />
    </marker>
    <marker
       inkscape:stockid="Arrow1Sstart"
       orient="auto"
       refY="0.0"
       refX="0.0"
       id="Arrow1Sstart"
       style="overflow:visible"
       inkscape:isstock="true">
      <path
         id="path892"
         d="M 0.0,0.0 L 5.0,-5.0 L -12.5,0.0 L 5.0,5.0 L 0.0,0.0 z "
         style="fill-rule:evenodd;stroke:#000000;stroke-width:1pt;stroke-opacity:1;fill:#000000;fill-opacity:1"
         transform="scale(0.2) translate(6,0)" />
    </marker>
  </defs>
  <sodipodi:namedview
     id="base"
     pagecolor="#ffffff"
     bordercolor="#666666"
     borderopacity="1.0"
     inkscape:pageopacity="0.0"
     inkscape:pageshadow="2"
     inkscape:zoom="0.98994949"
     inkscape:cx="189.6003"
     inkscape:cy="537.60825"
     inkscape:document-units="mm"
     inkscape:current-layer="g878"
     showgrid="false"
     showguides="false"
     inkscape:window-width="1366"
     inkscape:window-height="705"
     inkscape:window-x="0"
     inkscape:window-y="0"
     inkscape:window-maximized="1" />
  <metadata
     id="metadata5">
    <rdf:RDF>
      <cc:Work
         rdf:about="">
        <dc:format>image/svg+xml</dc:format>
        <dc:type
           rdf:resource="http://purl.org/dc/dcmitype/StillImage" />
      </cc:Work>
    </rdf:RDF>
  </metadata>
  <g
     inkscape:label="Tavolo 1"
     inkscape:groupmode="layer"
     id="layer1">
    <rect
       style="opacity:1;fill:#000000;fill-opacity:1;stroke:none;stroke-width:2.64583325;stroke-linecap:round;stroke-linejoin:round;stroke-miterlimit:4;stroke-dasharray:none;stroke-opacity:1;paint-order:normal"
       id="rect1638"
       width="136.30745"
       height="93.8116"
       x="0"
       y="107.23863" />
    <g
       id="g878"
       style="stroke-width:2.64583333;stroke-miterlimit:4;stroke-dasharray:none">
      <path
         inkscape:connector-curvature="0"
         id="path828"
         d="m 20.312484,153.34263 c 0.152325,-5.23523 2.05881,-11.1132 6.384034,-13.89628 4.597444,-2.95824 5.957872,5.88266 5.609371,9.5684 -0.679101,7.18216 -0.731737,14.43777 -2.10534,21.55621 -0.433098,2.24445 -0.343501,9.86671 -3.179018,6.99087 -2.607403,-2.64448 -0.387455,-7.26751 -0.128993,-10.83922 0.684776,-9.46298 4.553358,-18.30866 8.192086,-27.13193 1.750088,-4.24365 5.846947,-5.52654 6.760566,-0.20535 1.183908,6.89543 0.690372,13.67949 0.193777,20.44831 -0.360951,4.91993 -0.358423,9.92431 -1.376049,14.73897 -0.913503,4.32203 -5.475959,1.2924 -4.624037,-2.43939 1.258626,-5.51333 2.865043,-10.81649 4.160155,-16.28522 1.693573,-7.15127 2.306321,-15.51427 7.454784,-20.79646 2.979418,-3.05681 2.428905,5.63409 2.318991,7.97092 -0.280536,5.96437 -0.433609,12.00757 -2.107415,17.7834 -0.436848,1.50744 -1.690075,8.60469 -2.135836,5.45979 -0.981352,-6.92357 1.509315,-17.19001 8.311199,-19.19374 3.98814,-1.17484 -1.699297,7.39081 -1.804843,11.05998 -0.11409,3.96618 -3.330562,11.98803 1.701312,12.74645 4.699462,0.70832 6.796916,-5.53493 8.348316,-9.41794 1.187877,-2.97315 2.867175,-6.66299 1.397945,-9.56136 -2.141179,-4.22394 -5.492907,2.95583 -5.893404,5.53125 -0.681931,4.38519 0.402946,9.62361 3.922117,12.30209 3.954993,3.01019 5.79182,-3.21869 6.886209,-6.21957 3.461813,-9.49248 6.987019,-18.96625 10.321541,-28.49551 0.661858,-1.89143 3.513818,-8.92287 0.318585,-6.64862 -3.598749,2.56145 -2.348906,8.39662 -4.296647,12.47333 -3.349488,7.01064 -4.28946,14.94875 -5.168844,22.6368 -0.547987,4.79081 5.529798,8.00347 8.79132,4.11633 3.043029,-3.62674 4.900376,-8.24232 5.859193,-12.82819 0.476314,-2.27814 2.842672,-9.08375 4.232059,-4.66307 1.301278,4.14034 -5.750714,6.51499 -6.296907,11.13199 -0.731635,6.18454 5.799893,2.91413 7.753298,-0.67759 2.823906,-5.1923 7.393653,-9.25248 11.652321,-13.37842 3.74344,-3.62676 9.66997,-1.45763 10.78215,3.53919 1.44804,6.50575 -0.37685,13.4367 -5.06961,18.10405 -3.60463,3.58511 -9.165508,6.81018 -14.188131,4.31859 -3.690961,-1.83099 -3.114112,-6.6335 -2.40115,-9.98196 1.212514,-5.69462 3.327257,-11.58063 8.126654,-15.29998 3.694927,-2.86343 8.539957,-3.11701 12.971687,-3.73787"
         style="fill:none;fill-opacity:1;stroke:#ffffff;stroke-width:2.64583325;stroke-linecap:round;stroke-linejoin:round;stroke-miterlimit:4;stroke-dasharray:none;stroke-opacity:1;marker-start:url(#marker8374);paint-order:normal;marker-end:url(#marker8396)"
         sodipodi:nodetypes="cssssssssssssssssssssssssssssssssssssssc" />
      <path
         inkscape:connector-curvature="0"
         id="path830"
         d="m 64.882026,143.59266 c 0,0 7.180846,1.26822 10.824417,0.93544 3.643571,-0.33277 8.197115,-2.24641 10.69078,-2.93996"
         style="fill:none;stroke:#ffffff;stroke-width:2.64583325;stroke-linecap:butt;stroke-linejoin:miter;stroke-miterlimit:4;stroke-dasharray:none;stroke-opacity:1;marker-start:url(#marker1390);marker-end:url(#marker1390)"
         sodipodi:nodetypes="czc" />
      <use
         id="use1838"
         inkscape:spray-origin="#path828"
         xlink:href="#path828"
         x="0"
         y="0"
         width="100%"
         height="100%"
         transform="translate(-97.703407,-19.782994)" />
      <use
         id="use1840"
         inkscape:spray-origin="#path828"
         xlink:href="#path828"
         x="0"
         y="0"
         width="100%"
         height="100%"
         transform="translate(-102.37412,4.2500041)" />
      <use
         id="use1842"
         inkscape:spray-origin="#path828"
         xlink:href="#path828"
         x="0"
         y="0"
         width="100%"
         height="100%"
         transform="translate(-103.91745,-0.96803475)" />
      <use
         id="use1844"
         inkscape:spray-origin="#path828"
         xlink:href="#path828"
         x="0"
         y="0"
         width="100%"
         height="100%"
         transform="translate(-95.400638,12.286645)" />
      <use
         id="use1932"
         inkscape:spray-origin="#path828"
         xlink:href="#path828"
         x="0"
         y="0"
         width="100%"
         height="100%"
         transform="translate(-105.87684,15.390716)" />
    </g>
    <circle
       style="opacity:1;fill:#000000;fill-opacity:1;stroke:none;stroke-width:1.18404055;stroke-linecap:round;stroke-linejoin:miter;stroke-miterlimit:4;stroke-dasharray:none;stroke-opacity:1;paint-order:normal"
       id="path832"
       cx="91.906319"
       cy="143.77988"
       r="1.9377038" />
  </g>
</svg>
