<?xml version="1.0" encoding="UTF-8" standalone="no"?>
<!-- Created with Inkscape (http://www.inkscape.org/) -->

<svg
   width="135.46666mm"
   height="135.46666mm"
   viewBox="0 0 135.46666 135.46666"
   version="1.1"
   id="svg5"
   inkscape:version="1.1.2 (0a00cf5339, 2022-02-04)"
   sodipodi:docname="zola.svg"
   xmlns:inkscape="http://www.inkscape.org/namespaces/inkscape"
   xmlns:sodipodi="http://sodipodi.sourceforge.net/DTD/sodipodi-0.dtd"
   xmlns="http://www.w3.org/2000/svg"
   xmlns:svg="http://www.w3.org/2000/svg">
  <sodipodi:namedview
     id="namedview7"
     pagecolor="#ffffff"
     bordercolor="#666666"
     borderopacity="1.0"
     inkscape:pageshadow="2"
     inkscape:pageopacity="0.0"
     inkscape:pagecheckerboard="0"
     inkscape:document-units="mm"
     showgrid="false"
     inkscape:zoom="1.4709171"
     inkscape:cx="155.34527"
     inkscape:cy="282.47684"
     inkscape:window-width="1536"
     inkscape:window-height="800"
     inkscape:window-x="0"
     inkscape:window-y="27"
     inkscape:window-maximized="1"
     inkscape:current-layer="text1410" />
  <defs
     id="defs2" />
  <g
     inkscape:label="Tavolo 1"
     inkscape:groupmode="layer"
     id="layer1"
     transform="translate(-135.46666)">
    <rect
       style="fill:#ffffff;fill-opacity:1;stroke:none;stroke-width:1.324;stroke-linecap:round;stroke-opacity:1"
       id="rect1512"
       width="135.467"
       height="135.46666"
       x="135.46666"
       y="-1.9073486e-06"
       rx="67.733498"
       ry="67.73333" />
    <g
       aria-label="Zola"
       id="text1410"
       style="font-size:44.1031px;line-height:1.25;fill:#212529;stroke-width:1.10258">
      <path
         d="M 161.35411,78.460642 180.75689,54.147947 H 162.7754 v -3.768576 h 23.49438 v 3.682437 l -19.51045,24.183487 h 19.51045 v 3.768575 h -24.91567 z m 13.17925,-28.081271 z"
         style="font-family:Helvetica;-inkscape-font-specification:Helvetica"
         id="path3464" />
      <path
         d="m 199.27675,79.515843 q 3.85471,0 5.276,-2.907187 1.44283,-2.928721 1.44283,-6.503484 0,-3.230208 -1.03367,-5.254471 -1.63664,-3.187138 -5.64209,-3.187138 -3.55323,0 -5.16834,2.713374 -1.6151,2.713375 -1.6151,6.546554 0,3.682437 1.6151,6.137394 1.61511,2.454958 5.12527,2.454958 z m 0.15074,-21.233231 q 4.45769,0 7.53715,2.971791 3.07947,2.971791 3.07947,8.743095 0,5.577492 -2.71338,9.216859 -2.71337,3.639367 -8.42007,3.639367 -4.75918,0 -7.55869,-3.208673 -2.79951,-3.230207 -2.79951,-8.656956 0,-5.814373 2.95025,-9.259928 2.95026,-3.445555 7.92478,-3.445555 z m -0.12921,0.107674 z"
         style="font-family:Helvetica;-inkscape-font-specification:Helvetica"
         id="path3466" />
      <path
         d="m 214.76021,50.379371 h 3.87625 V 82.01387 h -3.87625 z"
         style="font-family:Helvetica;-inkscape-font-specification:Helvetica"
         id="path3468" />
      <path
         d="m 227.42262,75.876476 q 0,1.679708 1.22748,2.64877 1.22748,0.969062 2.90718,0.969062 2.0458,0 3.96239,-0.947527 3.23021,-1.572034 3.23021,-5.146797 V 70.27745 q -0.71065,0.452229 -1.83045,0.753715 -1.11981,0.301486 -2.19654,0.430694 l -2.34729,0.301486 q -2.1104,0.279951 -3.1656,0.882923 -1.78738,1.012132 -1.78738,3.230208 z m 9.38914,-7.838637 q 1.33515,-0.172278 1.78738,-1.119805 0.25841,-0.516833 0.25841,-1.485896 0,-1.981194 -1.42129,-2.864117 -1.39975,-0.904458 -4.02699,-0.904458 -3.03639,0 -4.30694,1.636638 -0.71065,0.904459 -0.926,2.69184 h -3.61783 q 0.10768,-4.263874 2.75645,-5.922047 2.6703,-1.679708 6.18046,-1.679708 4.07006,0 6.61116,1.5505 2.51956,1.550499 2.51956,4.823776 v 13.28692 q 0,0.602972 0.23688,0.969063 0.25842,0.36609 1.0552,0.36609 0.25842,0 0.58144,-0.02154 0.32302,-0.04307 0.68911,-0.107673 v 2.864117 q -0.90446,0.258416 -1.37822,0.323021 -0.47376,0.0646 -1.29208,0.0646 -2.00273,0 -2.90719,-1.421292 -0.47376,-0.753715 -0.66758,-2.131937 -1.18441,1.5505 -3.40248,2.69184 -2.21808,1.14134 -4.88838,1.14134 -3.20868,0 -5.25447,-1.938124 -2.02427,-1.95966 -2.02427,-4.888381 0,-3.208673 2.00273,-4.97452 2.00273,-1.765846 5.25447,-2.175006 z m -3.20868,-9.647553 z"
         style="font-family:Helvetica;-inkscape-font-specification:Helvetica"
         id="path3470" />
    </g>
  </g>
</svg>
