<?xml version="1.0" encoding="UTF-8" standalone="no"?>
<!-- Created with Inkscape (http://www.inkscape.org/) -->

<svg
   width="112.67797mm"
   height="88.588013mm"
   viewBox="0 0 112.67797 88.588013"
   version="1.1"
   id="svg5"
   sodipodi:docname="socio_vertical.svg"
   inkscape:version="1.1.2 (0a00cf5339, 2022-02-04)"
   xmlns:inkscape="http://www.inkscape.org/namespaces/inkscape"
   xmlns:sodipodi="http://sodipodi.sourceforge.net/DTD/sodipodi-0.dtd"
   xmlns="http://www.w3.org/2000/svg"
   xmlns:svg="http://www.w3.org/2000/svg">
  <sodipodi:namedview
     id="namedview7"
     pagecolor="#ffffff"
     bordercolor="#666666"
     borderopacity="1.0"
     inkscape:pageshadow="2"
     inkscape:pageopacity="0.0"
     inkscape:pagecheckerboard="0"
     inkscape:document-units="mm"
     showgrid="false"
     inkscape:zoom="0.77968655"
     inkscape:cx="179.55934"
     inkscape:cy="196.2327"
     inkscape:window-width="1280"
     inkscape:window-height="653"
     inkscape:window-x="0"
     inkscape:window-y="37"
     inkscape:window-maximized="1"
     inkscape:current-layer="layer1" />
  <defs
     id="defs2" />
  <g
     inkscape:label="Шар 1"
     inkscape:groupmode="layer"
     id="layer1"
     transform="translate(-75.019202,-97.288712)">
    <rect
       style="fill:#800000;stroke-width:0.264583"
       id="rect31"
       width="52.965229"
       height="52.965229"
       x="105.12247"
       y="97.288712"
       ry="7.6370115" />
    <path
       style="fill:none;stroke:#ffffff;stroke-width:2.11667;stroke-linecap:round;stroke-linejoin:miter;stroke-miterlimit:4;stroke-dasharray:none;stroke-opacity:1"
       d="m 111.26058,129.51208 v 14.60376 h 38.654"
       id="path4784"
       sodipodi:nodetypes="ccc" />
    <g
       aria-label="Socio"
       id="text21743-3"
       style="font-size:45.2302px;line-height:1.25;stroke-width:1.13076">
      <path
         d="m 95.116606,159.3084 -3.290674,1.12634 -0.242936,-0.72881 q -0.706721,-1.98765 -2.252676,-3.02565 -1.545954,-1.038 -3.379014,-1.038 -2.14225,0 -3.489439,1.36928 -1.347189,1.34718 -1.347189,3.29067 0,1.038 0.530042,1.87723 0.552126,0.83923 1.457614,1.43553 0.905487,0.59629 2.09808,1.14842 1.192593,0.53004 2.495612,1.08217 1.303018,0.53004 2.606037,1.12634 1.303018,0.57421 2.495612,1.39136 1.192593,0.79506 2.09808,1.78889 0.905488,0.97174 1.435529,2.40727 0.552127,1.41344 0.552127,3.13608 0,2.93731 -1.56804,5.32249 -1.568039,2.36311 -4.06365,3.62195 -2.495612,1.23677 -5.344585,1.23677 -1.87723,0 -3.599865,-0.5963 -1.722634,-0.5963 -3.224418,-1.7668 -1.479699,-1.17051 -2.539782,-3.114 -1.060083,-1.96557 -1.413444,-4.48326 l -0.110425,-0.7509 3.467354,-0.41961 0.110425,0.70672 q 0.265021,1.78889 0.971743,3.18025 0.706722,1.36927 1.70055,2.18642 0.993827,0.79506 2.164335,1.21468 1.170509,0.39753 2.473527,0.39753 3.025653,0 5.256244,-1.89932 2.252676,-1.89931 2.252676,-4.92496 0,-1.6343 -0.883402,-2.87106 -0.861317,-1.23677 -2.252676,-2.00974 -1.369274,-0.79507 -3.047738,-1.4797 -1.678465,-0.70672 -3.379014,-1.45762 -1.678465,-0.75089 -3.069824,-1.67846 -1.369273,-0.92757 -2.252676,-2.40727 -0.861317,-1.50179 -0.861317,-3.46736 0,-3.33484 2.318931,-5.67586 2.318931,-2.3631 5.962966,-2.3631 2.893143,0 5.36667,1.67847 2.473526,1.67846 3.533609,4.7262 z"
         style="font-weight:bold;font-family:Sawasdee;-inkscape-font-specification:'Sawasdee Bold'"
         id="path2973" />
      <path
         d="m 123.56216,168.49579 q 1.61221,2.6502 1.61221,5.78628 0,3.13608 -1.61221,5.78629 -1.61221,2.6502 -4.37284,4.19616 -2.76063,1.52387 -6.00714,1.52387 -3.26858,0 -6.0513,-1.52387 -2.76063,-1.54596 -4.37284,-4.19616 -1.61221,-2.65021 -1.61221,-5.78629 0,-3.13608 1.61221,-5.78628 1.61221,-2.6723 4.37284,-4.19617 2.78272,-1.54595 6.0513,-1.54595 3.24651,0 6.00714,1.54595 2.76063,1.52387 4.37284,4.19617 z m -18.88272,5.78628 q 0,3.42319 2.49561,5.80837 2.49561,2.38519 6.0513,2.38519 3.5557,0 6.0734,-2.38519 2.51769,-2.40727 2.51769,-5.80837 0,-3.37901 -2.51769,-5.7642 -2.5177,-2.40727 -6.0734,-2.40727 -3.55569,0 -6.0513,2.40727 -2.49561,2.38519 -2.49561,5.7642 z"
         style="font-weight:bold;font-family:Sawasdee;-inkscape-font-specification:'Sawasdee Bold'"
         id="path2975" />
      <path
         d="m 146.81773,178.03653 3.02565,1.61221 q -3.55569,6.13965 -9.58491,6.13965 -3.00357,0 -5.49918,-1.56804 -2.49562,-1.56804 -3.90906,-4.19616 -1.39136,-2.65021 -1.39136,-5.74212 0,-3.06982 1.39136,-5.69794 1.41344,-2.65021 3.90906,-4.24034 2.49561,-1.59012 5.49918,-1.59012 1.23676,0 2.40727,0.30919 1.17051,0.28711 1.98765,0.68464 0.83924,0.37544 1.67847,1.06008 0.86132,0.68464 1.3251,1.12634 0.46379,0.4417 1.01591,1.21468 0.57422,0.77297 0.70673,0.99383 0.13251,0.22085 0.46378,0.75089 l -3.02565,1.70055 q -0.33128,-0.5963 -0.61838,-0.99383 -0.26502,-0.41962 -0.90549,-1.12634 -0.61838,-0.70672 -1.28093,-1.14842 -0.64047,-0.46379 -1.6343,-0.79506 -0.99383,-0.35337 -2.12016,-0.35337 -3.00357,0 -5.21208,2.31894 -2.18642,2.31893 -2.18642,5.74211 0,3.42319 2.20851,5.80837 2.23059,2.38519 5.18999,2.38519 1.1705,0 2.23059,-0.39753 1.06008,-0.39753 1.70055,-0.83923 0.64046,-0.44171 1.28093,-1.21468 0.66255,-0.79507 0.83923,-1.08217 0.17668,-0.28711 0.50796,-0.86132 z"
         style="font-weight:bold;font-family:Sawasdee;-inkscape-font-specification:'Sawasdee Bold'"
         id="path2977" />
      <path
         d="m 156.77809,155.79688 q 1.038,0 1.7668,0.70672 0.7509,0.70672 0.7509,1.72263 0,0.99383 -0.7509,1.67847 -0.7288,0.68463 -1.7668,0.68463 -1.08217,0 -1.81098,-0.68463 -0.7288,-0.68464 -0.7288,-1.67847 0,-1.01591 0.7288,-1.72263 0.7509,-0.70672 1.81098,-0.70672 z m 1.70055,29.7044 h -3.48944 v -22.39425 h 3.48944 z"
         style="font-weight:bold;font-family:Sawasdee;-inkscape-font-specification:'Sawasdee Bold'"
         id="path2979" />
      <path
         d="m 186.08497,168.49579 q 1.61221,2.6502 1.61221,5.78628 0,3.13608 -1.61221,5.78629 -1.61221,2.6502 -4.37285,4.19616 -2.76063,1.52387 -6.00713,1.52387 -3.26859,0 -6.05131,-1.52387 -2.76063,-1.54596 -4.37284,-4.19616 -1.61221,-2.65021 -1.61221,-5.78629 0,-3.13608 1.61221,-5.78628 1.61221,-2.6723 4.37284,-4.19617 2.78272,-1.54595 6.05131,-1.54595 3.2465,0 6.00713,1.54595 2.76064,1.52387 4.37285,4.19617 z m -18.88273,5.78628 q 0,3.42319 2.49561,5.80837 2.49561,2.38519 6.05131,2.38519 3.55569,0 6.07339,-2.38519 2.5177,-2.40727 2.5177,-5.80837 0,-3.37901 -2.5177,-5.7642 -2.5177,-2.40727 -6.07339,-2.40727 -3.5557,0 -6.05131,2.40727 -2.49561,2.38519 -2.49561,5.7642 z"
         style="font-weight:bold;font-family:Sawasdee;-inkscape-font-specification:'Sawasdee Bold'"
         id="path2981" />
    </g>
    <g
       aria-label="S"
       id="text1113-6-5"
       style="font-size:42.5653px;line-height:1.25;font-family:C059;-inkscape-font-specification:C059;fill:#ffffff;stroke-width:1.06413">
      <path
         d="m 140.2035,114.11776 -3.0968,1.05998 -0.22862,-0.68587 q -0.66508,-1.87054 -2.11995,-2.84738 -1.45487,-0.97684 -3.17993,-0.97684 -2.01603,0 -3.28384,1.28859 -1.26782,1.26782 -1.26782,3.0968 0,0.97684 0.49881,1.76662 0.5196,0.78979 1.37174,1.35095 0.85214,0.56117 1.97446,1.08076 1.12233,0.49881 2.34858,1.01841 1.22624,0.49881 2.45249,1.05998 1.22625,0.54037 2.34857,1.30938 1.12233,0.74821 1.97447,1.68349 0.85214,0.91449 1.35095,2.26544 0.51959,1.33016 0.51959,2.9513 0,2.76425 -1.47565,5.00891 -1.47565,2.22387 -3.82423,3.40855 -2.34857,1.16389 -5.02968,1.16389 -1.76663,0 -3.38777,-0.56116 -1.62114,-0.56117 -3.03444,-1.66271 -1.39252,-1.10154 -2.39014,-2.93052 -0.99763,-1.84976 -1.33017,-4.21912 l -0.10392,-0.70665 3.26307,-0.39489 0.10392,0.66508 q 0.2494,1.68349 0.91448,2.99287 0.66509,1.2886 1.60036,2.0576 0.93527,0.74822 2.03682,1.14311 1.10154,0.37411 2.32779,0.37411 2.84738,0 4.94655,-1.78741 2.11995,-1.78741 2.11995,-4.63479 0,-1.53801 -0.83135,-2.7019 -0.81057,-1.1639 -2.11995,-1.89133 -1.2886,-0.74822 -2.86817,-1.39252 -1.57958,-0.66508 -3.17993,-1.37173 -1.57957,-0.70665 -2.88895,-1.57957 -1.2886,-0.87293 -2.11996,-2.26544 -0.81057,-1.4133 -0.81057,-3.26307 0,-3.13836 2.18231,-5.34144 2.1823,-2.22387 5.61163,-2.22387 2.72269,0 5.05048,1.57957 2.32779,1.57957 3.32541,4.44774 z"
         style="font-weight:bold;font-family:Sawasdee;-inkscape-font-specification:'Sawasdee Bold'"
         id="path3021" />
    </g>
  </g>
</svg>
