<?xml version="1.0" encoding="UTF-8" standalone="no"?>
<!-- Created with Inkscape (http://www.inkscape.org/) -->

<svg
   width="33.866665mm"
   height="33.866665mm"
   viewBox="0 0 33.866665 33.866665"
   version="1.1"
   id="svg47951"
   sodipodi:docname="socio_favicon.svg"
   inkscape:version="1.1.2 (0a00cf5339, 2022-02-04)"
   xmlns:inkscape="http://www.inkscape.org/namespaces/inkscape"
   xmlns:sodipodi="http://sodipodi.sourceforge.net/DTD/sodipodi-0.dtd"
   xmlns="http://www.w3.org/2000/svg"
   xmlns:svg="http://www.w3.org/2000/svg">
  <sodipodi:namedview
     id="namedview11"
     pagecolor="#ffffff"
     bordercolor="#666666"
     borderopacity="1.0"
     inkscape:pageshadow="2"
     inkscape:pageopacity="0.0"
     inkscape:pagecheckerboard="0"
     inkscape:document-units="mm"
     showgrid="false"
     inkscape:zoom="3.6562502"
     inkscape:cx="1.9145298"
     inkscape:cy="63.999997"
     inkscape:window-width="1280"
     inkscape:window-height="653"
     inkscape:window-x="0"
     inkscape:window-y="37"
     inkscape:window-maximized="1"
     inkscape:current-layer="text1113-6" />
  <defs
     id="defs47948" />
  <g
     id="layer1"
     transform="translate(-85.772126,-114.97947)">
    <g
       id="g47989"
       transform="matrix(0.6394132,0,0,0.6394132,30.928297,41.460081)">
      <rect
         style="fill:#000000;stroke-width:0.264583"
         id="rect31-6"
         width="52.965229"
         height="52.965229"
         x="85.772125"
         y="114.97947"
         ry="7.6370115" />
      <g
         id="g44715"
         transform="translate(37.642548,-40.856525)">
        <g
           aria-label="S"
           id="text1113-6"
           style="font-size:42.5653px;line-height:1.25;font-family:C059;-inkscape-font-specification:C059;fill:#ffffff;stroke-width:1.06413">
          <path
             d="m 83.21058,172.09457 -3.096792,1.05998 -0.228622,-0.68587 q -0.665083,-1.87055 -2.119952,-2.84739 -1.454868,-0.97684 -3.179927,-0.97684 -2.016032,0 -3.283846,1.2886 -1.267814,1.26781 -1.267814,3.09679 0,0.97684 0.498812,1.76663 0.519596,0.78978 1.371733,1.35095 0.852137,0.56116 1.974465,1.08076 1.122327,0.49881 2.348573,1.01841 1.226247,0.49881 2.452493,1.05997 1.226247,0.54038 2.348574,1.30938 1.122327,0.74822 1.974465,1.68349 0.852137,0.91449 1.350949,2.26544 0.519596,1.33017 0.519596,2.95131 0,2.76425 -1.475653,5.0089 -1.475652,2.22387 -3.824226,3.40855 -2.348573,1.1639 -5.029688,1.1639 -1.766627,0 -3.387766,-0.56117 -1.621139,-0.56116 -3.03444,-1.6627 -1.392518,-1.10155 -2.390142,-2.93052 -0.997624,-1.84977 -1.330165,-4.21912 l -0.10392,-0.70665 3.263063,-0.3949 0.103919,0.66509 q 0.249406,1.68349 0.914489,2.99287 0.665083,1.2886 1.600356,2.0576 0.935272,0.74822 2.036816,1.14311 1.101543,0.37411 2.32779,0.37411 2.847385,0 4.946553,-1.78741 2.119951,-1.78741 2.119951,-4.6348 0,-1.538 -0.831353,-2.7019 -0.81057,-1.16389 -2.119952,-1.89133 -1.288598,-0.74821 -2.868169,-1.39251 -1.579572,-0.66509 -3.179927,-1.37174 -1.579572,-0.70665 -2.888954,-1.57957 -1.288598,-0.87292 -2.119951,-2.26544 -0.81057,-1.4133 -0.81057,-3.26306 0,-3.13836 2.182303,-5.34145 2.182303,-2.22387 5.611636,-2.22387 2.722683,0 5.050473,1.57958 2.32779,1.57957 3.325414,4.44774 z"
             style="font-weight:bold;font-family:Sawasdee;-inkscape-font-specification:'Sawasdee Bold'"
             id="path945" />
        </g>
        <path
           style="fill:none;stroke:#ffffff;stroke-width:2.11667;stroke-linecap:round;stroke-linejoin:miter;stroke-miterlimit:4;stroke-dasharray:none;stroke-opacity:1"
           d="m 54.267674,188.05938 v 14.60376 h 38.653998"
           id="path4784-9" />
      </g>
    </g>
  </g>
</svg>
