<?xml version="1.0" encoding="UTF-8" standalone="no"?>
<svg
   viewBox="0 0 1440 320"
   version="1.1"
   id="svg143"
   sodipodi:docname="wave.svg"
   inkscape:version="1.2.2 (b0a8486541, 2022-12-01)"
   xmlns:inkscape="http://www.inkscape.org/namespaces/inkscape"
   xmlns:sodipodi="http://sodipodi.sourceforge.net/DTD/sodipodi-0.dtd"
   xmlns:xlink="http://www.w3.org/1999/xlink"
   xmlns="http://www.w3.org/2000/svg"
   xmlns:svg="http://www.w3.org/2000/svg">
  <defs
     id="defs147">
    <linearGradient
       inkscape:collect="always"
       id="linearGradient2574">
      <stop
         style="stop-color:#254441;stop-opacity:1;"
         offset="0"
         id="stop2570" />
      <stop
         style="stop-color:#254441;stop-opacity:0;"
         offset="1"
         id="stop2572" />
    </linearGradient>
    <linearGradient
       inkscape:collect="always"
       xlink:href="#linearGradient2574"
       id="linearGradient2576"
       x1="744"
       y1="78.403427"
       x2="744"
       y2="449.79938"
       gradientUnits="userSpaceOnUse" />
  </defs>
  <sodipodi:namedview
     id="namedview145"
     pagecolor="#ffffff"
     bordercolor="#000000"
     borderopacity="0.25"
     inkscape:showpageshadow="2"
     inkscape:pageopacity="0.0"
     inkscape:pagecheckerboard="0"
     inkscape:deskcolor="#d1d1d1"
     showgrid="false"
     inkscape:zoom="0.52499109"
     inkscape:cx="316.19584"
     inkscape:cy="320.00543"
     inkscape:window-width="1920"
     inkscape:window-height="1131"
     inkscape:window-x="0"
     inkscape:window-y="32"
     inkscape:window-maximized="1"
     inkscape:current-layer="svg143" />
  <rect
     style="fill:#b2b09b;fill-opacity:1;stroke:none;stroke-width:3.77953;stroke-linecap:square"
     id="rect428"
     width="1440"
     height="320"
     x="0"
     y="0" />
  <path
     fill="#254441"
     fill-opacity="1"
     d="M0,64L0,256L48,256L48,128L96,128L96,192L144,192L144,224L192,224L192,32L240,32L240,128L288,128L288,160L336,160L336,32L384,32L384,192L432,192L432,192L480,192L480,160L528,160L528,192L576,192L576,96L624,96L624,96L672,96L672,128L720,128L720,160L768,160L768,64L816,64L816,160L864,160L864,160L912,160L912,256L960,256L960,160L1008,160L1008,0L1056,0L1056,224L1104,224L1104,160L1152,160L1152,224L1200,224L1200,96L1248,96L1248,224L1296,224L1296,160L1344,160L1344,32L1392,32L1392,256L1440,256L1440,0L1392,0L1392,0L1344,0L1344,0L1296,0L1296,0L1248,0L1248,0L1200,0L1200,0L1152,0L1152,0L1104,0L1104,0L1056,0L1056,0L1008,0L1008,0L960,0L960,0L912,0L912,0L864,0L864,0L816,0L816,0L768,0L768,0L720,0L720,0L672,0L672,0L624,0L624,0L576,0L576,0L528,0L528,0L480,0L480,0L432,0L432,0L384,0L384,0L336,0L336,0L288,0L288,0L240,0L240,0L192,0L192,0L144,0L144,0L96,0L96,0L48,0L48,0L0,0L0,0Z"
     id="path141"
     style="fill-opacity:1;fill:url(#linearGradient2576)" />
</svg>
