<?xml version="1.0" encoding="UTF-8" standalone="no"?>
<!-- Created with Inkscape (http://www.inkscape.org/) -->

<svg
   width="11.904894mm"
   height="11.906932mm"
   viewBox="0 0 11.904894 11.906932"
   version="1.1"
   id="svg5"
   inkscape:version="1.1.2 (0a00cf5339, 2022-02-04)"
   sodipodi:docname="extension.svg"
   xmlns:inkscape="http://www.inkscape.org/namespaces/inkscape"
   xmlns:sodipodi="http://sodipodi.sourceforge.net/DTD/sodipodi-0.dtd"
   xmlns="http://www.w3.org/2000/svg"
   xmlns:svg="http://www.w3.org/2000/svg">
  <sodipodi:namedview
     id="namedview7"
     pagecolor="#ffffff"
     bordercolor="#666666"
     borderopacity="1.0"
     inkscape:pageshadow="2"
     inkscape:pageopacity="0.0"
     inkscape:pagecheckerboard="0"
     inkscape:document-units="mm"
     showgrid="false"
     inkscape:zoom="15.094818"
     inkscape:cx="19.70875"
     inkscape:cy="32.362099"
     inkscape:window-width="1536"
     inkscape:window-height="800"
     inkscape:window-x="0"
     inkscape:window-y="27"
     inkscape:window-maximized="1"
     inkscape:current-layer="layer1" />
  <defs
     id="defs2" />
  <g
     inkscape:label="Tavolo 1"
     inkscape:groupmode="layer"
     id="layer1"
     transform="translate(-102.2252,-118.46222)">
    <path
       d="m 112.27686,123.49639 -1.90005,-1.90005 c -0.19174,-0.19174 -0.0559,-0.51964 0.21528,-0.51965 l 1.51176,-1.1e-4 c 0.38265,-6e-5 0.69282,0.31011 0.69275,0.69275 l -1e-4,1.51176 c -3e-5,0.2712 -0.32792,0.40702 -0.51964,0.2153 z"
       fill="#c2ccde"
       fill-opacity="0.25"
       id="path1316"
       style="fill:#b794f4;fill-opacity:0.25098;stroke-width:0.230946" />
    <path
       d="m 106.07075,129.70249 -1.90003,-1.90004 c -0.19176,-0.19175 -0.51967,-0.0559 -0.51969,0.2153 l -1.1e-4,1.51176 c -7e-5,0.38265 0.3101,0.69282 0.69275,0.69275 l 1.51177,-1.1e-4 c 0.27119,-2e-5 0.40704,-0.32793 0.21531,-0.51966 z"
       fill="#c2ccde"
       fill-opacity="0.25"
       id="path1318"
       style="fill:#b794f4;fill-opacity:0.25098;stroke-width:0.230946" />
    <path
       d="m 110.37606,129.70213 1.90041,-1.90041 c 0.19175,-0.19175 0.51963,-0.0559 0.51963,0.21519 l -1.5e-4,1.51179 c -3e-5,0.38265 -0.31028,0.69288 -0.69291,0.69291 l -1.51176,1.2e-4 c -0.27119,3e-5 -0.40696,-0.32785 -0.21522,-0.5196 z"
       fill="#c2ccde"
       fill-opacity="0.25"
       id="path1320"
       style="fill:#b794f4;fill-opacity:0.25098;stroke-width:0.230946" />
    <path
       d="m 104.17105,123.49712 1.90041,-1.90041 c 0.19175,-0.19176 0.0559,-0.51963 -0.21518,-0.51961 l -1.51178,1.5e-4 c -0.38264,4e-5 -0.69288,0.31027 -0.69291,0.69291 l -1.3e-4,1.51176 c -6e-5,0.27119 0.32784,0.40694 0.51959,0.2152 z"
       fill="#c2ccde"
       fill-opacity="0.25"
       id="path1322"
       style="fill:#b794f4;fill-opacity:0.25098;stroke-width:0.230946" />
    <path
       d="m 111.32683,122.54635 -2.12316,2.12315 m -4.08295,4.08295 2.12313,-2.12313 m 4.08243,2.1226 -2.12278,-2.12277 m -4.08224,-4.08225 2.12276,2.12277 m 3.13279,-3.07333 1.90005,1.90005 c 0.19175,0.19174 0.51961,0.0559 0.51964,-0.2153 l 1.1e-4,-1.51175 c 5e-5,-0.38266 -0.31011,-0.69281 -0.69277,-0.69277 l -1.51175,1.2e-4 c -0.2712,1e-5 -0.40702,0.32791 -0.21528,0.51965 z m -6.20611,6.2061 1.90005,1.90005 c 0.19175,0.19174 0.0558,0.51964 -0.21531,0.51966 l -1.51176,1.2e-4 c -0.38266,6e-5 -0.69282,-0.3101 -0.69277,-0.69277 l 1.2e-4,-1.51175 c 2e-5,-0.2712 0.32794,-0.40704 0.51967,-0.21531 z m 8.10577,-7.2e-4 -1.90041,1.90041 c -0.19177,0.19176 -0.056,0.51965 0.21522,0.51961 l 1.51175,-1.3e-4 c 0.38264,-3e-5 0.69289,-0.31026 0.69292,-0.69292 l 1.5e-4,-1.51177 c 0,-0.27118 -0.32787,-0.40697 -0.51963,-0.2152 z m -6.20501,-6.20501 -1.90041,1.90041 c -0.19176,0.19177 -0.51965,0.056 -0.5196,-0.21522 l 1.4e-4,-1.51174 c 3e-5,-0.38264 0.31027,-0.69287 0.69291,-0.69291 l 1.51177,-1.7e-4 c 0.27117,0 0.40696,0.32787 0.21519,0.51963 z"
       stroke="#c2ccde"
       stroke-linecap="round"
       stroke-linejoin="round"
       id="path1324"
       style="fill:none;stroke:#b794f4;stroke-width:0.26458333;stroke-opacity:1;stroke-miterlimit:4;stroke-dasharray:none" />
  </g>
</svg>
