<?xml version="1.0" encoding="UTF-8" standalone="no"?>
<!-- Created with Inkscape (http://www.inkscape.org/) -->

<svg
   width="270.93332mm"
   height="180.44583mm"
   viewBox="0 0 270.93332 180.44583"
   version="1.1"
   id="svg5"
   inkscape:version="1.1.2 (0a00cf5339, 2022-02-04)"
   sodipodi:docname="konn.svg"
   xmlns:inkscape="http://www.inkscape.org/namespaces/inkscape"
   xmlns:sodipodi="http://sodipodi.sourceforge.net/DTD/sodipodi-0.dtd"
   xmlns="http://www.w3.org/2000/svg"
   xmlns:svg="http://www.w3.org/2000/svg">
  <sodipodi:namedview
     id="namedview7"
     pagecolor="#ffffff"
     bordercolor="#666666"
     borderopacity="1.0"
     inkscape:pageshadow="2"
     inkscape:pageopacity="0.0"
     inkscape:pagecheckerboard="0"
     inkscape:document-units="mm"
     showgrid="false"
     inkscape:zoom="0.707139"
     inkscape:cx="325.96137"
     inkscape:cy="432.72963"
     inkscape:window-width="1920"
     inkscape:window-height="1011"
     inkscape:window-x="0"
     inkscape:window-y="32"
     inkscape:window-maximized="1"
     inkscape:current-layer="text2623" />
  <defs
     id="defs2" />
  <g
     inkscape:label="Tavolo 1"
     inkscape:groupmode="layer"
     id="layer1"
     transform="translate(7.541626,-77.934219)">
    <rect
       style="fill:#7ad8ff;fill-opacity:1;stroke-width:0.324245;stroke-linecap:round"
       id="rect6782-3"
       width="270.93332"
       height="180.44583"
       x="-7.541626"
       y="77.934219" />
    <g
       aria-label="konn"
       id="text2623"
       style="font-size:32.0117px;line-height:1.25;letter-spacing:0px;stroke-width:0.800295">
      <path
         d="m 99.109705,154.26884 -5.057849,0.5442 v 23.75268 h 5.057849 z m 10.499835,7.29867 h -5.15388 l -5.185897,7.71482 5.057847,9.28339 h 5.69808 l -5.57003,-9.53949 z"
         style="font-weight:bold;font-family:'Fira Sans';-inkscape-font-specification:'Fira Sans Bold';fill:#ffffff"
         id="path1508" />
      <path
         d="m 118.66878,161.02331 c -5.1859,0 -8.32304,3.58531 -8.32304,9.0273 0,5.73009 3.16915,9.05931 8.32304,9.05931 5.18589,0 8.32304,-3.58531 8.32304,-9.0273 0,-5.7301 -3.13715,-9.05931 -8.32304,-9.05931 z m 0,3.71336 c 2.04875,0 3.07312,1.56857 3.07312,5.34595 0,3.68134 -1.02437,5.31394 -3.07312,5.31394 -2.04875,0 -3.07313,-1.56857 -3.07313,-5.34595 0,-3.68135 1.02438,-5.31394 3.07313,-5.31394 z"
         style="font-weight:bold;font-family:'Fira Sans';-inkscape-font-specification:'Fira Sans Bold';fill:#ffffff"
         id="path1510" />
      <path
         d="m 139.95655,161.02331 c -2.11278,0 -3.74537,0.86431 -5.1859,2.56093 l -0.35213,-2.01673 h -4.41761 v 16.99821 h 5.05785 v -11.62025 c 0.89632,-1.40851 1.82466,-2.2088 2.94507,-2.2088 0.99236,0 1.60059,0.48017 1.60059,2.27283 v 11.55622 h 5.05785 v -12.42054 c 0,-3.23318 -1.76065,-5.12187 -4.70572,-5.12187 z"
         style="font-weight:bold;font-family:'Fira Sans';-inkscape-font-specification:'Fira Sans Bold';fill:#ffffff"
         id="path1512" />
      <path
         d="m 158.42729,161.02331 c -2.11277,0 -3.74537,0.86431 -5.1859,2.56093 l -0.35213,-2.01673 h -4.41761 v 16.99821 h 5.05785 v -11.62025 c 0.89632,-1.40851 1.82466,-2.2088 2.94507,-2.2088 0.99237,0 1.60059,0.48017 1.60059,2.27283 v 11.55622 h 5.05785 v -12.42054 c 0,-3.23318 -1.76065,-5.12187 -4.70572,-5.12187 z"
         style="font-weight:bold;font-family:'Fira Sans';-inkscape-font-specification:'Fira Sans Bold';fill:#ffffff"
         id="path1514" />
    </g>
  </g>
</svg>
