<?xml version="1.0" encoding="UTF-8" standalone="no"?>
<!-- Created with Inkscape (http://www.inkscape.org/) -->

<svg
   width="67.73333mm"
   height="67.73333mm"
   viewBox="0 0 67.73333 67.733329"
   version="1.1"
   id="svg5"
   inkscape:version="1.1.2 (0a00cf5339, 2022-02-04)"
   sodipodi:docname="logo.svg"
   xmlns:inkscape="http://www.inkscape.org/namespaces/inkscape"
   xmlns:sodipodi="http://sodipodi.sourceforge.net/DTD/sodipodi-0.dtd"
   xmlns="http://www.w3.org/2000/svg"
   xmlns:svg="http://www.w3.org/2000/svg">
  <sodipodi:namedview
     id="namedview7"
     pagecolor="#ffffff"
     bordercolor="#666666"
     borderopacity="1.0"
     inkscape:pageshadow="2"
     inkscape:pageopacity="0.0"
     inkscape:pagecheckerboard="0"
     inkscape:document-units="mm"
     showgrid="false"
     inkscape:zoom="1.5239965"
     inkscape:cx="86.286285"
     inkscape:cy="195.5385"
     inkscape:window-width="1920"
     inkscape:window-height="1011"
     inkscape:window-x="0"
     inkscape:window-y="32"
     inkscape:window-maximized="1"
     inkscape:current-layer="layer1" />
  <defs
     id="defs2" />
  <g
     inkscape:label="Tavolo 1"
     inkscape:groupmode="layer"
     id="layer1"
     transform="translate(7.541626,-77.934219)">
    <rect
       style="fill:#000000;fill-opacity:1;stroke-width:0.0993279;stroke-linecap:round"
       id="rect6782-3"
       width="67.733002"
       height="67.73333"
       x="-7.541626"
       y="77.934219"
       ry="8.0691576" />
    <g
       aria-label="KS"
       id="text2623"
       style="font-size:35.1814px;line-height:1.25;letter-spacing:0px;stroke-width:0.879537">
      <path
         d="M 12.682368,98.415356 H 6.9126183 v 24.380714 h 5.7697497 z m 14.002197,0 h -6.086382 l -7.739908,11.363594 7.775089,13.01712 h 6.684467 l -8.408355,-13.4393 z"
         style="font-weight:bold;font-family:'Fira Sans';-inkscape-font-specification:'Fira Sans Bold';fill:#ffffff"
         id="path1868" />
      <path
         d="m 36.676055,97.817272 c -5.066122,0 -8.79535,2.744148 -8.79535,7.036278 0,3.62369 2.005339,5.8753 7.458456,7.564 3.553322,1.09063 4.468038,1.8998 4.468038,3.69405 0,1.86461 -1.477619,2.99042 -3.869954,2.99042 -2.427516,0 -4.362493,-0.87954 -6.156745,-2.39234 l -2.920056,3.20151 c 2.00534,1.93498 5.03094,3.48296 9.252708,3.48296 6.086382,0 9.674885,-3.16633 9.674885,-7.70473 0,-4.50322 -2.638605,-6.40301 -7.247368,-7.88063 -3.799591,-1.19617 -4.714308,-1.82943 -4.714308,-3.37741 0,-1.54799 1.266531,-2.39234 3.27187,-2.39234 1.970159,0 3.658866,0.66845 5.347573,2.04052 l 2.673787,-3.13114 c -2.146066,-2.040525 -4.714308,-3.131148 -8.443536,-3.131148 z"
         style="font-weight:bold;font-family:'Fira Sans';-inkscape-font-specification:'Fira Sans Bold';fill:#ffffff"
         id="path1870" />
    </g>
  </g>
</svg>
